SplineFontDB: 3.0
FontName: skydoor
FullName: Skydoor
FamilyName: skydoor
Weight: Regular
Copyright:  Copyright 1997 Terrence Curran 1997-2015 http://www.grilledcheese.com
Version: v2016-04-26
ItalicAngle: 0
UnderlinePosition: -113
UnderlineWidth: 20
Ascent: 800
Descent: 200
InvalidEm: 0
sfntRevision: 0x00010000
LayerCount: 2
Layer: 0 1 "Back" 1
Layer: 1 1 "Fore" 0
XUID: [1021 295 1029477607 15301289]
FSType: 4
OS2Version: 3
OS2_WeightWidthSlopeOnly: 0
OS2_UseTypoMetrics: 1
CreationTime: 1461793456
ModificationTime: 1461866397
PfmFamily: 81
TTFWeight: 400
TTFWidth: 5
LineGap: 0
VLineGap: 0
Panose: 0 0 0 0 0 0 0 0 0 0
OS2TypoAscent: 800
OS2TypoAOffset: 0
OS2TypoDescent: -200
OS2TypoDOffset: 0
OS2TypoLinegap: 0
OS2WinAscent: 1098
OS2WinAOffset: 0
OS2WinDescent: 263
OS2WinDOffset: 0
HheadAscent: 800
HheadAOffset: 0
HheadDescent: -200
HheadDOffset: 0
OS2SubXSize: 700
OS2SubYSize: 650
OS2SubXOff: 0
OS2SubYOff: 140
OS2SupXSize: 700
OS2SupYSize: 650
OS2SupXOff: 0
OS2SupYOff: 477
OS2StrikeYSize: 50
OS2StrikeYPos: 250
OS2CapHeight: 0
OS2XHeight: 0
OS2Vendor: 'pyrs'
OS2CodePages: 00000001.00000000
OS2UnicodeRanges: 8000002f.0000004a.00000000.00000000
MarkAttachClasses: 1
DEI: 91125
TtTable: prep
PUSHW_1
 0
CALL
SVTCA[y-axis]
PUSHW_3
 1
 3
 2
CALL
SVTCA[x-axis]
PUSHW_3
 4
 5
 2
CALL
SVTCA[x-axis]
PUSHW_8
 4
 158
 129
 100
 72
 43
 0
 8
CALL
PUSHW_8
 5
 275
 225
 175
 125
 75
 0
 8
CALL
PUSHW_8
 6
 79
 61
 47
 35
 21
 0
 8
CALL
PUSHW_8
 7
 70
 61
 47
 35
 21
 0
 8
CALL
PUSHW_8
 8
 67
 61
 47
 35
 21
 0
 8
CALL
SVTCA[y-axis]
PUSHW_8
 1
 88
 72
 56
 35
 21
 0
 8
CALL
PUSHW_8
 2
 158
 129
 100
 72
 43
 0
 8
CALL
PUSHW_8
 3
 79
 61
 47
 35
 21
 0
 8
CALL
SVTCA[y-axis]
PUSHW_3
 9
 3
 7
CALL
PUSHW_1
 0
DUP
RCVT
RDTG
ROUND[Black]
RTG
WCVTP
EndTTInstrs
TtTable: fpgm
PUSHW_1
 0
FDEF
MPPEM
PUSHW_1
 9
LT
IF
PUSHB_2
 1
 1
INSTCTRL
EIF
PUSHW_1
 511
SCANCTRL
PUSHW_1
 68
SCVTCI
PUSHW_2
 9
 3
SDS
SDB
ENDF
PUSHW_1
 1
FDEF
DUP
DUP
RCVT
ROUND[Black]
WCVTP
PUSHB_1
 1
ADD
ENDF
PUSHW_1
 2
FDEF

StartChar: .notdef
Encoding: 65536 -1 0
Width: 272
Flags: W
LayerCount: 2
Back
Fore
SplineSet
91 527 m 1,0,1
 91 558 91 558 107.5 568.5 c 128,-1,2
 124 579 124 579 144 579 c 2,3,-1
 220 579 l 1,4,-1
 220 520 l 1,5,-1
 160 520 l 1,6,-1
 160 427 l 2,7,8
 160 416 160 416 165 405.5 c 128,-1,9
 170 395 170 395 181 395 c 2,10,-1
 234 395 l 1,11,-1
 234 339 l 1,12,-1
 160 338 l 1,13,-1
 160 22 l 2,14,15
 160 11 160 11 153 5.5 c 128,-1,16
 146 0 146 0 136 0 c 2,17,-1
 91 0 l 1,18,-1
 91 304 l 2,19,20
 91 318 91 318 86 328.5 c 128,-1,21
 81 339 81 339 65 339 c 2,22,-1
 31 338 l 1,23,-1
 31 395 l 1,24,-1
 91 395 l 1,25,-1
 91 527 l 1,26,-1
 91 527 l 1,0,1
EndSplineSet
EndChar

StartChar: Thorn
Encoding: 11 11 8
Width: 1161
Flags: W
LayerCount: 2
Back
Fore
SplineSet
727 652 m 2,0,-1
 727 367 l 2,1,2
 727 355 727 355 718 345 c 128,-1,3
 709 335 709 335 696 328.5 c 128,-1,4
 683 322 683 322 667.5 318 c 128,-1,5
 652 314 652 314 639 314 c 2,6,-1
 529 314 l 1,7,-1
 529 240 l 2,8,9
 530 232 530 232 522.5 225 c 128,-1,10
 515 218 515 218 504 218 c 2,11,-1
 459 218 l 1,12,-1
 459 774 l 2,13,14
 459 784 459 784 464.5 790.5 c 128,-1,15
 470 797 470 797 487 797 c 2,16,-1
 529 797 l 1,17,-1
 529 719 l 1,18,-1
 619 719 l 2,19,20
 672 719 672 719 699.5 698 c 128,-1,21
 727 677 727 677 727 652 c 2,0,-1
656 393 m 2,22,-1
 656 634 l 2,23,24
 656 654 656 654 639.5 665.5 c 128,-1,25
 623 677 623 677 587 677 c 2,26,-1
 529 677 l 1,27,-1
 529 357 l 1,28,-1
 587 357 l 2,29,30
 624 357 624 357 640 365.5 c 128,-1,31
 656 374 656 374 656 393 c 2,22,-1
75 56 m 1,32,-1
 95 56 l 2,33,34
 119 56 119 56 119 68 c 2,35,-1
 119 102 l 1,36,-1
 119 109 l 2,37,38
 119 124 119 124 95 124 c 2,39,-1
 75 124 l 1,40,-1
 75 56 l 1,32,-1
106 139 m 2,41,42
 125 139 125 139 134.5 131.5 c 128,-1,43
 144 124 144 124 144 115 c 2,44,-1
 144 105 l 1,45,-1
 144 59 l 2,46,47
 144 51 144 51 133.5 46 c 128,-1,48
 123 41 123 41 113 41 c 2,49,-1
 75 41 l 1,50,-1
 75 8 l 2,51,52
 75 0 75 0 66 0 c 2,53,-1
 50 0 l 1,54,-1
 50 195 l 2,55,56
 50 203 50 203 60 203 c 2,57,-1
 75 203 l 1,58,-1
 75 139 l 1,59,-1
 106 139 l 2,41,42
1065 492 m 256,60,61
 1065 390 1065 390 1028 300 c 128,-1,62
 991 210 991 210 927.5 143.5 c 128,-1,63
 864 77 864 77 778 38 c 128,-1,64
 692 -1 692 -1 595 -1 c 0,65,66
 502 -1 502 -1 420 35.5 c 128,-1,67
 338 72 338 72 275 133 c 1,68,-1
 335 183 l 1,69,70
 387 131 387 131 454 102 c 128,-1,71
 521 73 521 73 597 73 c 0,72,73
 677 73 677 73 747 106 c 128,-1,74
 817 139 817 139 869.5 196 c 128,-1,75
 922 253 922 253 952 329 c 128,-1,76
 982 405 982 405 982 492 c 256,77,78
 982 579 982 579 952 655.5 c 128,-1,79
 922 732 922 732 869.5 789 c 128,-1,80
 817 846 817 846 747 879 c 128,-1,81
 677 912 677 912 597 912 c 0,82,83
 498 912 498 912 415 863 c 128,-1,84
 332 814 332 814 279 733 c 1,85,-1
 227 772 l 1,86,87
 204 741 204 741 193 718 c 128,-1,88
 182 695 182 695 177 687 c 1,89,-1
 159 697 l 1,90,91
 169 721 169 721 185 744.5 c 128,-1,92
 201 768 201 768 218 791 c 0,93,94
 251 835 251 835 292.5 871 c 128,-1,95
 334 907 334 907 382 932.5 c 128,-1,96
 430 958 430 958 484 972 c 128,-1,97
 538 986 538 986 595 986 c 0,98,99
 692 986 692 986 778 947 c 128,-1,100
 864 908 864 908 927.5 841 c 128,-1,101
 991 774 991 774 1028 684 c 128,-1,102
 1065 594 1065 594 1065 492 c 256,60,61
224 846 m 1,103,104
 203 823 203 823 183.5 796.5 c 128,-1,105
 164 770 164 770 147 741 c 128,-1,106
 130 712 130 712 118 680 c 128,-1,107
 106 648 106 648 100 615 c 0,108,109
 92 570 92 570 94 526 c 128,-1,110
 96 482 96 482 106 440 c 128,-1,111
 116 398 116 398 134 359.5 c 128,-1,112
 152 321 152 321 175 288 c 1,113,-1
 107 245 l 1,114,115
 50 324 50 324 23 418 c 128,-1,116
 -4 512 -4 512 15 619 c 0,117,118
 22 660 22 660 36 700 c 128,-1,119
 50 740 50 740 69.5 777 c 128,-1,120
 89 814 89 814 113 846.5 c 128,-1,121
 137 879 137 879 164 906 c 1,122,-1
 214 863 l 1,123,124
 221 872 221 872 228 879 c 128,-1,125
 235 886 235 886 243.5 893.5 c 128,-1,126
 252 901 252 901 262.5 909 c 128,-1,127
 273 917 273 917 288 928 c 1,128,-1
 302 916 l 1,129,130
 279 898 279 898 258 880.5 c 128,-1,131
 237 863 237 863 225 846 c 1,132,-1
 224 846 l 1,103,104
1501 249 m 1,133,-1
 1115 249 l 1,134,-1
 1115 -67 l 1,135,-1
 208 -67 l 1,136,-1
 208 364 l 1,137,-1
 208 372 l 1,138,-1
 227 371 l 1,139,-1
 227 364 l 1,140,-1
 227 -50 l 1,141,-1
 1097 -50 l 1,142,-1
 1097 266 l 1,143,-1
 1501 266 l 1,144,-1
 1509 266 l 1,145,-1
 1509 249 l 1,146,-1
 1501 249 l 1,133,-1
EndSplineSet
EndChar

StartChar: thorn
Encoding: 12 12 9
Width: 1161
Flags: W
LayerCount: 2
Back
Fore
SplineSet
553 380 m 1,0,-1
 611 380 l 2,1,2
 647 380 647 380 663 388.5 c 128,-1,3
 679 397 679 397 679 416 c 2,4,-1
 679 512 l 1,5,-1
 679 532 l 2,6,7
 679 552 679 552 662.5 563.5 c 128,-1,8
 646 575 646 575 611 575 c 2,9,-1
 553 575 l 1,10,-1
 553 380 l 1,0,-1
642 617 m 2,11,12
 696 617 696 617 723.5 596 c 128,-1,13
 751 575 751 575 751 550 c 2,14,-1
 751 522 l 1,15,-1
 751 389 l 2,16,17
 751 377 751 377 742 367.5 c 128,-1,18
 733 358 733 358 719.5 351 c 128,-1,19
 706 344 706 344 690.5 340.5 c 128,-1,20
 675 337 675 337 662 337 c 2,21,-1
 553 337 l 1,22,-1
 552 243 l 2,23,24
 552 235 552 235 545.5 228 c 128,-1,25
 539 221 539 221 527 221 c 2,26,-1
 483 221 l 1,27,-1
 482 777 l 2,28,29
 482 786 482 786 488 793 c 128,-1,30
 494 800 494 800 510 800 c 2,31,-1
 552 800 l 1,32,-1
 553 617 l 1,33,-1
 642 617 l 2,11,12
143 152 m 2,34,-1
 143 52 l 2,35,36
 143 44 143 44 132 39 c 128,-1,37
 121 34 121 34 112 34 c 2,38,-1
 74 34 l 1,39,-1
 74 8 l 2,40,41
 74 0 74 0 65 0 c 2,42,-1
 49 0 l 1,43,-1
 49 195 l 2,44,45
 49 203 49 203 59 203 c 2,46,-1
 74 203 l 1,47,-1
 74 175 l 1,48,-1
 89 175 l 2,49,50
 94 175 94 175 99 175 c 128,-1,51
 104 175 104 175 105 176 c 0,52,53
 124 175 124 175 133.5 168 c 128,-1,54
 143 161 143 161 143 152 c 2,34,-1
118 61 m 2,55,-1
 118 146 l 2,56,57
 118 161 118 161 94 161 c 2,58,-1
 74 161 l 1,59,-1
 74 49 l 1,60,-1
 94 49 l 2,61,62
 118 49 118 49 118 61 c 2,55,-1
1065 492 m 256,63,64
 1065 390 1065 390 1028 300 c 128,-1,65
 991 210 991 210 927.5 143.5 c 128,-1,66
 864 77 864 77 778 38 c 128,-1,67
 692 -1 692 -1 595 -1 c 0,68,69
 502 -1 502 -1 420 35.5 c 128,-1,70
 338 72 338 72 275 133 c 1,71,-1
 335 183 l 1,72,73
 387 131 387 131 454 102 c 128,-1,74
 521 73 521 73 597 73 c 0,75,76
 677 73 677 73 747 106 c 128,-1,77
 817 139 817 139 869.5 196 c 128,-1,78
 922 253 922 253 952 329 c 128,-1,79
 982 405 982 405 982 492 c 256,80,81
 982 579 982 579 952 655.5 c 128,-1,82
 922 732 922 732 869.5 789 c 128,-1,83
 817 846 817 846 747 879 c 128,-1,84
 677 912 677 912 597 912 c 0,85,86
 498 912 498 912 415 863 c 128,-1,87
 332 814 332 814 279 733 c 1,88,-1
 227 772 l 1,89,90
 204 741 204 741 193 718 c 128,-1,91
 182 695 182 695 177 687 c 1,92,-1
 159 697 l 1,93,94
 169 721 169 721 185 744.5 c 128,-1,95
 201 768 201 768 218 791 c 0,96,97
 251 835 251 835 292.5 871 c 128,-1,98
 334 907 334 907 382 932.5 c 128,-1,99
 430 958 430 958 484 972 c 128,-1,100
 538 986 538 986 595 986 c 0,101,102
 692 986 692 986 778 947 c 128,-1,103
 864 908 864 908 927.5 841 c 128,-1,104
 991 774 991 774 1028 684 c 128,-1,105
 1065 594 1065 594 1065 492 c 256,63,64
224 846 m 1,106,107
 203 823 203 823 183.5 796.5 c 128,-1,108
 164 770 164 770 147 741 c 128,-1,109
 130 712 130 712 118 680 c 128,-1,110
 106 648 106 648 100 615 c 0,111,112
 92 570 92 570 94 526 c 128,-1,113
 96 482 96 482 106 440 c 128,-1,114
 116 398 116 398 134 359.5 c 128,-1,115
 152 321 152 321 175 288 c 1,116,-1
 107 245 l 1,117,118
 50 324 50 324 23 418 c 128,-1,119
 -4 512 -4 512 15 619 c 0,120,121
 22 660 22 660 36 700 c 128,-1,122
 50 740 50 740 69.5 777 c 128,-1,123
 89 814 89 814 113 846.5 c 128,-1,124
 137 879 137 879 164 906 c 1,125,-1
 214 863 l 1,126,127
 221 872 221 872 228 879 c 128,-1,128
 235 886 235 886 243.5 893.5 c 128,-1,129
 252 901 252 901 262.5 909 c 128,-1,130
 273 917 273 917 288 928 c 1,131,-1
 302 916 l 1,132,133
 279 898 279 898 258 880.5 c 128,-1,134
 237 863 237 863 225 846 c 1,135,-1
 224 846 l 1,106,107
1501 249 m 1,136,-1
 1115 249 l 1,137,-1
 1115 -67 l 1,138,-1
 208 -67 l 1,139,-1
 208 364 l 1,140,-1
 208 372 l 1,141,-1
 227 371 l 1,142,-1
 227 364 l 1,143,-1
 227 -50 l 1,144,-1
 1097 -50 l 1,145,-1
 1097 266 l 1,146,-1
 1501 266 l 1,147,-1
 1509 266 l 1,148,-1
 1509 249 l 1,149,-1
 1501 249 l 1,136,-1
EndSplineSet
EndChar

StartChar: onehalf
Encoding: 21 21 12
Width: 1161
Flags: W
LayerCount: 2
Back
Fore
SplineSet
685 593 m 1,0,-1
 685 550 l 2,1,2
 685 546 685 546 682.5 542.5 c 128,-1,3
 680 539 680 539 674 539 c 2,4,-1
 515 539 l 1,5,-1
 494 539 l 1,6,-1
 494 581 l 2,7,8
 494 587 494 587 496 590 c 128,-1,9
 498 593 498 593 508 593 c 2,10,-1
 565 593 l 1,11,-1
 565 811 l 2,12,13
 565 821 565 821 554 821 c 2,14,-1
 534 821 l 1,15,-1
 513 821 l 1,16,-1
 513 864 l 1,17,-1
 606 864 l 2,18,19
 616 864 616 864 616 854 c 2,20,-1
 616 602 l 2,21,22
 616 593 616 593 624 593 c 2,23,-1
 664 593 l 1,24,-1
 685 593 l 1,0,-1
680 142 m 1,25,-1
 508 142 l 1,26,-1
 508 318 l 1,27,-1
 632 318 l 1,28,-1
 632 411 l 2,29,30
 632 419 632 419 631 424 c 128,-1,31
 630 429 630 429 622 429 c 2,32,-1
 555 429 l 1,33,-1
 555 412 l 2,34,35
 555 401 555 401 542 401 c 2,36,-1
 508 401 l 1,37,-1
 508 454 l 2,38,39
 508 468 508 468 522 468 c 2,40,-1
 680 468 l 1,41,-1
 680 306 l 2,42,43
 680 291 680 291 673.5 283 c 128,-1,44
 667 275 667 275 647 275 c 2,45,-1
 551 275 l 1,46,-1
 551 200 l 2,47,48
 551 186 551 186 564 186 c 2,49,-1
 680 186 l 1,50,-1
 680 142 l 1,25,-1
719 500 m 2,51,52
 721 480 721 480 696 480 c 2,53,-1
 478 480 l 1,54,-1
 478 495 l 2,55,56
 478 504 478 504 480.5 510 c 128,-1,57
 483 516 483 516 497 516 c 2,58,-1
 719 516 l 1,59,-1
 719 500 l 2,51,52
1065 492 m 256,60,61
 1065 390 1065 390 1028 300 c 128,-1,62
 991 210 991 210 927.5 143.5 c 128,-1,63
 864 77 864 77 778 38 c 128,-1,64
 692 -1 692 -1 595 -1 c 0,65,66
 502 -1 502 -1 420 35.5 c 128,-1,67
 338 72 338 72 275 133 c 1,68,-1
 335 183 l 1,69,70
 387 131 387 131 454 102 c 128,-1,71
 521 73 521 73 597 73 c 0,72,73
 677 73 677 73 747 106 c 128,-1,74
 817 139 817 139 869.5 196 c 128,-1,75
 922 253 922 253 952 329 c 128,-1,76
 982 405 982 405 982 492 c 256,77,78
 982 579 982 579 952 655.5 c 128,-1,79
 922 732 922 732 869.5 789 c 128,-1,80
 817 846 817 846 747 879 c 128,-1,81
 677 912 677 912 597 912 c 0,82,83
 498 912 498 912 415 863 c 128,-1,84
 332 814 332 814 279 733 c 1,85,-1
 227 772 l 1,86,87
 204 741 204 741 193 718 c 128,-1,88
 182 695 182 695 177 687 c 1,89,-1
 159 697 l 1,90,91
 169 721 169 721 185 744.5 c 128,-1,92
 201 768 201 768 218 791 c 0,93,94
 251 835 251 835 292.5 871 c 128,-1,95
 334 907 334 907 382 932.5 c 128,-1,96
 430 958 430 958 484 972 c 128,-1,97
 538 986 538 986 595 986 c 0,98,99
 692 986 692 986 778 947 c 128,-1,100
 864 908 864 908 927.5 841 c 128,-1,101
 991 774 991 774 1028 684 c 128,-1,102
 1065 594 1065 594 1065 492 c 256,60,61
224 846 m 1,103,104
 203 823 203 823 183.5 796.5 c 128,-1,105
 164 770 164 770 147 741 c 128,-1,106
 130 712 130 712 118 680 c 128,-1,107
 106 648 106 648 100 615 c 0,108,109
 92 570 92 570 94 526 c 128,-1,110
 96 482 96 482 106 440 c 128,-1,111
 116 398 116 398 134 359.5 c 128,-1,112
 152 321 152 321 175 288 c 1,113,-1
 107 245 l 1,114,115
 50 324 50 324 23 418 c 128,-1,116
 -4 512 -4 512 15 619 c 0,117,118
 22 660 22 660 36 700 c 128,-1,119
 50 740 50 740 69.5 777 c 128,-1,120
 89 814 89 814 113 846.5 c 128,-1,121
 137 879 137 879 164 906 c 1,122,-1
 214 863 l 1,123,124
 221 872 221 872 228 879 c 128,-1,125
 235 886 235 886 243.5 893.5 c 128,-1,126
 252 901 252 901 262.5 909 c 128,-1,127
 273 917 273 917 288 928 c 1,128,-1
 302 916 l 1,129,130
 279 898 279 898 258 880.5 c 128,-1,131
 237 863 237 863 225 846 c 1,132,-1
 224 846 l 1,103,104
1501 249 m 1,133,-1
 1115 249 l 1,134,-1
 1115 -67 l 1,135,-1
 208 -67 l 1,136,-1
 208 364 l 1,137,-1
 208 372 l 1,138,-1
 227 371 l 1,139,-1
 227 364 l 1,140,-1
 227 -50 l 1,141,-1
 1097 -50 l 1,142,-1
 1097 266 l 1,143,-1
 1501 266 l 1,144,-1
 1509 266 l 1,145,-1
 1509 249 l 1,146,-1
 1501 249 l 1,133,-1
EndSplineSet
EndChar

StartChar: onequarter
Encoding: 22 22 13
Width: 1161
Flags: W
LayerCount: 2
Back
Fore
SplineSet
681 594 m 1,0,-1
 681 551 l 2,1,2
 681 547 681 547 678 543.5 c 128,-1,3
 675 540 675 540 670 540 c 2,4,-1
 511 540 l 1,5,-1
 490 540 l 1,6,-1
 490 582 l 2,7,8
 490 588 490 588 492 591 c 128,-1,9
 494 594 494 594 503 594 c 2,10,-1
 560 594 l 1,11,-1
 561 812 l 2,12,13
 561 823 561 823 550 823 c 2,14,-1
 530 823 l 1,15,-1
 508 823 l 1,16,-1
 508 866 l 1,17,-1
 601 866 l 2,18,19
 611 866 611 866 611 855 c 2,20,-1
 611 604 l 2,21,22
 611 599 611 599 612.5 596.5 c 128,-1,23
 614 594 614 594 620 594 c 2,24,-1
 660 594 l 1,25,-1
 681 594 l 1,0,-1
686 144 m 1,26,-1
 649 143 l 1,27,-1
 649 292 l 1,28,-1
 566 292 l 2,29,30
 549 292 549 292 540.5 297 c 128,-1,31
 532 302 532 302 528 308.5 c 128,-1,32
 524 315 524 315 523.5 321.5 c 128,-1,33
 523 328 523 328 523 332 c 2,34,-1
 523 452 l 2,35,36
 523 457 523 457 525.5 463 c 128,-1,37
 528 469 528 469 535 469 c 2,38,-1
 556 469 l 1,39,-1
 556 340 l 1,40,-1
 648 340 l 1,41,-1
 649 469 l 1,42,-1
 686 469 l 1,43,-1
 686 144 l 1,26,-1
718 507 m 2,44,45
 718 487 718 487 694 487 c 2,46,-1
 477 487 l 1,47,-1
 477 501 l 2,48,49
 477 510 477 510 479 516 c 128,-1,50
 481 522 481 522 495 522 c 2,51,-1
 718 522 l 1,52,-1
 718 507 l 2,44,45
1065 492 m 256,53,54
 1065 390 1065 390 1028 300 c 128,-1,55
 991 210 991 210 927.5 143.5 c 128,-1,56
 864 77 864 77 778 38 c 128,-1,57
 692 -1 692 -1 595 -1 c 0,58,59
 502 -1 502 -1 420 35.5 c 128,-1,60
 338 72 338 72 275 133 c 1,61,-1
 335 183 l 1,62,63
 387 131 387 131 454 102 c 128,-1,64
 521 73 521 73 597 73 c 0,65,66
 677 73 677 73 747 106 c 128,-1,67
 817 139 817 139 869.5 196 c 128,-1,68
 922 253 922 253 952 329 c 128,-1,69
 982 405 982 405 982 492 c 256,70,71
 982 579 982 579 952 655.5 c 128,-1,72
 922 732 922 732 869.5 789 c 128,-1,73
 817 846 817 846 747 879 c 128,-1,74
 677 912 677 912 597 912 c 0,75,76
 498 912 498 912 415 863 c 128,-1,77
 332 814 332 814 279 733 c 1,78,-1
 227 772 l 1,79,80
 204 741 204 741 193 718 c 128,-1,81
 182 695 182 695 177 687 c 1,82,-1
 159 697 l 1,83,84
 169 721 169 721 185 744.5 c 128,-1,85
 201 768 201 768 218 791 c 0,86,87
 251 835 251 835 292.5 871 c 128,-1,88
 334 907 334 907 382 932.5 c 128,-1,89
 430 958 430 958 484 972 c 128,-1,90
 538 986 538 986 595 986 c 0,91,92
 692 986 692 986 778 947 c 128,-1,93
 864 908 864 908 927.5 841 c 128,-1,94
 991 774 991 774 1028 684 c 128,-1,95
 1065 594 1065 594 1065 492 c 256,53,54
224 846 m 1,96,97
 203 823 203 823 183.5 796.5 c 128,-1,98
 164 770 164 770 147 741 c 128,-1,99
 130 712 130 712 118 680 c 128,-1,100
 106 648 106 648 100 615 c 0,101,102
 92 570 92 570 94 526 c 128,-1,103
 96 482 96 482 106 440 c 128,-1,104
 116 398 116 398 134 359.5 c 128,-1,105
 152 321 152 321 175 288 c 1,106,-1
 107 245 l 1,107,108
 50 324 50 324 23 418 c 128,-1,109
 -4 512 -4 512 15 619 c 0,110,111
 22 660 22 660 36 700 c 128,-1,112
 50 740 50 740 69.5 777 c 128,-1,113
 89 814 89 814 113 846.5 c 128,-1,114
 137 879 137 879 164 906 c 1,115,-1
 214 863 l 1,116,117
 221 872 221 872 228 879 c 128,-1,118
 235 886 235 886 243.5 893.5 c 128,-1,119
 252 901 252 901 262.5 909 c 128,-1,120
 273 917 273 917 288 928 c 1,121,-1
 302 916 l 1,122,123
 279 898 279 898 258 880.5 c 128,-1,124
 237 863 237 863 225 846 c 1,125,-1
 224 846 l 1,96,97
1501 249 m 1,126,-1
 1115 249 l 1,127,-1
 1115 -67 l 1,128,-1
 208 -67 l 1,129,-1
 208 364 l 1,130,-1
 208 372 l 1,131,-1
 227 371 l 1,132,-1
 227 364 l 1,133,-1
 227 -50 l 1,134,-1
 1097 -50 l 1,135,-1
 1097 266 l 1,136,-1
 1501 266 l 1,137,-1
 1509 266 l 1,138,-1
 1509 249 l 1,139,-1
 1501 249 l 1,126,-1
EndSplineSet
EndChar

StartChar: onesuperior
Encoding: 23 23 14
Width: 679
Flags: W
LayerCount: 2
Back
Fore
SplineSet
487 583 m 1,0,-1
 487 548 l 2,1,2
 487 545 487 545 485 542 c 128,-1,3
 483 539 483 539 478 539 c 2,4,-1
 351 539 l 1,5,-1
 334 539 l 1,6,-1
 334 573 l 2,7,8
 334 578 334 578 335.5 580.5 c 128,-1,9
 337 583 337 583 345 583 c 2,10,-1
 391 583 l 1,11,-1
 391 757 l 2,12,13
 391 766 391 766 382 766 c 2,14,-1
 366 766 l 1,15,-1
 349 766 l 1,16,-1
 349 800 l 1,17,-1
 423 800 l 2,18,19
 431 800 431 800 431 791 c 2,20,-1
 431 590 l 2,21,22
 431 583 431 583 438 583 c 2,23,-1
 470 583 l 1,24,-1
 487 583 l 1,0,-1
620 777 m 1,25,26
 639 749 639 749 647 720.5 c 128,-1,27
 655 692 655 692 655 657 c 0,28,29
 655 607 655 607 635 563.5 c 128,-1,30
 615 520 615 520 580.5 488 c 128,-1,31
 546 456 546 456 499.5 437 c 128,-1,32
 453 418 453 418 400 418 c 0,33,34
 378 418 378 418 351.5 424 c 128,-1,35
 325 430 325 430 305 436 c 0,36,37
 265 450 265 450 234.5 475 c 128,-1,38
 204 500 204 500 182 534 c 1,39,-1
 167 534 l 1,40,41
 171 526 171 526 174.5 520.5 c 128,-1,42
 178 515 178 515 183 508 c 0,43,44
 217 460 217 460 270 437 c 1,45,-1
 260 421 l 1,46,47
 230 433 230 433 208 451 c 128,-1,48
 186 469 186 469 167 497 c 0,49,50
 155 513 155 513 146 534 c 1,51,-1
 62 534 l 1,52,-1
 62 654 l 1,53,-1
 48 654 l 1,54,-1
 39 654 l 1,55,-1
 39 665 l 1,56,-1
 47 665 l 1,57,-1
 129 665 l 1,58,59
 136 716 136 716 163.5 761 c 128,-1,60
 191 806 191 806 239 839 c 0,61,62
 294 878 294 878 357 884 c 128,-1,63
 420 890 420 890 477 868 c 1,64,-1
 494 891 l 1,65,-1
 503 903 l 1,66,-1
 527 884 l 1,67,-1
 518 872 l 1,68,-1
 489 835 l 1,69,-1
 480 823 l 1,70,-1
 456 842 l 1,71,-1
 466 855 l 1,72,73
 413 877 413 877 358 871 c 128,-1,74
 303 865 303 865 249 828 c 0,75,76
 204 797 204 797 179 755 c 128,-1,77
 154 713 154 713 147 665 c 1,78,-1
 202 665 l 1,79,-1
 211 665 l 1,80,-1
 211 654 l 1,81,-1
 204 654 l 1,82,-1
 145 654 l 1,83,84
 141 625 141 625 145.5 599.5 c 128,-1,85
 150 574 150 574 163 546 c 1,86,-1
 225 546 l 1,87,-1
 233 546 l 1,88,-1
 233 534 l 1,89,-1
 227 534 l 1,90,-1
 204 534 l 1,91,92
 236 487 236 487 287 460 c 128,-1,93
 338 433 338 433 402 433 c 0,94,95
 451 433 451 433 494 450.5 c 128,-1,96
 537 468 537 468 569.5 498.5 c 128,-1,97
 602 529 602 529 620.5 569.5 c 128,-1,98
 639 610 639 610 639 657 c 0,99,100
 639 718 639 718 607 770 c 1,101,-1
 620 778 l 1,102,-1
 620 777 l 1,25,26
141 546 m 1,103,104
 130 574 130 574 126 599.5 c 128,-1,105
 122 625 122 625 127 654 c 1,106,-1
 73 654 l 1,107,-1
 73 546 l 1,108,-1
 141 546 l 1,103,104
78 669 m 1,109,-1
 65 669 l 1,110,111
 63 674 63 674 58.5 678.5 c 128,-1,112
 54 683 54 683 47 684 c 0,113,114
 39 684 39 684 32 678 c 128,-1,115
 25 672 25 672 25 664 c 256,116,117
 25 656 25 656 31 648.5 c 128,-1,118
 37 641 37 641 46 641 c 0,119,120
 52 641 52 641 58 643 c 1,121,-1
 58 631 l 2,122,123
 55 630 55 630 52.5 629.5 c 128,-1,124
 50 629 50 629 47 629 c 0,125,126
 33 629 33 629 23.5 638 c 128,-1,127
 14 647 14 647 14 661 c 256,128,129
 14 675 14 675 23.5 684 c 128,-1,130
 33 693 33 693 47 693 c 0,131,132
 58 693 58 693 66 686 c 128,-1,133
 74 679 74 679 78 669 c 1,109,-1
EndSplineSet
EndChar

StartChar: threequarters
Encoding: 24 24 15
Width: 1161
Flags: W
LayerCount: 2
Back
Fore
SplineSet
689 528 m 1,0,-1
 689 670 l 2,1,2
 689 677 689 677 683.5 683.5 c 128,-1,3
 678 690 678 690 670.5 695 c 128,-1,4
 663 700 663 700 654 703 c 128,-1,5
 645 706 645 706 638 706 c 1,6,7
 664 706 664 706 675.5 711.5 c 128,-1,8
 687 717 687 717 687 743 c 2,9,-1
 687 853 l 1,10,-1
 593 853 l 1,11,-1
 504 853 l 1,12,-1
 504 778 l 1,13,-1
 550 778 l 1,14,-1
 550 813 l 1,15,-1
 614 813 l 2,16,17
 622 813 622 813 630 810.5 c 128,-1,18
 638 808 638 808 638 797 c 2,19,-1
 638 724 l 1,20,-1
 544 723 l 1,21,-1
 544 681 l 1,22,-1
 609 681 l 2,23,24
 621 681 621 681 631 674.5 c 128,-1,25
 641 668 641 668 641 655 c 2,26,27
 641 655 641 655 640.5 643.5 c 128,-1,28
 640 632 640 632 640 618 c 128,-1,29
 640 604 640 604 640 590 c 128,-1,30
 640 576 640 576 640 570 c 1,31,-1
 548 570 l 1,32,-1
 548 596 l 1,33,-1
 501 596 l 1,34,-1
 501 549 l 2,35,36
 501 543 501 543 503.5 535.5 c 128,-1,37
 506 528 506 528 517 528 c 2,38,-1
 686 528 l 1,39,-1
 689 528 l 1,0,-1
691 124 m 1,40,-1
 653 124 l 1,41,-1
 653 273 l 1,42,-1
 570 273 l 2,43,44
 554 273 554 273 545 277.5 c 128,-1,45
 536 282 536 282 532 288.5 c 128,-1,46
 528 295 528 295 527.5 302 c 128,-1,47
 527 309 527 309 527 313 c 2,48,-1
 527 433 l 2,49,50
 527 438 527 438 529.5 444 c 128,-1,51
 532 450 532 450 539 450 c 2,52,-1
 560 450 l 1,53,-1
 560 320 l 1,54,-1
 653 320 l 1,55,-1
 653 450 l 1,56,-1
 691 450 l 1,57,-1
 691 124 l 1,40,-1
728 494 m 2,58,59
 728 474 728 474 705 474 c 2,60,-1
 487 474 l 1,61,-1
 487 489 l 2,62,63
 487 498 487 498 489.5 504 c 128,-1,64
 492 510 492 510 506 510 c 2,65,-1
 728 509 l 1,66,-1
 728 494 l 2,58,59
1065 492 m 256,67,68
 1065 390 1065 390 1028 300 c 128,-1,69
 991 210 991 210 927.5 143.5 c 128,-1,70
 864 77 864 77 778 38 c 128,-1,71
 692 -1 692 -1 595 -1 c 0,72,73
 502 -1 502 -1 420 35.5 c 128,-1,74
 338 72 338 72 275 133 c 1,75,-1
 335 183 l 1,76,77
 387 131 387 131 454 102 c 128,-1,78
 521 73 521 73 597 73 c 0,79,80
 677 73 677 73 747 106 c 128,-1,81
 817 139 817 139 869.5 196 c 128,-1,82
 922 253 922 253 952 329 c 128,-1,83
 982 405 982 405 982 492 c 256,84,85
 982 579 982 579 952 655.5 c 128,-1,86
 922 732 922 732 869.5 789 c 128,-1,87
 817 846 817 846 747 879 c 128,-1,88
 677 912 677 912 597 912 c 0,89,90
 498 912 498 912 415 863 c 128,-1,91
 332 814 332 814 279 733 c 1,92,-1
 227 772 l 1,93,94
 204 741 204 741 193 718 c 128,-1,95
 182 695 182 695 177 687 c 1,96,-1
 159 697 l 1,97,98
 169 721 169 721 185 744.5 c 128,-1,99
 201 768 201 768 218 791 c 0,100,101
 251 835 251 835 292.5 871 c 128,-1,102
 334 907 334 907 382 932.5 c 128,-1,103
 430 958 430 958 484 972 c 128,-1,104
 538 986 538 986 595 986 c 0,105,106
 692 986 692 986 778 947 c 128,-1,107
 864 908 864 908 927.5 841 c 128,-1,108
 991 774 991 774 1028 684 c 128,-1,109
 1065 594 1065 594 1065 492 c 256,67,68
224 846 m 1,110,111
 203 823 203 823 183.5 796.5 c 128,-1,112
 164 770 164 770 147 741 c 128,-1,113
 130 712 130 712 118 680 c 128,-1,114
 106 648 106 648 100 615 c 0,115,116
 92 570 92 570 94 526 c 128,-1,117
 96 482 96 482 106 440 c 128,-1,118
 116 398 116 398 134 359.5 c 128,-1,119
 152 321 152 321 175 288 c 1,120,-1
 107 245 l 1,121,122
 50 324 50 324 23 418 c 128,-1,123
 -4 512 -4 512 15 619 c 0,124,125
 22 660 22 660 36 700 c 128,-1,126
 50 740 50 740 69.5 777 c 128,-1,127
 89 814 89 814 113 846.5 c 128,-1,128
 137 879 137 879 164 906 c 1,129,-1
 214 863 l 1,130,131
 221 872 221 872 228 879 c 128,-1,132
 235 886 235 886 243.5 893.5 c 128,-1,133
 252 901 252 901 262.5 909 c 128,-1,134
 273 917 273 917 288 928 c 1,135,-1
 302 916 l 1,136,137
 279 898 279 898 258 880.5 c 128,-1,138
 237 863 237 863 225 846 c 1,139,-1
 224 846 l 1,110,111
1501 249 m 1,140,-1
 1115 249 l 1,141,-1
 1115 -67 l 1,142,-1
 208 -67 l 1,143,-1
 208 364 l 1,144,-1
 208 372 l 1,145,-1
 227 371 l 1,146,-1
 227 364 l 1,147,-1
 227 -50 l 1,148,-1
 1097 -50 l 1,149,-1
 1097 266 l 1,150,-1
 1501 266 l 1,151,-1
 1509 266 l 1,152,-1
 1509 249 l 1,153,-1
 1501 249 l 1,140,-1
EndSplineSet
EndChar

StartChar: threesuperior
Encoding: 25 25 16
Width: 679
Flags: W
LayerCount: 2
Back
Fore
SplineSet
468 539 m 1,0,-1
 468 653 l 2,1,2
 468 664 468 664 453 673 c 128,-1,3
 438 682 438 682 427 682 c 1,4,5
 447 682 447 682 456 687 c 128,-1,6
 465 692 465 692 465 712 c 2,7,-1
 465 800 l 1,8,-1
 391 800 l 1,9,-1
 320 800 l 1,10,-1
 320 739 l 1,11,-1
 356 739 l 1,12,-1
 356 768 l 1,13,-1
 407 768 l 2,14,15
 414 768 414 768 420 765.5 c 128,-1,16
 426 763 426 763 426 755 c 2,17,-1
 427 696 l 1,18,-1
 352 696 l 1,19,-1
 352 662 l 1,20,-1
 404 662 l 2,21,22
 413 662 413 662 421 657 c 128,-1,23
 429 652 429 652 429 641 c 2,24,-1
 429 573 l 1,25,-1
 355 573 l 1,26,-1
 355 594 l 1,27,-1
 317 594 l 1,28,-1
 317 556 l 2,29,30
 317 551 317 551 319 545 c 128,-1,31
 321 539 321 539 330 539 c 2,32,-1
 465 539 l 1,33,-1
 468 539 l 1,0,-1
620 777 m 1,34,35
 639 749 639 749 647 720.5 c 128,-1,36
 655 692 655 692 655 657 c 0,37,38
 655 607 655 607 635 563.5 c 128,-1,39
 615 520 615 520 580.5 488 c 128,-1,40
 546 456 546 456 499.5 437 c 128,-1,41
 453 418 453 418 400 418 c 0,42,43
 378 418 378 418 351.5 424 c 128,-1,44
 325 430 325 430 305 436 c 0,45,46
 265 450 265 450 234.5 475 c 128,-1,47
 204 500 204 500 182 534 c 1,48,-1
 167 534 l 1,49,50
 171 526 171 526 174.5 520.5 c 128,-1,51
 178 515 178 515 183 508 c 0,52,53
 217 460 217 460 270 437 c 1,54,-1
 260 421 l 1,55,56
 230 433 230 433 208 451 c 128,-1,57
 186 469 186 469 167 497 c 0,58,59
 155 513 155 513 146 534 c 1,60,-1
 62 534 l 1,61,-1
 62 654 l 1,62,-1
 48 654 l 1,63,-1
 39 654 l 1,64,-1
 39 665 l 1,65,-1
 47 665 l 1,66,-1
 129 665 l 1,67,68
 136 716 136 716 163.5 761 c 128,-1,69
 191 806 191 806 239 839 c 0,70,71
 294 878 294 878 357 884 c 128,-1,72
 420 890 420 890 477 868 c 1,73,-1
 494 891 l 1,74,-1
 503 903 l 1,75,-1
 527 884 l 1,76,-1
 518 872 l 1,77,-1
 489 835 l 1,78,-1
 480 823 l 1,79,-1
 456 842 l 1,80,-1
 466 855 l 1,81,82
 413 877 413 877 358 871 c 128,-1,83
 303 865 303 865 249 828 c 0,84,85
 204 797 204 797 179 755 c 128,-1,86
 154 713 154 713 147 665 c 1,87,-1
 202 665 l 1,88,-1
 211 665 l 1,89,-1
 211 654 l 1,90,-1
 204 654 l 1,91,-1
 145 654 l 1,92,93
 141 625 141 625 145.5 599.5 c 128,-1,94
 150 574 150 574 163 546 c 1,95,-1
 225 546 l 1,96,-1
 233 546 l 1,97,-1
 233 534 l 1,98,-1
 227 534 l 1,99,-1
 204 534 l 1,100,101
 236 487 236 487 287 460 c 128,-1,102
 338 433 338 433 402 433 c 0,103,104
 451 433 451 433 494 450.5 c 128,-1,105
 537 468 537 468 569.5 498.5 c 128,-1,106
 602 529 602 529 620.5 569.5 c 128,-1,107
 639 610 639 610 639 657 c 0,108,109
 639 718 639 718 607 770 c 1,110,-1
 620 778 l 1,111,-1
 620 777 l 1,34,35
141 546 m 1,112,113
 130 574 130 574 126 599.5 c 128,-1,114
 122 625 122 625 127 654 c 1,115,-1
 73 654 l 1,116,-1
 73 546 l 1,117,-1
 141 546 l 1,112,113
78 669 m 1,118,-1
 65 669 l 1,119,120
 63 674 63 674 58.5 678.5 c 128,-1,121
 54 683 54 683 47 684 c 0,122,123
 39 684 39 684 32 678 c 128,-1,124
 25 672 25 672 25 664 c 256,125,126
 25 656 25 656 31 648.5 c 128,-1,127
 37 641 37 641 46 641 c 0,128,129
 52 641 52 641 58 643 c 1,130,-1
 58 631 l 2,131,132
 55 630 55 630 52.5 629.5 c 128,-1,133
 50 629 50 629 47 629 c 0,134,135
 33 629 33 629 23.5 638 c 128,-1,136
 14 647 14 647 14 661 c 256,137,138
 14 675 14 675 23.5 684 c 128,-1,139
 33 693 33 693 47 693 c 0,140,141
 58 693 58 693 66 686 c 128,-1,142
 74 679 74 679 78 669 c 1,118,-1
EndSplineSet
EndChar

StartChar: twosuperior
Encoding: 26 26 17
Width: 679
Flags: W
LayerCount: 2
Back
Fore
SplineSet
467 540 m 1,0,-1
 329 540 l 1,1,-1
 329 681 l 1,2,-1
 428 681 l 1,3,-1
 428 755 l 2,4,5
 428 761 428 761 427 765 c 128,-1,6
 426 769 426 769 420 769 c 2,7,-1
 367 769 l 1,8,-1
 367 756 l 2,9,10
 367 747 367 747 356 747 c 2,11,-1
 329 747 l 1,12,-1
 329 789 l 2,13,14
 329 800 329 800 340 800 c 2,15,-1
 467 800 l 1,16,-1
 467 671 l 2,17,18
 467 659 467 659 461.5 652.5 c 128,-1,19
 456 646 456 646 440 646 c 2,20,-1
 363 646 l 1,21,-1
 363 586 l 2,22,23
 363 575 363 575 374 575 c 2,24,-1
 467 575 l 1,25,-1
 467 540 l 1,0,-1
620 777 m 1,26,27
 639 749 639 749 647 720.5 c 128,-1,28
 655 692 655 692 655 657 c 0,29,30
 655 607 655 607 635 563.5 c 128,-1,31
 615 520 615 520 580.5 488 c 128,-1,32
 546 456 546 456 499.5 437 c 128,-1,33
 453 418 453 418 400 418 c 0,34,35
 378 418 378 418 351.5 424 c 128,-1,36
 325 430 325 430 305 436 c 0,37,38
 265 450 265 450 234.5 475 c 128,-1,39
 204 500 204 500 182 534 c 1,40,-1
 167 534 l 1,41,42
 171 526 171 526 174.5 520.5 c 128,-1,43
 178 515 178 515 183 508 c 0,44,45
 217 460 217 460 270 437 c 1,46,-1
 260 421 l 1,47,48
 230 433 230 433 208 451 c 128,-1,49
 186 469 186 469 167 497 c 0,50,51
 155 513 155 513 146 534 c 1,52,-1
 62 534 l 1,53,-1
 62 654 l 1,54,-1
 48 654 l 1,55,-1
 39 654 l 1,56,-1
 39 665 l 1,57,-1
 47 665 l 1,58,-1
 129 665 l 1,59,60
 136 716 136 716 163.5 761 c 128,-1,61
 191 806 191 806 239 839 c 0,62,63
 294 878 294 878 357 884 c 128,-1,64
 420 890 420 890 477 868 c 1,65,-1
 494 891 l 1,66,-1
 503 903 l 1,67,-1
 527 884 l 1,68,-1
 518 872 l 1,69,-1
 489 835 l 1,70,-1
 480 823 l 1,71,-1
 456 842 l 1,72,-1
 466 855 l 1,73,74
 413 877 413 877 358 871 c 128,-1,75
 303 865 303 865 249 828 c 0,76,77
 204 797 204 797 179 755 c 128,-1,78
 154 713 154 713 147 665 c 1,79,-1
 202 665 l 1,80,-1
 211 665 l 1,81,-1
 211 654 l 1,82,-1
 204 654 l 1,83,-1
 145 654 l 1,84,85
 141 625 141 625 145.5 599.5 c 128,-1,86
 150 574 150 574 163 546 c 1,87,-1
 225 546 l 1,88,-1
 233 546 l 1,89,-1
 233 534 l 1,90,-1
 227 534 l 1,91,-1
 204 534 l 1,92,93
 236 487 236 487 287 460 c 128,-1,94
 338 433 338 433 402 433 c 0,95,96
 451 433 451 433 494 450.5 c 128,-1,97
 537 468 537 468 569.5 498.5 c 128,-1,98
 602 529 602 529 620.5 569.5 c 128,-1,99
 639 610 639 610 639 657 c 0,100,101
 639 718 639 718 607 770 c 1,102,-1
 620 778 l 1,103,-1
 620 777 l 1,26,27
141 546 m 1,104,105
 130 574 130 574 126 599.5 c 128,-1,106
 122 625 122 625 127 654 c 1,107,-1
 73 654 l 1,108,-1
 73 546 l 1,109,-1
 141 546 l 1,104,105
78 669 m 1,110,-1
 65 669 l 1,111,112
 63 674 63 674 58.5 678.5 c 128,-1,113
 54 683 54 683 47 684 c 0,114,115
 39 684 39 684 32 678 c 128,-1,116
 25 672 25 672 25 664 c 256,117,118
 25 656 25 656 31 648.5 c 128,-1,119
 37 641 37 641 46 641 c 0,120,121
 52 641 52 641 58 643 c 1,122,-1
 58 631 l 2,123,124
 55 630 55 630 52.5 629.5 c 128,-1,125
 50 629 50 629 47 629 c 0,126,127
 33 629 33 629 23.5 638 c 128,-1,128
 14 647 14 647 14 661 c 256,129,130
 14 675 14 675 23.5 684 c 128,-1,131
 33 693 33 693 47 693 c 0,132,133
 58 693 58 693 66 686 c 128,-1,134
 74 679 74 679 78 669 c 1,110,-1
EndSplineSet
EndChar

StartChar: brokenbar
Encoding: 27 27 18
Width: 555
Flags: W
LayerCount: 2
Back
Fore
SplineSet
12 262 m 1,0,-1
 3 262 l 1,1,-1
 3 247 l 1,2,-1
 11 247 l 1,3,-1
 204 247 l 1,4,-1
 204 137 l 1,5,-1
 224 137 l 1,6,-1
 224 374 l 1,7,-1
 205 375 l 1,8,-1
 204 262 l 1,9,-1
 12 262 l 1,0,-1
805 263 m 1,10,-1
 813 263 l 1,11,-1
 813 248 l 1,12,-1
 805 248 l 1,13,-1
 367 248 l 1,14,-1
 367 137 l 1,15,-1
 347 138 l 1,16,-1
 347 375 l 1,17,-1
 367 375 l 1,18,-1
 367 263 l 1,19,-1
 805 263 l 1,10,-1
321 938 m 1,20,-1
 321 569 l 2,21,22
 321 541 321 541 311 526 c 128,-1,23
 301 511 301 511 286 511 c 2,24,-1
 247 511 l 1,25,-1
 246 876 l 2,26,27
 246 938 246 938 283 938 c 2,28,-1
 321 938 l 1,20,-1
322 435 m 1,29,-1
 322 66 l 2,30,31
 322 38 322 38 312 23 c 128,-1,32
 302 8 302 8 287 8 c 2,33,-1
 247 8 l 1,34,-1
 247 373 l 2,35,36
 247 435 247 435 284 435 c 2,37,-1
 322 435 l 1,29,-1
EndSplineSet
EndChar

StartChar: minus
Encoding: 28 28 19
Width: 472
Flags: W
LayerCount: 2
Back
Fore
SplineSet
461 297 m 2,0,1
 461 281 461 281 452 271 c 128,-1,2
 443 261 443 261 425 261 c 2,3,-1
 100 261 l 1,4,-1
 99 288 l 2,5,6
 99 304 99 304 102.5 314.5 c 128,-1,7
 106 325 106 325 127 325 c 2,8,-1
 461 324 l 1,9,-1
 461 297 l 2,0,1
EndSplineSet
EndChar

StartChar: multiply
Encoding: 29 29 20
Width: 521
Flags: W
LayerCount: 2
Back
Fore
SplineSet
521 109 m 1,0,-1
 495 84 l 2,1,2
 485 73 485 73 469 72.5 c 128,-1,3
 453 72 453 72 442 84 c 2,4,-1
 301 226 l 1,5,-1
 132 57 l 1,6,-1
 105 84 l 2,7,8
 81 109 81 109 105 133 c 2,9,-1
 248 277 l 1,10,-1
 81 444 l 1,11,-1
 108 471 l 2,12,13
 118 482 118 482 131 483.5 c 128,-1,14
 144 485 144 485 159 470 c 2,15,-1
 300 330 l 1,16,-1
 470 499 l 1,17,-1
 496 473 l 2,18,19
 509 459 509 459 508 446 c 128,-1,20
 507 433 507 433 496 422 c 2,21,-1
 352 277 l 1,22,-1
 521 109 l 1,0,-1
805 263 m 1,23,-1
 813 263 l 1,24,-1
 813 248 l 1,25,-1
 805 248 l 1,26,-1
 491 249 l 1,27,-1
 491 177 l 1,28,-1
 471 177 l 1,29,-1
 471 335 l 1,30,-1
 491 335 l 1,31,-1
 491 263 l 1,32,-1
 805 263 l 1,23,-1
EndSplineSet
EndChar

StartChar: exclam
Encoding: 33 33 21
Width: 1161
Flags: W
LayerCount: 2
Back
Fore
SplineSet
616 780 m 2,0,-1
 615 373 l 1,1,-1
 553 373 l 2,2,3
 539 373 539 373 535.5 377 c 128,-1,4
 532 381 532 381 533 395 c 2,5,-1
 532 800 l 1,6,-1
 593 800 l 2,7,8
 616 800 616 800 616 780 c 2,0,-1
615 221 m 1,9,-1
 554 221 l 2,10,11
 538 221 538 221 535 225 c 128,-1,12
 532 229 532 229 532 243 c 2,13,-1
 532 304 l 1,14,-1
 598 304 l 2,15,16
 615 304 615 304 615 285 c 2,17,-1
 615 221 l 1,9,-1
112 196 m 2,18,-1
 112 53 l 1,19,-1
 90 53 l 2,20,21
 83 53 83 53 83 61 c 2,22,-1
 83 203 l 1,23,-1
 104 203 l 2,24,25
 112 203 112 203 112 196 c 2,18,-1
112 0 m 1,26,-1
 90 0 l 2,27,28
 85 0 85 0 84 1.5 c 128,-1,29
 83 3 83 3 83 8 c 2,30,-1
 83 29 l 1,31,-1
 106 29 l 2,32,33
 112 29 112 29 112 22 c 2,34,-1
 112 0 l 1,26,-1
1065 492 m 256,35,36
 1065 390 1065 390 1028 300 c 128,-1,37
 991 210 991 210 927.5 143.5 c 128,-1,38
 864 77 864 77 778 38 c 128,-1,39
 692 -1 692 -1 595 -1 c 0,40,41
 502 -1 502 -1 420 35.5 c 128,-1,42
 338 72 338 72 275 133 c 1,43,-1
 335 183 l 1,44,45
 387 131 387 131 454 102 c 128,-1,46
 521 73 521 73 597 73 c 0,47,48
 677 73 677 73 747 106 c 128,-1,49
 817 139 817 139 869.5 196 c 128,-1,50
 922 253 922 253 952 329 c 128,-1,51
 982 405 982 405 982 492 c 256,52,53
 982 579 982 579 952 655.5 c 128,-1,54
 922 732 922 732 869.5 789 c 128,-1,55
 817 846 817 846 747 879 c 128,-1,56
 677 912 677 912 597 912 c 0,57,58
 498 912 498 912 415 863 c 128,-1,59
 332 814 332 814 279 733 c 1,60,-1
 227 772 l 1,61,62
 204 741 204 741 193 718 c 128,-1,63
 182 695 182 695 177 687 c 1,64,-1
 159 697 l 1,65,66
 169 721 169 721 185 744.5 c 128,-1,67
 201 768 201 768 218 791 c 0,68,69
 251 835 251 835 292.5 871 c 128,-1,70
 334 907 334 907 382 932.5 c 128,-1,71
 430 958 430 958 484 972 c 128,-1,72
 538 986 538 986 595 986 c 0,73,74
 692 986 692 986 778 947 c 128,-1,75
 864 908 864 908 927.5 841 c 128,-1,76
 991 774 991 774 1028 684 c 128,-1,77
 1065 594 1065 594 1065 492 c 256,35,36
224 846 m 1,78,79
 203 823 203 823 183.5 796.5 c 128,-1,80
 164 770 164 770 147 741 c 128,-1,81
 130 712 130 712 118 680 c 128,-1,82
 106 648 106 648 100 615 c 0,83,84
 92 570 92 570 94 526 c 128,-1,85
 96 482 96 482 106 440 c 128,-1,86
 116 398 116 398 134 359.5 c 128,-1,87
 152 321 152 321 175 288 c 1,88,-1
 107 245 l 1,89,90
 50 324 50 324 23 418 c 128,-1,91
 -4 512 -4 512 15 619 c 0,92,93
 22 660 22 660 36 700 c 128,-1,94
 50 740 50 740 69.5 777 c 128,-1,95
 89 814 89 814 113 846.5 c 128,-1,96
 137 879 137 879 164 906 c 1,97,-1
 214 863 l 1,98,99
 221 872 221 872 228 879 c 128,-1,100
 235 886 235 886 243.5 893.5 c 128,-1,101
 252 901 252 901 262.5 909 c 128,-1,102
 273 917 273 917 288 928 c 1,103,-1
 302 916 l 1,104,105
 279 898 279 898 258 880.5 c 128,-1,106
 237 863 237 863 225 846 c 1,107,-1
 224 846 l 1,78,79
1501 249 m 1,108,-1
 1115 249 l 1,109,-1
 1115 -67 l 1,110,-1
 208 -67 l 1,111,-1
 208 364 l 1,112,-1
 208 372 l 1,113,-1
 227 371 l 1,114,-1
 227 364 l 1,115,-1
 227 -50 l 1,116,-1
 1097 -50 l 1,117,-1
 1097 266 l 1,118,-1
 1501 266 l 1,119,-1
 1509 266 l 1,120,-1
 1509 249 l 1,121,-1
 1501 249 l 1,108,-1
EndSplineSet
EndChar

StartChar: quotedbl
Encoding: 34 34 22
Width: 663
Flags: W
LayerCount: 2
Back
Fore
SplineSet
620 777 m 1,0,1
 639 749 639 749 647 720.5 c 128,-1,2
 655 692 655 692 655 657 c 0,3,4
 655 607 655 607 635 563.5 c 128,-1,5
 615 520 615 520 580.5 488 c 128,-1,6
 546 456 546 456 499.5 437 c 128,-1,7
 453 418 453 418 400 418 c 0,8,9
 378 418 378 418 359.5 420.5 c 128,-1,10
 341 423 341 423 321 429 c 1,11,-1
 321 362 l 1,12,13
 339 362 339 362 356 354 c 128,-1,14
 373 346 373 346 385.5 331.5 c 128,-1,15
 398 317 398 317 405.5 298.5 c 128,-1,16
 413 280 413 280 413 259 c 2,17,-1
 413 254 l 1,18,-1
 936 254 l 1,19,-1
 943 254 l 1,20,-1
 943 239 l 1,21,-1
 936 239 l 1,22,-1
 410 239 l 1,23,24
 403 204 403 204 376 181 c 128,-1,25
 349 158 349 158 312 158 c 0,26,27
 291 158 291 158 272.5 166 c 128,-1,28
 254 174 254 174 240.5 187.5 c 128,-1,29
 227 201 227 201 219 219.5 c 128,-1,30
 211 238 211 238 211 259 c 0,31,32
 211 300 211 300 237.5 329 c 128,-1,33
 264 358 264 358 305 360 c 1,34,-1
 305 434 l 1,35,36
 264 449 264 449 234 474.5 c 128,-1,37
 204 500 204 500 182 534 c 1,38,-1
 167 534 l 1,39,40
 171 526 171 526 174.5 520.5 c 128,-1,41
 178 515 178 515 183 508 c 0,42,43
 217 460 217 460 270 437 c 1,44,-1
 260 421 l 1,45,46
 230 433 230 433 208 451 c 128,-1,47
 186 469 186 469 167 497 c 0,48,49
 155 513 155 513 146 534 c 1,50,-1
 62 534 l 1,51,-1
 62 654 l 1,52,-1
 48 654 l 1,53,-1
 39 654 l 1,54,-1
 39 665 l 1,55,-1
 47 665 l 1,56,-1
 129 665 l 1,57,58
 136 716 136 716 163.5 761 c 128,-1,59
 191 806 191 806 239 839 c 0,60,61
 294 878 294 878 357 884 c 128,-1,62
 420 890 420 890 477 868 c 1,63,-1
 494 891 l 1,64,-1
 503 903 l 1,65,-1
 527 884 l 1,66,-1
 518 872 l 1,67,-1
 489 835 l 1,68,-1
 480 823 l 1,69,-1
 456 842 l 1,70,-1
 466 855 l 1,71,72
 413 877 413 877 358 871 c 128,-1,73
 303 865 303 865 249 828 c 0,74,75
 204 797 204 797 179 755 c 128,-1,76
 154 713 154 713 147 665 c 1,77,-1
 202 665 l 1,78,-1
 211 665 l 1,79,-1
 211 654 l 1,80,-1
 204 654 l 1,81,-1
 145 654 l 1,82,83
 141 625 141 625 145.5 599.5 c 128,-1,84
 150 574 150 574 163 546 c 1,85,-1
 225 546 l 1,86,-1
 233 546 l 1,87,-1
 233 534 l 1,88,-1
 227 534 l 1,89,-1
 204 534 l 1,90,91
 236 487 236 487 287 460 c 128,-1,92
 338 433 338 433 402 433 c 0,93,94
 451 433 451 433 494 450.5 c 128,-1,95
 537 468 537 468 569.5 498.5 c 128,-1,96
 602 529 602 529 620.5 569.5 c 128,-1,97
 639 610 639 610 639 657 c 0,98,99
 639 718 639 718 607 770 c 1,100,-1
 620 778 l 1,101,-1
 620 777 l 1,0,1
141 546 m 1,102,103
 130 574 130 574 126 599.5 c 128,-1,104
 122 625 122 625 127 654 c 1,105,-1
 73 654 l 1,106,-1
 73 546 l 1,107,-1
 141 546 l 1,102,103
78 669 m 1,108,-1
 65 669 l 1,109,110
 63 674 63 674 58.5 678.5 c 128,-1,111
 54 683 54 683 47 684 c 0,112,113
 39 684 39 684 32 678 c 128,-1,114
 25 672 25 672 25 664 c 256,115,116
 25 656 25 656 31 648.5 c 128,-1,117
 37 641 37 641 46 641 c 0,118,119
 52 641 52 641 58 643 c 1,120,-1
 58 631 l 2,121,122
 55 630 55 630 52.5 629.5 c 128,-1,123
 50 629 50 629 47 629 c 0,124,125
 33 629 33 629 23.5 638 c 128,-1,126
 14 647 14 647 14 661 c 256,127,128
 14 675 14 675 23.5 684 c 128,-1,129
 33 693 33 693 47 693 c 0,130,131
 58 693 58 693 66 686 c 128,-1,132
 74 679 74 679 78 669 c 1,108,-1
272 239 m 1,133,-1
 265 239 l 1,134,-1
 265 254 l 1,135,-1
 305 254 l 1,136,-1
 305 270 l 1,137,-1
 305 340 l 1,138,139
 270 340 270 340 249 318 c 128,-1,140
 228 296 228 296 228 262 c 0,141,142
 228 227 228 227 252 202 c 128,-1,143
 276 177 276 177 310 177 c 0,144,145
 339 177 339 177 361.5 194.5 c 128,-1,146
 384 212 384 212 390 239 c 1,147,-1
 272 239 l 1,133,-1
392 259 m 2,148,149
 392 290 392 290 371.5 313 c 128,-1,150
 351 336 351 336 321 341 c 1,151,-1
 321 269 l 1,152,-1
 321 254 l 1,153,-1
 392 254 l 1,154,-1
 392 259 l 2,148,149
391 694 m 1,155,-1
 391 661 l 1,156,-1
 391 513 l 1,157,158
 377 513 377 513 372 512 c 128,-1,159
 367 511 367 511 356 513 c 0,160,161
 349 513 349 513 341 525.5 c 128,-1,162
 333 538 333 538 326.5 555 c 128,-1,163
 320 572 320 572 315.5 589 c 128,-1,164
 311 606 311 606 311 616 c 0,165,166
 311 636 311 636 310 656 c 128,-1,167
 309 676 309 676 309 710 c 2,168,-1
 309 782 l 1,169,-1
 336 785 l 2,170,171
 369 785 369 785 380 773.5 c 128,-1,172
 391 762 391 762 391 739 c 2,173,-1
 391 694 l 1,155,-1
500 677 m 1,174,-1
 500 635 l 1,175,-1
 500 512 l 1,176,177
 486 512 486 512 481 511 c 128,-1,178
 476 510 476 510 465 512 c 0,179,180
 458 512 458 512 450 524.5 c 128,-1,181
 442 537 442 537 434.5 554 c 128,-1,182
 427 571 427 571 422 588 c 128,-1,183
 417 605 417 605 417 615 c 2,184,-1
 417 709 l 1,185,-1
 417 781 l 1,186,-1
 451 780 l 2,187,188
 484 780 484 780 492 771.5 c 128,-1,189
 500 763 500 763 500 740 c 2,190,-1
 500 677 l 1,174,-1
EndSplineSet
EndChar

StartChar: numbersign
Encoding: 35 35 23
Width: 1161
Flags: W
LayerCount: 2
Back
Fore
SplineSet
829 411 m 1,0,-1
 712 411 l 1,1,-1
 712 265 l 2,2,3
 712 251 712 251 702.5 241.5 c 128,-1,4
 693 232 693 232 683 232 c 2,5,-1
 654 232 l 1,6,-1
 654 411 l 1,7,-1
 503 411 l 1,8,-1
 503 263 l 2,9,10
 503 249 503 249 494 240.5 c 128,-1,11
 485 232 485 232 475 232 c 2,12,-1
 446 232 l 1,13,-1
 446 411 l 1,14,-1
 357 411 l 2,15,16
 345 411 345 411 337 421.5 c 128,-1,17
 329 432 329 432 329 443 c 2,18,-1
 329 476 l 1,19,-1
 446 476 l 1,20,-1
 446 584 l 1,21,-1
 358 584 l 2,22,23
 346 584 346 584 337.5 595 c 128,-1,24
 329 606 329 606 329 617 c 2,25,-1
 329 649 l 1,26,-1
 446 649 l 1,27,-1
 446 768 l 2,28,29
 446 800 446 800 474 800 c 2,30,-1
 503 800 l 1,31,-1
 503 649 l 1,32,-1
 654 649 l 1,33,-1
 654 768 l 2,34,35
 654 800 654 800 682 800 c 2,36,-1
 711 800 l 1,37,-1
 712 649 l 1,38,-1
 800 649 l 2,39,40
 829 649 829 649 829 617 c 2,41,-1
 829 584 l 1,42,-1
 712 584 l 1,43,-1
 712 476 l 1,44,-1
 800 476 l 2,45,46
 829 476 829 476 829 444 c 2,47,-1
 829 411 l 1,0,-1
654 476 m 1,48,-1
 654 584 l 1,49,-1
 503 584 l 1,50,-1
 503 476 l 1,51,-1
 654 476 l 1,48,-1
195 63 m 1,52,-1
 154 62 l 1,53,-1
 154 12 l 2,54,55
 154 7 154 7 150.5 3.5 c 128,-1,56
 147 0 147 0 144 0 c 2,57,-1
 134 0 l 1,58,-1
 134 62 l 1,59,-1
 81 62 l 1,60,-1
 81 11 l 2,61,62
 81 0 81 0 71 0 c 2,63,-1
 61 0 l 1,64,-1
 61 62 l 1,65,-1
 30 62 l 2,66,67
 25 62 25 62 22.5 66 c 128,-1,68
 20 70 20 70 20 74 c 2,69,-1
 20 85 l 1,70,-1
 61 85 l 1,71,-1
 61 123 l 1,72,-1
 30 123 l 2,73,74
 26 123 26 123 23 126.5 c 128,-1,75
 20 130 20 130 20 135 c 2,76,-1
 20 146 l 1,77,-1
 61 146 l 1,78,-1
 61 187 l 2,79,80
 61 199 61 199 71 199 c 2,81,-1
 81 199 l 1,82,-1
 81 146 l 1,83,-1
 134 146 l 1,84,-1
 134 187 l 2,85,86
 134 199 134 199 144 199 c 2,87,-1
 154 199 l 1,88,-1
 154 146 l 1,89,-1
 185 146 l 2,90,91
 195 146 195 146 195 135 c 2,92,-1
 195 123 l 1,93,-1
 154 123 l 1,94,-1
 154 85 l 1,95,-1
 185 85 l 2,96,97
 195 85 195 85 195 74 c 2,98,-1
 195 63 l 1,52,-1
134 85 m 1,99,-1
 134 123 l 1,100,-1
 81 123 l 1,101,-1
 81 85 l 1,102,-1
 134 85 l 1,99,-1
1065 492 m 256,103,104
 1065 390 1065 390 1028 300 c 128,-1,105
 991 210 991 210 927.5 143.5 c 128,-1,106
 864 77 864 77 778 38 c 128,-1,107
 692 -1 692 -1 595 -1 c 0,108,109
 502 -1 502 -1 420 35.5 c 128,-1,110
 338 72 338 72 275 133 c 1,111,-1
 335 183 l 1,112,113
 387 131 387 131 454 102 c 128,-1,114
 521 73 521 73 597 73 c 0,115,116
 677 73 677 73 747 106 c 128,-1,117
 817 139 817 139 869.5 196 c 128,-1,118
 922 253 922 253 952 329 c 128,-1,119
 982 405 982 405 982 492 c 256,120,121
 982 579 982 579 952 655.5 c 128,-1,122
 922 732 922 732 869.5 789 c 128,-1,123
 817 846 817 846 747 879 c 128,-1,124
 677 912 677 912 597 912 c 0,125,126
 498 912 498 912 415 863 c 128,-1,127
 332 814 332 814 279 733 c 1,128,-1
 227 772 l 1,129,130
 204 741 204 741 193 718 c 128,-1,131
 182 695 182 695 177 687 c 1,132,-1
 159 697 l 1,133,134
 169 721 169 721 185 744.5 c 128,-1,135
 201 768 201 768 218 791 c 0,136,137
 251 835 251 835 292.5 871 c 128,-1,138
 334 907 334 907 382 932.5 c 128,-1,139
 430 958 430 958 484 972 c 128,-1,140
 538 986 538 986 595 986 c 0,141,142
 692 986 692 986 778 947 c 128,-1,143
 864 908 864 908 927.5 841 c 128,-1,144
 991 774 991 774 1028 684 c 128,-1,145
 1065 594 1065 594 1065 492 c 256,103,104
224 846 m 1,146,147
 203 823 203 823 183.5 796.5 c 128,-1,148
 164 770 164 770 147 741 c 128,-1,149
 130 712 130 712 118 680 c 128,-1,150
 106 648 106 648 100 615 c 0,151,152
 92 570 92 570 94 526 c 128,-1,153
 96 482 96 482 106 440 c 128,-1,154
 116 398 116 398 134 359.5 c 128,-1,155
 152 321 152 321 175 288 c 1,156,-1
 107 245 l 1,157,158
 50 324 50 324 23 418 c 128,-1,159
 -4 512 -4 512 15 619 c 0,160,161
 22 660 22 660 36 700 c 128,-1,162
 50 740 50 740 69.5 777 c 128,-1,163
 89 814 89 814 113 846.5 c 128,-1,164
 137 879 137 879 164 906 c 1,165,-1
 214 863 l 1,166,167
 221 872 221 872 228 879 c 128,-1,168
 235 886 235 886 243.5 893.5 c 128,-1,169
 252 901 252 901 262.5 909 c 128,-1,170
 273 917 273 917 288 928 c 1,171,-1
 302 916 l 1,172,173
 279 898 279 898 258 880.5 c 128,-1,174
 237 863 237 863 225 846 c 1,175,-1
 224 846 l 1,146,147
1501 249 m 1,176,-1
 1115 249 l 1,177,-1
 1115 -67 l 1,178,-1
 208 -67 l 1,179,-1
 208 364 l 1,180,-1
 208 372 l 1,181,-1
 227 371 l 1,182,-1
 227 364 l 1,183,-1
 227 -50 l 1,184,-1
 1097 -50 l 1,185,-1
 1097 266 l 1,186,-1
 1501 266 l 1,187,-1
 1509 266 l 1,188,-1
 1509 249 l 1,189,-1
 1501 249 l 1,176,-1
EndSplineSet
EndChar

StartChar: dollar
Encoding: 36 36 24
Width: 1161
Flags: W
LayerCount: 2
Back
Fore
SplineSet
746 293 m 1,0,-1
 746 221 l 1,1,-1
 610 221 l 1,2,3
 608 208 608 208 597 199.5 c 128,-1,4
 586 191 586 191 575 191 c 2,5,-1
 538 191 l 1,6,-1
 537 221 l 1,7,-1
 454 221 l 2,8,9
 430 221 430 221 415 233 c 128,-1,10
 400 245 400 245 400 266 c 2,11,-1
 400 395 l 1,12,-1
 400 405 l 1,13,-1
 473 405 l 2,14,15
 490 405 490 405 494 397 c 128,-1,16
 498 389 498 389 498 376 c 2,17,-1
 498 357 l 1,18,-1
 498 297 l 1,19,20
 502 297 502 297 508 296.5 c 128,-1,21
 514 296 514 296 521 296 c 2,22,-1
 537 296 l 1,23,-1
 537 517 l 1,24,-1
 400 517 l 1,25,-1
 400 740 l 2,26,27
 400 756 400 756 400 767.5 c 128,-1,28
 400 779 400 779 404 786 c 128,-1,29
 408 793 408 793 417.5 796.5 c 128,-1,30
 427 800 427 800 446 800 c 2,31,-1
 537 800 l 1,32,33
 537 835 537 835 574 835 c 2,34,-1
 611 835 l 1,35,-1
 611 800 l 1,36,-1
 746 800 l 1,37,-1
 746 689 l 1,38,-1
 746 667 l 1,39,-1
 660 667 l 1,40,-1
 660 690 l 2,41,42
 659 710 659 710 648.5 715.5 c 128,-1,43
 638 721 638 721 624 722 c 2,44,-1
 611 722 l 1,45,-1
 611 589 l 1,46,-1
 662 589 l 1,47,-1
 690 589 l 2,48,49
 716 589 716 589 731 581 c 128,-1,50
 746 573 746 573 746 548 c 2,51,-1
 746 379 l 1,52,-1
 746 293 l 1,0,-1
537 722 m 1,53,-1
 499 722 l 1,54,-1
 499 633 l 2,55,56
 499 616 499 616 509.5 605.5 c 128,-1,57
 520 595 520 595 537 591 c 1,58,-1
 537 722 l 1,53,-1
654 345 m 2,59,-1
 654 517 l 1,60,-1
 611 517 l 1,61,-1
 611 296 l 1,62,63
 633 296 633 296 643.5 311.5 c 128,-1,64
 654 327 654 327 654 345 c 2,59,-1
155 25 m 1,65,-1
 155 0 l 1,66,-1
 108 0 l 1,67,68
 104 -11 104 -11 95 -11 c 2,69,-1
 82 -11 l 1,70,-1
 82 0 l 1,71,-1
 53 0 l 2,72,73
 34 0 34 0 34 16 c 2,74,-1
 34 61 l 1,75,-1
 34 65 l 1,76,-1
 60 65 l 2,77,78
 66 65 66 65 67 62 c 128,-1,79
 68 59 68 59 68 54 c 2,80,-1
 68 48 l 1,81,-1
 68 26 l 1,82,-1
 82 26 l 1,83,-1
 82 104 l 1,84,-1
 34 104 l 1,85,-1
 34 182 l 2,86,87
 34 193 34 193 35 198 c 128,-1,88
 36 203 36 203 50 203 c 2,89,-1
 82 203 l 1,90,91
 82 215 82 215 95 215 c 2,92,-1
 108 215 l 1,93,-1
 108 203 l 1,94,-1
 155 203 l 1,95,-1
 155 164 l 1,96,-1
 155 156 l 1,97,-1
 125 156 l 1,98,-1
 125 164 l 2,99,100
 125 175 125 175 112 175 c 2,101,-1
 108 175 l 1,102,-1
 108 129 l 1,103,-1
 135 129 l 2,104,105
 155 129 155 129 155 115 c 2,106,-1
 155 55 l 1,107,-1
 155 25 l 1,65,-1
82 175 m 1,108,-1
 69 175 l 1,109,-1
 69 144 l 2,110,111
 69 132 69 132 82 130 c 1,112,-1
 82 175 l 1,108,-1
123 43 m 2,113,-1
 123 104 l 1,114,-1
 108 104 l 1,115,-1
 108 26 l 1,116,117
 116 26 116 26 119.5 31.5 c 128,-1,118
 123 37 123 37 123 43 c 2,113,-1
1065 492 m 256,119,120
 1065 390 1065 390 1028 300 c 128,-1,121
 991 210 991 210 927.5 143.5 c 128,-1,122
 864 77 864 77 778 38 c 128,-1,123
 692 -1 692 -1 595 -1 c 0,124,125
 502 -1 502 -1 420 35.5 c 128,-1,126
 338 72 338 72 275 133 c 1,127,-1
 335 183 l 1,128,129
 387 131 387 131 454 102 c 128,-1,130
 521 73 521 73 597 73 c 0,131,132
 677 73 677 73 747 106 c 128,-1,133
 817 139 817 139 869.5 196 c 128,-1,134
 922 253 922 253 952 329 c 128,-1,135
 982 405 982 405 982 492 c 256,136,137
 982 579 982 579 952 655.5 c 128,-1,138
 922 732 922 732 869.5 789 c 128,-1,139
 817 846 817 846 747 879 c 128,-1,140
 677 912 677 912 597 912 c 0,141,142
 498 912 498 912 415 863 c 128,-1,143
 332 814 332 814 279 733 c 1,144,-1
 227 772 l 1,145,146
 204 741 204 741 193 718 c 128,-1,147
 182 695 182 695 177 687 c 1,148,-1
 159 697 l 1,149,150
 169 721 169 721 185 744.5 c 128,-1,151
 201 768 201 768 218 791 c 0,152,153
 251 835 251 835 292.5 871 c 128,-1,154
 334 907 334 907 382 932.5 c 128,-1,155
 430 958 430 958 484 972 c 128,-1,156
 538 986 538 986 595 986 c 0,157,158
 692 986 692 986 778 947 c 128,-1,159
 864 908 864 908 927.5 841 c 128,-1,160
 991 774 991 774 1028 684 c 128,-1,161
 1065 594 1065 594 1065 492 c 256,119,120
224 846 m 1,162,163
 203 823 203 823 183.5 796.5 c 128,-1,164
 164 770 164 770 147 741 c 128,-1,165
 130 712 130 712 118 680 c 128,-1,166
 106 648 106 648 100 615 c 0,167,168
 92 570 92 570 94 526 c 128,-1,169
 96 482 96 482 106 440 c 128,-1,170
 116 398 116 398 134 359.5 c 128,-1,171
 152 321 152 321 175 288 c 1,172,-1
 107 245 l 1,173,174
 50 324 50 324 23 418 c 128,-1,175
 -4 512 -4 512 15 619 c 0,176,177
 22 660 22 660 36 700 c 128,-1,178
 50 740 50 740 69.5 777 c 128,-1,179
 89 814 89 814 113 846.5 c 128,-1,180
 137 879 137 879 164 906 c 1,181,-1
 214 863 l 1,182,183
 221 872 221 872 228 879 c 128,-1,184
 235 886 235 886 243.5 893.5 c 128,-1,185
 252 901 252 901 262.5 909 c 128,-1,186
 273 917 273 917 288 928 c 1,187,-1
 302 916 l 1,188,189
 279 898 279 898 258 880.5 c 128,-1,190
 237 863 237 863 225 846 c 1,191,-1
 224 846 l 1,162,163
1501 249 m 1,192,-1
 1115 249 l 1,193,-1
 1115 -67 l 1,194,-1
 208 -67 l 1,195,-1
 208 364 l 1,196,-1
 208 372 l 1,197,-1
 227 371 l 1,198,-1
 227 364 l 1,199,-1
 227 -50 l 1,200,-1
 1097 -50 l 1,201,-1
 1097 266 l 1,202,-1
 1501 266 l 1,203,-1
 1509 266 l 1,204,-1
 1509 249 l 1,205,-1
 1501 249 l 1,192,-1
EndSplineSet
EndChar

StartChar: percent
Encoding: 37 37 25
Width: 1161
Flags: W
LayerCount: 2
Back
Fore
SplineSet
856 746 m 1,0,-1
 281 171 l 1,1,-1
 255 197 l 2,2,3
 229 223 229 223 255 249 c 2,4,-1
 804 798 l 1,5,-1
 856 746 l 1,0,-1
194 185 m 1,6,-1
 21 -7 l 1,7,-1
 13 2 l 2,8,9
 5 10 5 10 13 19 c 2,10,-1
 179 202 l 1,11,-1
 194 185 l 1,6,-1
1065 492 m 256,12,13
 1065 390 1065 390 1028 300 c 128,-1,14
 991 210 991 210 927.5 143.5 c 128,-1,15
 864 77 864 77 778 38 c 128,-1,16
 692 -1 692 -1 595 -1 c 0,17,18
 502 -1 502 -1 420 35.5 c 128,-1,19
 338 72 338 72 275 133 c 1,20,-1
 335 183 l 1,21,22
 387 131 387 131 454 102 c 128,-1,23
 521 73 521 73 597 73 c 0,24,25
 677 73 677 73 747 106 c 128,-1,26
 817 139 817 139 869.5 196 c 128,-1,27
 922 253 922 253 952 329 c 128,-1,28
 982 405 982 405 982 492 c 256,29,30
 982 579 982 579 952 655.5 c 128,-1,31
 922 732 922 732 869.5 789 c 128,-1,32
 817 846 817 846 747 879 c 128,-1,33
 677 912 677 912 597 912 c 0,34,35
 498 912 498 912 415 863 c 128,-1,36
 332 814 332 814 279 733 c 1,37,-1
 227 772 l 1,38,39
 204 741 204 741 193 718 c 128,-1,40
 182 695 182 695 177 687 c 1,41,-1
 159 697 l 1,42,43
 169 721 169 721 185 744.5 c 128,-1,44
 201 768 201 768 218 791 c 0,45,46
 251 835 251 835 292.5 871 c 128,-1,47
 334 907 334 907 382 932.5 c 128,-1,48
 430 958 430 958 484 972 c 128,-1,49
 538 986 538 986 595 986 c 0,50,51
 692 986 692 986 778 947 c 128,-1,52
 864 908 864 908 927.5 841 c 128,-1,53
 991 774 991 774 1028 684 c 128,-1,54
 1065 594 1065 594 1065 492 c 256,12,13
224 846 m 1,55,56
 203 823 203 823 183.5 796.5 c 128,-1,57
 164 770 164 770 147 741 c 128,-1,58
 130 712 130 712 118 680 c 128,-1,59
 106 648 106 648 100 615 c 0,60,61
 92 570 92 570 94 526 c 128,-1,62
 96 482 96 482 106 440 c 128,-1,63
 116 398 116 398 134 359.5 c 128,-1,64
 152 321 152 321 175 288 c 1,65,-1
 107 245 l 1,66,67
 50 324 50 324 23 418 c 128,-1,68
 -4 512 -4 512 15 619 c 0,69,70
 22 660 22 660 36 700 c 128,-1,71
 50 740 50 740 69.5 777 c 128,-1,72
 89 814 89 814 113 846.5 c 128,-1,73
 137 879 137 879 164 906 c 1,74,-1
 214 863 l 1,75,76
 221 872 221 872 228 879 c 128,-1,77
 235 886 235 886 243.5 893.5 c 128,-1,78
 252 901 252 901 262.5 909 c 128,-1,79
 273 917 273 917 288 928 c 1,80,-1
 302 916 l 1,81,82
 279 898 279 898 258 880.5 c 128,-1,83
 237 863 237 863 225 846 c 1,84,-1
 224 846 l 1,55,56
1501 249 m 1,85,-1
 1115 249 l 1,86,-1
 1115 -67 l 1,87,-1
 208 -67 l 1,88,-1
 208 364 l 1,89,-1
 208 372 l 1,90,-1
 227 371 l 1,91,-1
 227 364 l 1,92,-1
 227 -50 l 1,93,-1
 1097 -50 l 1,94,-1
 1097 266 l 1,95,-1
 1501 266 l 1,96,-1
 1509 266 l 1,97,-1
 1509 249 l 1,98,-1
 1501 249 l 1,85,-1
527 562 m 2,99,100
 527 554 527 554 523.5 543.5 c 128,-1,101
 520 533 520 533 513.5 524 c 128,-1,102
 507 515 507 515 498 509 c 128,-1,103
 489 503 489 503 478 503 c 2,104,-1
 378 503 l 2,105,106
 367 503 367 503 358 509 c 128,-1,107
 349 515 349 515 343 524 c 128,-1,108
 337 533 337 533 333.5 543.5 c 128,-1,109
 330 554 330 554 330 562 c 2,110,-1
 330 733 l 2,111,112
 330 741 330 741 333.5 751.5 c 128,-1,113
 337 762 337 762 343 771 c 128,-1,114
 349 780 349 780 358 786 c 128,-1,115
 367 792 367 792 378 792 c 2,116,-1
 478 792 l 2,117,118
 489 792 489 792 498 786 c 128,-1,119
 507 780 507 780 513 771 c 128,-1,120
 519 762 519 762 522.5 751.5 c 128,-1,121
 526 741 526 741 526 733 c 0,122,123
 526 714 526 714 526.5 697 c 128,-1,124
 527 680 527 680 527 653 c 2,125,-1
 527 562 l 2,99,100
487 653 m 1,126,-1
 487 726 l 1,127,-1
 487 738 l 1,128,-1
 406 540 l 1,129,-1
 433 540 l 1,130,-1
 456 540 l 2,131,132
 470 540 470 540 478.5 550 c 128,-1,133
 487 560 487 560 487 568 c 2,134,-1
 487 653 l 1,126,-1
444 756 m 1,135,-1
 435 756 l 1,136,-1
 401 756 l 2,137,138
 387 756 387 756 378.5 745 c 128,-1,139
 370 734 370 734 370 726 c 2,140,-1
 370 653 l 1,141,-1
 370 570 l 1,142,-1
 444 756 l 1,135,-1
789 249 m 2,143,144
 789 241 789 241 785.5 230.5 c 128,-1,145
 782 220 782 220 775.5 211 c 128,-1,146
 769 202 769 202 760 196 c 128,-1,147
 751 190 751 190 740 190 c 2,148,-1
 640 190 l 2,149,150
 629 190 629 190 620 196 c 128,-1,151
 611 202 611 202 605 211 c 128,-1,152
 599 220 599 220 595.5 230.5 c 128,-1,153
 592 241 592 241 592 249 c 2,154,-1
 592 420 l 2,155,156
 592 428 592 428 595.5 438.5 c 128,-1,157
 599 449 599 449 605 458 c 128,-1,158
 611 467 611 467 620 473 c 128,-1,159
 629 479 629 479 640 479 c 2,160,-1
 740 479 l 2,161,162
 751 479 751 479 760 473 c 128,-1,163
 769 467 769 467 775 458 c 128,-1,164
 781 449 781 449 784.5 438.5 c 128,-1,165
 788 428 788 428 788 420 c 0,166,167
 788 401 788 401 788.5 384 c 128,-1,168
 789 367 789 367 789 340 c 2,169,-1
 789 249 l 2,143,144
749 340 m 1,170,-1
 749 413 l 1,171,-1
 749 425 l 1,172,-1
 668 227 l 1,173,-1
 695 227 l 1,174,-1
 718 227 l 2,175,176
 732 227 732 227 740.5 237 c 128,-1,177
 749 247 749 247 749 255 c 2,178,-1
 749 340 l 1,170,-1
706 443 m 1,179,-1
 697 443 l 1,180,-1
 663 443 l 2,181,182
 649 443 649 443 640.5 432 c 128,-1,183
 632 421 632 421 632 413 c 2,184,-1
 632 340 l 1,185,-1
 632 257 l 1,186,-1
 706 443 l 1,179,-1
95 124 m 2,187,188
 95 118 95 118 91 111 c 128,-1,189
 87 104 87 104 80 104 c 2,190,-1
 50 104 l 2,191,192
 43 104 43 104 39 111 c 128,-1,193
 35 118 35 118 35 124 c 2,194,-1
 35 181 l 2,195,196
 35 186 35 186 39 193.5 c 128,-1,197
 43 201 43 201 50 201 c 2,198,-1
 80 201 l 2,199,200
 87 201 87 201 91 193.5 c 128,-1,201
 95 186 95 186 95 181 c 2,202,-1
 95 154 l 1,203,-1
 95 124 l 2,187,188
83 154 m 1,204,-1
 83 178 l 1,205,-1
 83 183 l 1,206,-1
 58 116 l 1,207,-1
 67 116 l 1,208,-1
 73 116 l 2,209,210
 78 116 78 116 80.5 119.5 c 128,-1,211
 83 123 83 123 83 126 c 2,212,-1
 83 154 l 1,204,-1
70 188 m 1,213,-1
 67 188 l 1,214,-1
 57 188 l 2,215,216
 52 188 52 188 49.5 184.5 c 128,-1,217
 47 181 47 181 47 178 c 2,218,-1
 47 154 l 1,219,-1
 47 126 l 1,220,-1
 70 188 l 1,213,-1
174 19 m 2,221,222
 174 13 174 13 170 6 c 128,-1,223
 166 -1 166 -1 159 -1 c 2,224,-1
 129 -1 l 2,225,226
 122 -1 122 -1 118 6 c 128,-1,227
 114 13 114 13 114 19 c 2,228,-1
 114 76 l 2,229,230
 114 81 114 81 118 88.5 c 128,-1,231
 122 96 122 96 129 96 c 2,232,-1
 159 96 l 2,233,234
 166 96 166 96 170 88.5 c 128,-1,235
 174 81 174 81 174 76 c 2,236,-1
 174 49 l 1,237,-1
 174 19 l 2,221,222
162 49 m 1,238,-1
 162 73 l 1,239,-1
 162 78 l 1,240,-1
 137 11 l 1,241,-1
 146 11 l 1,242,-1
 152 11 l 2,243,244
 157 11 157 11 159.5 14.5 c 128,-1,245
 162 18 162 18 162 21 c 2,246,-1
 162 49 l 1,238,-1
149 83 m 1,247,-1
 146 83 l 1,248,-1
 136 83 l 2,249,250
 131 83 131 83 128.5 79.5 c 128,-1,251
 126 76 126 76 126 73 c 2,252,-1
 126 49 l 1,253,-1
 126 21 l 1,254,-1
 149 83 l 1,247,-1
EndSplineSet
EndChar

StartChar: ampersand
Encoding: 38 38 26
Width: 1161
Flags: W
LayerCount: 2
Back
Fore
SplineSet
788 371 m 1,0,-1
 733 371 l 1,1,-1
 732 251 l 2,2,3
 732 238 732 238 722 229.5 c 128,-1,4
 712 221 712 221 701 221 c 2,5,-1
 492 221 l 2,6,7
 478 221 478 221 471.5 232 c 128,-1,8
 465 243 465 243 465 255 c 2,9,-1
 465 767 l 2,10,11
 465 800 465 800 496 800 c 2,12,-1
 658 800 l 1,13,-1
 658 487 l 2,14,15
 658 479 658 479 647 473.5 c 128,-1,16
 636 468 636 468 623 468 c 2,17,-1
 588 468 l 1,18,-1
 588 686 l 1,19,-1
 528 687 l 1,20,-1
 529 322 l 1,21,-1
 669 322 l 1,22,-1
 670 371 l 1,23,-1
 620 370 l 2,24,25
 608 370 608 370 603.5 380.5 c 128,-1,26
 599 391 599 391 600 405 c 2,27,-1
 599 440 l 1,28,-1
 761 440 l 2,29,30
 773 440 773 440 780.5 431.5 c 128,-1,31
 788 423 788 423 788 406 c 2,32,-1
 788 371 l 1,0,-1
169 52 m 1,33,-1
 149 52 l 1,34,-1
 149 11 l 2,35,36
 149 0 149 0 138 0 c 2,37,-1
 65 0 l 2,38,39
 60 0 60 0 58 3.5 c 128,-1,40
 56 7 56 7 56 12 c 2,41,-1
 56 191 l 2,42,43
 56 203 56 203 67 203 c 2,44,-1
 123 203 l 1,45,-1
 123 93 l 2,46,47
 123 90 123 90 119.5 88.5 c 128,-1,48
 116 87 116 87 111 86 c 2,49,-1
 99 86 l 1,50,-1
 99 163 l 1,51,-1
 78 163 l 1,52,-1
 78 36 l 1,53,-1
 127 36 l 1,54,-1
 127 52 l 1,55,-1
 110 52 l 2,56,57
 106 52 106 52 104.5 55.5 c 128,-1,58
 103 59 103 59 103 64 c 2,59,-1
 103 77 l 1,60,-1
 160 77 l 2,61,62
 169 77 169 77 169 65 c 2,63,-1
 169 52 l 1,33,-1
1065 492 m 256,64,65
 1065 390 1065 390 1028 300 c 128,-1,66
 991 210 991 210 927.5 143.5 c 128,-1,67
 864 77 864 77 778 38 c 128,-1,68
 692 -1 692 -1 595 -1 c 0,69,70
 502 -1 502 -1 420 35.5 c 128,-1,71
 338 72 338 72 275 133 c 1,72,-1
 335 183 l 1,73,74
 387 131 387 131 454 102 c 128,-1,75
 521 73 521 73 597 73 c 0,76,77
 677 73 677 73 747 106 c 128,-1,78
 817 139 817 139 869.5 196 c 128,-1,79
 922 253 922 253 952 329 c 128,-1,80
 982 405 982 405 982 492 c 256,81,82
 982 579 982 579 952 655.5 c 128,-1,83
 922 732 922 732 869.5 789 c 128,-1,84
 817 846 817 846 747 879 c 128,-1,85
 677 912 677 912 597 912 c 0,86,87
 498 912 498 912 415 863 c 128,-1,88
 332 814 332 814 279 733 c 1,89,-1
 227 772 l 1,90,91
 204 741 204 741 193 718 c 128,-1,92
 182 695 182 695 177 687 c 1,93,-1
 159 697 l 1,94,95
 169 721 169 721 185 744.5 c 128,-1,96
 201 768 201 768 218 791 c 0,97,98
 251 835 251 835 292.5 871 c 128,-1,99
 334 907 334 907 382 932.5 c 128,-1,100
 430 958 430 958 484 972 c 128,-1,101
 538 986 538 986 595 986 c 0,102,103
 692 986 692 986 778 947 c 128,-1,104
 864 908 864 908 927.5 841 c 128,-1,105
 991 774 991 774 1028 684 c 128,-1,106
 1065 594 1065 594 1065 492 c 256,64,65
224 846 m 1,107,108
 203 823 203 823 183.5 796.5 c 128,-1,109
 164 770 164 770 147 741 c 128,-1,110
 130 712 130 712 118 680 c 128,-1,111
 106 648 106 648 100 615 c 0,112,113
 92 570 92 570 94 526 c 128,-1,114
 96 482 96 482 106 440 c 128,-1,115
 116 398 116 398 134 359.5 c 128,-1,116
 152 321 152 321 175 288 c 1,117,-1
 107 245 l 1,118,119
 50 324 50 324 23 418 c 128,-1,120
 -4 512 -4 512 15 619 c 0,121,122
 22 660 22 660 36 700 c 128,-1,123
 50 740 50 740 69.5 777 c 128,-1,124
 89 814 89 814 113 846.5 c 128,-1,125
 137 879 137 879 164 906 c 1,126,-1
 214 863 l 1,127,128
 221 872 221 872 228 879 c 128,-1,129
 235 886 235 886 243.5 893.5 c 128,-1,130
 252 901 252 901 262.5 909 c 128,-1,131
 273 917 273 917 288 928 c 1,132,-1
 302 916 l 1,133,134
 279 898 279 898 258 880.5 c 128,-1,135
 237 863 237 863 225 846 c 1,136,-1
 224 846 l 1,107,108
1501 249 m 1,137,-1
 1115 249 l 1,138,-1
 1115 -67 l 1,139,-1
 208 -67 l 1,140,-1
 208 364 l 1,141,-1
 208 372 l 1,142,-1
 227 371 l 1,143,-1
 227 364 l 1,144,-1
 227 -50 l 1,145,-1
 1097 -50 l 1,146,-1
 1097 266 l 1,147,-1
 1501 266 l 1,148,-1
 1509 266 l 1,149,-1
 1509 249 l 1,150,-1
 1501 249 l 1,137,-1
EndSplineSet
EndChar

StartChar: quotesingle
Encoding: 39 39 27
Width: 668
Flags: W
LayerCount: 2
Back
Fore
SplineSet
404 577 m 2,0,1
 404 560 404 560 404 551.5 c 128,-1,2
 404 543 404 543 403.5 538 c 128,-1,3
 403 533 403 533 403 528 c 128,-1,4
 403 523 403 523 403 513 c 256,5,6
 403 503 403 503 401 491 c 128,-1,7
 399 479 399 479 395.5 468.5 c 128,-1,8
 392 458 392 458 386.5 450.5 c 128,-1,9
 381 443 381 443 374 443 c 2,10,-1
 360 443 l 1,11,-1
 360 615 l 2,12,13
 360 631 360 631 364 640 c 128,-1,14
 368 649 368 649 383 649 c 2,15,-1
 404 649 l 1,16,-1
 404 577 l 2,0,1
620 667 m 1,17,18
 639 639 639 639 647 610.5 c 128,-1,19
 655 582 655 582 655 547 c 0,20,21
 655 497 655 497 635 453.5 c 128,-1,22
 615 410 615 410 580.5 378 c 128,-1,23
 546 346 546 346 499.5 327 c 128,-1,24
 453 308 453 308 400 308 c 0,25,26
 378 308 378 308 351.5 314 c 128,-1,27
 325 320 325 320 305 326 c 0,28,29
 265 340 265 340 234.5 365 c 128,-1,30
 204 390 204 390 182 424 c 1,31,-1
 167 424 l 1,32,33
 171 416 171 416 174.5 410.5 c 128,-1,34
 178 405 178 405 183 398 c 0,35,36
 217 350 217 350 270 327 c 1,37,-1
 260 311 l 1,38,39
 230 323 230 323 208 341 c 128,-1,40
 186 359 186 359 167 387 c 0,41,42
 155 403 155 403 146 424 c 1,43,-1
 62 424 l 1,44,-1
 62 544 l 1,45,-1
 48 544 l 1,46,-1
 39 544 l 1,47,-1
 39 555 l 1,48,-1
 47 555 l 1,49,-1
 129 555 l 1,50,51
 136 606 136 606 163.5 651 c 128,-1,52
 191 696 191 696 239 729 c 0,53,54
 294 768 294 768 357 774 c 128,-1,55
 420 780 420 780 477 758 c 1,56,-1
 494 781 l 1,57,-1
 503 793 l 1,58,-1
 527 774 l 1,59,-1
 518 762 l 1,60,-1
 489 725 l 1,61,-1
 480 713 l 1,62,-1
 456 732 l 1,63,-1
 466 745 l 1,64,65
 413 767 413 767 358 761 c 128,-1,66
 303 755 303 755 249 718 c 0,67,68
 204 687 204 687 179 645 c 128,-1,69
 154 603 154 603 147 555 c 1,70,-1
 202 555 l 1,71,-1
 211 555 l 1,72,-1
 211 544 l 1,73,-1
 204 544 l 1,74,-1
 145 544 l 1,75,76
 141 515 141 515 145.5 489.5 c 128,-1,77
 150 464 150 464 163 436 c 1,78,-1
 225 436 l 1,79,-1
 233 436 l 1,80,-1
 233 424 l 1,81,-1
 227 424 l 1,82,-1
 204 424 l 1,83,84
 236 377 236 377 287 350 c 128,-1,85
 338 323 338 323 402 323 c 0,86,87
 451 323 451 323 494 340.5 c 128,-1,88
 537 358 537 358 569.5 388.5 c 128,-1,89
 602 419 602 419 620.5 459.5 c 128,-1,90
 639 500 639 500 639 547 c 0,91,92
 639 608 639 608 607 660 c 1,93,-1
 620 668 l 1,94,-1
 620 667 l 1,17,18
141 436 m 1,95,96
 130 464 130 464 126 489.5 c 128,-1,97
 122 515 122 515 127 544 c 1,98,-1
 73 544 l 1,99,-1
 73 436 l 1,100,-1
 141 436 l 1,95,96
78 559 m 1,101,-1
 65 559 l 1,102,103
 63 564 63 564 58.5 568.5 c 128,-1,104
 54 573 54 573 47 574 c 0,105,106
 39 574 39 574 32 568 c 128,-1,107
 25 562 25 562 25 554 c 256,108,109
 25 546 25 546 31 538.5 c 128,-1,110
 37 531 37 531 46 531 c 0,111,112
 52 531 52 531 58 533 c 1,113,-1
 58 521 l 2,114,115
 55 520 55 520 52.5 519.5 c 128,-1,116
 50 519 50 519 47 519 c 0,117,118
 33 519 33 519 23.5 528 c 128,-1,119
 14 537 14 537 14 551 c 256,120,121
 14 565 14 565 23.5 574 c 128,-1,122
 33 583 33 583 47 583 c 0,123,124
 58 583 58 583 66 576 c 128,-1,125
 74 569 74 569 78 559 c 1,101,-1
EndSplineSet
EndChar

StartChar: parenleft
Encoding: 40 40 28
Width: 534
Flags: W
LayerCount: 2
Back
Fore
SplineSet
213 434 m 1,0,1
 181 432 181 432 153 417.5 c 128,-1,2
 125 403 125 403 104 379 c 128,-1,3
 83 355 83 355 71 324 c 128,-1,4
 59 293 59 293 59 258 c 0,5,6
 59 221 59 221 72 188.5 c 128,-1,7
 85 156 85 156 107.5 132 c 128,-1,8
 130 108 130 108 160.5 94.5 c 128,-1,9
 191 81 191 81 225 81 c 0,10,11
 260 81 260 81 287 94 c 1,12,13
 257 171 257 171 237.5 255.5 c 128,-1,14
 218 340 218 340 213 434 c 1,0,1
441 -3 m 0,15,16
 453 -24 453 -24 446 -41.5 c 128,-1,17
 439 -59 439 -59 423.5 -68 c 128,-1,18
 408 -77 408 -77 389 -74 c 128,-1,19
 370 -71 370 -71 358 -51 c 0,20,21
 329 1 329 1 301 62 c 1,22,23
 264 46 264 46 225 46 c 0,24,25
 183 46 183 46 146.5 63 c 128,-1,26
 110 80 110 80 82.5 108.5 c 128,-1,27
 55 137 55 137 39.5 175.5 c 128,-1,28
 24 214 24 214 24 258 c 0,29,30
 24 312 24 312 47 357.5 c 128,-1,31
 70 403 70 403 109 432 c 1,32,-1
 109 1025 l 1,33,-1
 347 1025 l 1,34,35
 353 1038 353 1038 358.5 1048.5 c 128,-1,36
 364 1059 364 1059 371 1071 c 0,37,38
 383 1092 383 1092 401.5 1095 c 128,-1,39
 420 1098 420 1098 435.5 1089.5 c 128,-1,40
 451 1081 451 1081 458.5 1063.5 c 128,-1,41
 466 1046 466 1046 454 1025 c 1,42,-1
 532 1026 l 1,43,-1
 540 1026 l 1,44,-1
 540 1011 l 1,45,-1
 532 1011 l 1,46,-1
 446 1011 l 1,47,48
 366 854 366 854 335 714 c 128,-1,49
 304 574 304 574 309 450 c 1,50,51
 360 425 360 425 392 375.5 c 128,-1,52
 424 326 424 326 426 264 c 1,53,-1
 829 264 l 1,54,-1
 829 249 l 1,55,-1
 425 249 l 1,56,57
 423 214 423 214 411 181.5 c 128,-1,58
 399 149 399 149 379 123 c 1,59,60
 393 89 393 89 408.5 57.5 c 128,-1,61
 424 26 424 26 441 -3 c 0,15,16
311 409 m 1,62,63
 316 342 316 342 330 280.5 c 128,-1,64
 344 219 344 219 364 162 c 1,65,66
 375 182 375 182 382.5 206.5 c 128,-1,67
 390 231 390 231 391 255 c 0,68,69
 389 307 389 307 367.5 346.5 c 128,-1,70
 346 386 346 386 311 409 c 1,62,63
123 1009 m 1,71,-1
 123 441 l 1,72,73
 163 466 163 466 212 469 c 1,74,75
 210 593 210 593 239.5 727.5 c 128,-1,76
 269 862 269 862 340 1009 c 1,77,-1
 123 1009 l 1,71,-1
EndSplineSet
EndChar

StartChar: parenright
Encoding: 41 41 29
Width: 534
Flags: W
LayerCount: 2
Back
Fore
SplineSet
195 93 m 1,0,1
 210 86 210 86 224 83.5 c 128,-1,2
 238 81 238 81 255 81 c 0,3,4
 289 81 289 81 319.5 94.5 c 128,-1,5
 350 108 350 108 372.5 132 c 128,-1,6
 395 156 395 156 408 188.5 c 128,-1,7
 421 221 421 221 421 258 c 0,8,9
 421 292 421 292 411 321.5 c 128,-1,10
 401 351 401 351 383 374.5 c 128,-1,11
 365 398 365 398 339.5 413 c 128,-1,12
 314 428 314 428 284 432 c 1,13,14
 279 337 279 337 255 254 c 128,-1,15
 231 171 231 171 195 93 c 1,0,1
110 1071 m 0,16,17
 118 1058 118 1058 123 1047 c 128,-1,18
 128 1036 128 1036 134 1024 c 1,19,-1
 371 1024 l 1,20,-1
 371 435 l 1,21,22
 411 408 411 408 433 363 c 128,-1,23
 455 318 455 318 456 263 c 1,24,-1
 896 263 l 1,25,-1
 896 249 l 1,26,-1
 889 249 l 1,27,-1
 456 249 l 1,28,29
 455 207 455 207 439 170 c 128,-1,30
 423 133 423 133 396 105.5 c 128,-1,31
 369 78 369 78 332.5 62 c 128,-1,32
 296 46 296 46 255 46 c 0,33,34
 233 46 233 46 216 50.5 c 128,-1,35
 199 55 199 55 181 63 c 1,36,37
 154 5 154 5 121 -51 c 0,38,39
 109 -71 109 -71 90.5 -74 c 128,-1,40
 72 -77 72 -77 56.5 -68 c 128,-1,41
 41 -59 41 -59 34 -41.5 c 128,-1,42
 27 -24 27 -24 39 -3 c 0,43,44
 57 28 57 28 72.5 57 c 128,-1,45
 88 86 88 86 103 119 c 1,46,47
 54 175 54 175 54 258 c 0,48,49
 54 293 54 293 64 325 c 128,-1,50
 74 357 74 357 92 383.5 c 128,-1,51
 110 410 110 410 135 429 c 128,-1,52
 160 448 160 448 191 458 c 1,53,54
 194 518 194 518 187 580.5 c 128,-1,55
 180 643 180 643 162 711 c 128,-1,56
 144 779 144 779 113 853 c 128,-1,57
 82 927 82 927 36 1009 c 1,58,-1
 -51 1009 l 1,59,-1
 -58 1009 l 1,60,-1
 -58 1024 l 1,61,-1
 -51 1024 l 1,62,-1
 28 1024 l 1,63,64
 16 1045 16 1045 23 1062.5 c 128,-1,65
 30 1080 30 1080 45.5 1088.5 c 128,-1,66
 61 1097 61 1097 79.5 1094 c 128,-1,67
 98 1091 98 1091 110 1071 c 0,16,17
143 1009 m 1,68,69
 225 852 225 852 257 719 c 128,-1,70
 289 586 289 586 285 467 c 1,71,72
 306 464 306 464 322.5 458 c 128,-1,73
 339 452 339 452 356 442 c 1,74,-1
 356 1009 l 1,75,-1
 143 1009 l 1,68,69
89 258 m 0,76,77
 89 227 89 227 97 202 c 128,-1,78
 105 177 105 177 120 154 c 1,79,80
 147 217 147 217 166 283.5 c 128,-1,81
 185 350 185 350 191 424 c 1,82,83
 145 404 145 404 117 359.5 c 128,-1,84
 89 315 89 315 89 258 c 0,76,77
EndSplineSet
EndChar

StartChar: asterisk
Encoding: 42 42 30
Width: 606
Flags: W
LayerCount: 2
Back
Fore
SplineSet
476 679 m 1,0,-1
 484 679 l 1,1,-1
 522 679 l 1,2,-1
 522 449 l 1,3,-1
 273 449 l 1,4,-1
 273 378 l 1,5,-1
 273 370 l 1,6,7
 232 368 232 368 205.5 338.5 c 128,-1,8
 179 309 179 309 179 268 c 2,9,-1
 179 263 l 1,10,-1
 -17 264 l 1,11,-1
 -17 249 l 1,12,-1
 -10 249 l 1,13,-1
 181 249 l 1,14,15
 186 213 186 213 214 190 c 128,-1,16
 242 167 242 167 280 167 c 0,17,18
 317 167 317 167 344.5 190.5 c 128,-1,19
 372 214 372 214 379 249 c 1,20,-1
 399 249 l 1,21,-1
 399 83 l 1,22,-1
 477 83 l 1,23,-1
 477 301 l 1,24,-1
 522 301 l 1,25,-1
 522 261 l 1,26,-1
 522 248 l 1,27,-1
 790 249 l 1,28,-1
 797 249 l 1,29,-1
 797 264 l 1,30,-1
 790 264 l 1,31,-1
 537 263 l 1,32,-1
 537 316 l 1,33,-1
 462 316 l 1,34,-1
 462 98 l 1,35,-1
 414 98 l 1,36,-1
 414 257 l 1,37,-1
 414 264 l 1,38,-1
 400 264 l 1,39,-1
 381 264 l 1,40,-1
 381 268 l 2,41,42
 381 289 381 289 373.5 307.5 c 128,-1,43
 366 326 366 326 353 340 c 128,-1,44
 340 354 340 354 323 362 c 128,-1,45
 306 370 306 370 288 370 c 1,46,-1
 288 378 l 1,47,-1
 288 434 l 1,48,-1
 537 434 l 1,49,-1
 537 694 l 1,50,-1
 484 694 l 1,51,-1
 473 694 l 1,52,53
 470 705 470 705 458 714 c 128,-1,54
 446 723 446 723 429 723 c 0,55,56
 409 723 409 723 396 709.5 c 128,-1,57
 383 696 383 696 383 676 c 256,58,59
 383 656 383 656 396 642.5 c 128,-1,60
 409 629 409 629 429 629 c 0,61,62
 448 629 448 629 462 642.5 c 128,-1,63
 476 656 476 656 476 676 c 0,64,65
 476 678 476 678 476.5 677.5 c 128,-1,66
 477 677 477 677 476 679 c 1,67,-1
 476 679 l 1,0,-1
521 540 m 1,68,69
 497 506 497 506 473.5 502.5 c 128,-1,70
 450 499 450 499 423 514 c 1,71,-1
 295 614 l 1,72,-1
 259 392 l 1,73,74
 246 393 246 393 233.5 400 c 128,-1,75
 221 407 221 407 211.5 417 c 128,-1,76
 202 427 202 427 197 439.5 c 128,-1,77
 192 452 192 452 194 465 c 2,78,-1
 228 629 l 1,79,-1
 20 608 l 1,80,81
 12 634 12 634 26 658.5 c 128,-1,82
 40 683 40 683 66 693 c 1,83,-1
 223 710 l 1,84,-1
 154 900 l 1,85,86
 183 911 183 911 208 906.5 c 128,-1,87
 233 902 233 902 241 881 c 2,88,-1
 294 733 l 1,89,-1
 485 858 l 1,90,91
 502 832 502 832 500 805 c 128,-1,92
 498 778 498 778 474 762 c 2,93,-1
 339 670 l 1,94,-1
 521 540 l 1,68,69
362 271 m 2,95,-1
 362 263 l 1,96,-1
 290 263 l 1,97,-1
 291 280 l 1,98,-1
 291 353 l 1,99,100
 321 348 321 348 341.5 325 c 128,-1,101
 362 302 362 302 362 271 c 2,95,-1
279 185 m 0,102,103
 249 185 249 185 227.5 203 c 128,-1,104
 206 221 206 221 199 249 c 1,105,-1
 360 249 l 1,106,107
 354 222 354 222 331 203.5 c 128,-1,108
 308 185 308 185 279 185 c 0,102,103
273 263 m 1,109,-1
 197 263 l 2,110,111
 197 265 197 265 196.5 266.5 c 128,-1,112
 196 268 196 268 196 270 c 0,113,114
 196 305 196 305 217.5 328.5 c 128,-1,115
 239 352 239 352 273 352 c 1,116,-1
 273 278 l 1,117,-1
 273 263 l 1,109,-1
EndSplineSet
EndChar

StartChar: plus
Encoding: 43 43 31
Width: 1161
Flags: W
LayerCount: 2
Back
Fore
SplineSet
727 536 m 1,0,-1
 726 496 l 2,1,2
 726 480 726 480 716.5 471 c 128,-1,3
 707 462 707 462 693 462 c 2,4,-1
 588 462 l 1,5,-1
 588 318 l 1,6,-1
 550 318 l 2,7,8
 531 318 531 318 522.5 329 c 128,-1,9
 514 340 514 340 514 354 c 2,10,-1
 514 462 l 1,11,-1
 376 462 l 1,12,-1
 376 500 l 2,13,14
 375 520 375 520 384 528 c 128,-1,15
 393 536 393 536 411 536 c 2,16,-1
 515 536 l 1,17,-1
 514 659 l 1,18,-1
 548 659 l 2,19,20
 568 659 568 659 578 650.5 c 128,-1,21
 588 642 588 642 588 620 c 2,22,-1
 588 536 l 1,23,-1
 727 536 l 1,0,-1
1065 492 m 256,24,25
 1065 390 1065 390 1028 300 c 128,-1,26
 991 210 991 210 927.5 143.5 c 128,-1,27
 864 77 864 77 778 38 c 128,-1,28
 692 -1 692 -1 595 -1 c 0,29,30
 502 -1 502 -1 420 35.5 c 128,-1,31
 338 72 338 72 275 133 c 1,32,-1
 335 183 l 1,33,34
 387 131 387 131 454 102 c 128,-1,35
 521 73 521 73 597 73 c 0,36,37
 677 73 677 73 747 106 c 128,-1,38
 817 139 817 139 869.5 196 c 128,-1,39
 922 253 922 253 952 329 c 128,-1,40
 982 405 982 405 982 492 c 256,41,42
 982 579 982 579 952 655.5 c 128,-1,43
 922 732 922 732 869.5 789 c 128,-1,44
 817 846 817 846 747 879 c 128,-1,45
 677 912 677 912 597 912 c 0,46,47
 498 912 498 912 415 863 c 128,-1,48
 332 814 332 814 279 733 c 1,49,-1
 227 772 l 1,50,51
 204 741 204 741 193 718 c 128,-1,52
 182 695 182 695 177 687 c 1,53,-1
 159 697 l 1,54,55
 169 721 169 721 185 744.5 c 128,-1,56
 201 768 201 768 218 791 c 0,57,58
 251 835 251 835 292.5 871 c 128,-1,59
 334 907 334 907 382 932.5 c 128,-1,60
 430 958 430 958 484 972 c 128,-1,61
 538 986 538 986 595 986 c 0,62,63
 692 986 692 986 778 947 c 128,-1,64
 864 908 864 908 927.5 841 c 128,-1,65
 991 774 991 774 1028 684 c 128,-1,66
 1065 594 1065 594 1065 492 c 256,24,25
224 846 m 1,67,68
 203 823 203 823 183.5 796.5 c 128,-1,69
 164 770 164 770 147 741 c 128,-1,70
 130 712 130 712 118 680 c 128,-1,71
 106 648 106 648 100 615 c 0,72,73
 92 570 92 570 94 526 c 128,-1,74
 96 482 96 482 106 440 c 128,-1,75
 116 398 116 398 134 359.5 c 128,-1,76
 152 321 152 321 175 288 c 1,77,-1
 107 245 l 1,78,79
 50 324 50 324 23 418 c 128,-1,80
 -4 512 -4 512 15 619 c 0,81,82
 22 660 22 660 36 700 c 128,-1,83
 50 740 50 740 69.5 777 c 128,-1,84
 89 814 89 814 113 846.5 c 128,-1,85
 137 879 137 879 164 906 c 1,86,-1
 214 863 l 1,87,88
 221 872 221 872 228 879 c 128,-1,89
 235 886 235 886 243.5 893.5 c 128,-1,90
 252 901 252 901 262.5 909 c 128,-1,91
 273 917 273 917 288 928 c 1,92,-1
 302 916 l 1,93,94
 279 898 279 898 258 880.5 c 128,-1,95
 237 863 237 863 225 846 c 1,96,-1
 224 846 l 1,67,68
1501 249 m 1,97,-1
 1115 249 l 1,98,-1
 1115 -67 l 1,99,-1
 208 -67 l 1,100,-1
 208 364 l 1,101,-1
 208 372 l 1,102,-1
 227 371 l 1,103,-1
 227 364 l 1,104,-1
 227 -50 l 1,105,-1
 1097 -50 l 1,106,-1
 1097 266 l 1,107,-1
 1501 266 l 1,108,-1
 1509 266 l 1,109,-1
 1509 249 l 1,110,-1
 1501 249 l 1,97,-1
EndSplineSet
EndChar

StartChar: comma
Encoding: 44 44 32
Width: 233
Flags: W
LayerCount: 2
Back
Fore
SplineSet
175 63 m 1,0,-1
 175 -9 l 2,1,2
 175 -17 175 -17 169 -23 c 128,-1,3
 163 -29 163 -29 155 -29 c 2,4,-1
 132 -28 l 1,5,-1
 83 -29 l 2,6,7
 75 -29 75 -29 69 -23 c 128,-1,8
 63 -17 63 -17 63 -9 c 2,9,-1
 63 -8 l 2,10,11
 63 0 63 0 69 6 c 128,-1,12
 75 12 75 12 83 12 c 2,13,-1
 106 11 l 1,14,-1
 107 65 l 1,15,-1
 56 65 l 2,16,17
 48 65 48 65 42.5 71.5 c 128,-1,18
 37 78 37 78 37 86 c 2,19,-1
 37 188 l 2,20,21
 37 196 37 196 43 202 c 128,-1,22
 49 208 49 208 57 208 c 2,23,-1
 163 208 l 2,24,25
 171 208 171 208 179 202.5 c 128,-1,26
 187 197 187 197 187 189 c 2,27,-1
 187 128 l 1,28,-1
 187 81 l 2,29,30
 187 71 187 71 176 64 c 2,31,-1
 175 63 l 1,0,-1
EndSplineSet
EndChar

StartChar: hyphen
Encoding: 45 45 33
Width: 279
Flags: W
LayerCount: 2
Back
Fore
SplineSet
267 296 m 2,0,1
 267 281 267 281 262.5 271 c 128,-1,2
 258 261 258 261 250 261 c 2,3,-1
 100 261 l 1,4,-1
 100 287 l 2,5,6
 100 303 100 303 101.5 313.5 c 128,-1,7
 103 324 103 324 112 324 c 2,8,-1
 267 324 l 1,9,-1
 267 296 l 2,0,1
EndSplineSet
EndChar

StartChar: period
Encoding: 46 46 34
Width: 380
Flags: W
LayerCount: 2
Back
Fore
SplineSet
257 0 m 1,0,-1
 128 0 l 1,1,-1
 128 129 l 1,2,-1
 257 129 l 1,3,-1
 257 0 l 1,0,-1
190 240 m 256,4,5
 227 240 227 240 260 226 c 128,-1,6
 293 212 293 212 318 187 c 128,-1,7
 343 162 343 162 357.5 129 c 128,-1,8
 372 96 372 96 372 57 c 0,9,10
 372 19 372 19 358 -15 c 128,-1,11
 344 -49 344 -49 320 -74.5 c 128,-1,12
 296 -100 296 -100 263 -114.5 c 128,-1,13
 230 -129 230 -129 193 -129 c 256,14,15
 156 -129 156 -129 123.5 -114.5 c 128,-1,16
 91 -100 91 -100 66.5 -74.5 c 128,-1,17
 42 -49 42 -49 28 -15 c 128,-1,18
 14 19 14 19 14 57 c 256,19,20
 14 95 14 95 27.5 128.5 c 128,-1,21
 41 162 41 162 65 186.5 c 128,-1,22
 89 211 89 211 121 225.5 c 128,-1,23
 153 240 153 240 190 240 c 256,4,5
190 205 m 0,24,25
 161 205 161 205 135 193.5 c 128,-1,26
 109 182 109 182 90 162.5 c 128,-1,27
 71 143 71 143 60 115.5 c 128,-1,28
 49 88 49 88 49 57 c 0,29,30
 49 25 49 25 60.5 -2.5 c 128,-1,31
 72 -30 72 -30 91.5 -50 c 128,-1,32
 111 -70 111 -70 137 -82 c 128,-1,33
 163 -94 163 -94 193 -94 c 256,34,35
 223 -94 223 -94 249 -82 c 128,-1,36
 275 -70 275 -70 294.5 -50 c 128,-1,37
 314 -30 314 -30 325.5 -2.5 c 128,-1,38
 337 25 337 25 337 57 c 0,39,40
 337 88 337 88 325.5 115 c 128,-1,41
 314 142 314 142 293.5 162 c 128,-1,42
 273 182 273 182 246.5 193.5 c 128,-1,43
 220 205 220 205 190 205 c 0,24,25
EndSplineSet
EndChar

StartChar: slash
Encoding: 47 47 35
Width: 538
Flags: W
LayerCount: 2
Back
Fore
SplineSet
89 272 m 2,0,1
 87 279 87 279 87.5 284.5 c 128,-1,2
 88 290 88 290 88 298 c 0,3,4
 88 331 88 331 100 360 c 128,-1,5
 112 389 112 389 133 411 c 128,-1,6
 154 433 154 433 182.5 445.5 c 128,-1,7
 211 458 211 458 244 458 c 0,8,9
 250 458 250 458 251 459 c 128,-1,10
 252 460 252 460 259 458 c 1,11,-1
 428 795 l 1,12,-1
 532 795 l 1,13,-1
 342 422 l 1,14,15
 400 375 400 375 400 298 c 0,16,17
 400 289 400 289 398.5 281 c 128,-1,18
 397 273 397 273 395 264 c 1,19,-1
 869 264 l 1,20,-1
 869 249 l 1,21,-1
 391 249 l 1,22,23
 377 200 377 200 337 169 c 128,-1,24
 297 138 297 138 244 138 c 0,25,26
 230 138 230 138 221.5 138.5 c 128,-1,27
 213 139 213 139 201 143 c 1,28,-1
 117 -23 l 1,29,-1
 15 -23 l 1,30,-1
 125 195 l 1,31,32
 112 209 112 209 104.5 223.5 c 128,-1,33
 97 238 97 238 92 257 c 2,34,-1
 89 272 l 2,0,1
143 230 m 1,35,-1
 240 422 l 1,36,37
 215 422 215 422 193.5 412.5 c 128,-1,38
 172 403 172 403 156.5 386.5 c 128,-1,39
 141 370 141 370 132 347 c 128,-1,40
 123 324 123 324 123 298 c 0,41,42
 123 277 123 277 127.5 261.5 c 128,-1,43
 132 246 132 246 143 230 c 1,35,-1
365 298 m 0,44,45
 365 328 365 328 356 350.5 c 128,-1,46
 347 373 347 373 326 390 c 1,47,-1
 218 177 l 1,48,49
 226 174 226 174 230 173.5 c 128,-1,50
 234 173 234 173 244 173 c 0,51,52
 269 173 269 173 291 182.5 c 128,-1,53
 313 192 313 192 329.5 209 c 128,-1,54
 346 226 346 226 355.5 249 c 128,-1,55
 365 272 365 272 365 298 c 0,44,45
EndSplineSet
EndChar

StartChar: colon
Encoding: 58 58 46
Width: 422
Flags: W
LayerCount: 2
Back
Fore
SplineSet
224 99 m 1,0,-1
 272 98 l 1,1,-1
 272 447 l 1,2,-1
 224 447 l 1,3,-1
 224 406 l 2,4,5
 224 398 224 398 218 392 c 128,-1,6
 212 386 212 386 204 386 c 2,7,-1
 97 386 l 2,8,9
 89 386 89 386 83 392 c 128,-1,10
 77 398 77 398 77 406 c 2,11,-1
 78 509 l 2,12,13
 78 517 78 517 84 523 c 128,-1,14
 90 529 90 529 98 529 c 2,15,-1
 204 529 l 2,16,17
 212 529 212 529 218 523 c 128,-1,18
 224 517 224 517 224 509 c 2,19,-1
 224 456 l 1,20,-1
 272 456 l 1,21,-1
 272 487 l 2,22,23
 272 500 272 500 280 506 c 128,-1,24
 288 512 288 512 297.5 512 c 128,-1,25
 307 512 307 512 315 505.5 c 128,-1,26
 323 499 323 499 323 487 c 2,27,-1
 323 263 l 1,28,-1
 691 264 l 1,29,-1
 699 264 l 1,30,-1
 699 248 l 1,31,-1
 692 248 l 1,32,-1
 323 248 l 1,33,-1
 323 51 l 2,34,35
 323 39 323 39 315 32.5 c 128,-1,36
 307 26 307 26 297.5 26 c 128,-1,37
 288 26 288 26 280 32.5 c 128,-1,38
 272 39 272 39 272 51 c 2,39,-1
 272 88 l 1,40,-1
 224 88 l 1,41,-1
 224 41 l 2,42,43
 224 33 224 33 217.5 27.5 c 128,-1,44
 211 22 211 22 203 22 c 2,45,-1
 97 22 l 2,46,47
 89 22 89 22 83 28 c 128,-1,48
 77 34 77 34 77 42 c 2,49,-1
 77 146 l 2,50,51
 77 154 77 154 83 160 c 128,-1,52
 89 166 89 166 97 166 c 2,53,-1
 204 166 l 2,54,55
 212 166 212 166 218 160 c 128,-1,56
 224 154 224 154 224 146 c 2,57,-1
 223 99 l 1,58,-1
 224 99 l 1,0,-1
EndSplineSet
EndChar

StartChar: semicolon
Encoding: 59 59 47
Width: 422
Flags: W
LayerCount: 2
Back
Fore
SplineSet
272 99 m 1,0,-1
 272 447 l 1,1,-1
 224 447 l 1,2,-1
 224 406 l 2,3,4
 224 398 224 398 218 392 c 128,-1,5
 212 386 212 386 204 386 c 2,6,-1
 97 386 l 2,7,8
 89 386 89 386 83 391.5 c 128,-1,9
 77 397 77 397 77 405 c 2,10,-1
 77 509 l 2,11,12
 77 517 77 517 83.5 523 c 128,-1,13
 90 529 90 529 98 529 c 2,14,-1
 204 529 l 2,15,16
 212 529 212 529 218 523 c 128,-1,17
 224 517 224 517 224 509 c 2,18,-1
 224 456 l 1,19,-1
 272 456 l 1,20,-1
 272 487 l 2,21,22
 272 500 272 500 280 506 c 128,-1,23
 288 512 288 512 297.5 512 c 128,-1,24
 307 512 307 512 315 505.5 c 128,-1,25
 323 499 323 499 323 487 c 2,26,-1
 323 263 l 1,27,-1
 691 264 l 1,28,-1
 699 264 l 1,29,-1
 699 248 l 1,30,-1
 692 248 l 1,31,-1
 322 248 l 1,32,-1
 322 51 l 2,33,34
 322 39 322 39 314 32.5 c 128,-1,35
 306 26 306 26 297 26 c 128,-1,36
 288 26 288 26 280 32.5 c 128,-1,37
 272 39 272 39 272 51 c 2,38,-1
 272 87 l 1,39,-1
 223 87 l 1,40,-1
 223 42 l 2,41,42
 223 28 223 28 212 23 c 1,43,-1
 212 -48 l 2,44,45
 212 -56 212 -56 206 -62 c 128,-1,46
 200 -68 200 -68 192 -68 c 2,47,-1
 168 -68 l 1,48,-1
 119 -68 l 2,49,50
 111 -68 111 -68 105 -62 c 128,-1,51
 99 -56 99 -56 99 -48 c 256,52,53
 99 -40 99 -40 105 -34 c 128,-1,54
 111 -28 111 -28 119 -28 c 2,55,-1
 146 -27 l 1,56,-1
 146 23 l 1,57,-1
 96 23 l 2,58,59
 88 23 88 23 82 29 c 128,-1,60
 76 35 76 35 76 43 c 2,61,-1
 76 146 l 2,62,63
 77 154 77 154 82.5 160 c 128,-1,64
 88 166 88 166 96 166 c 2,65,-1
 203 166 l 2,66,67
 211 166 211 166 217 160 c 128,-1,68
 223 154 223 154 223 146 c 2,69,-1
 223 99 l 1,70,-1
 272 99 l 1,0,-1
EndSplineSet
EndChar

StartChar: less
Encoding: 60 60 48
Width: 1161
Flags: W
LayerCount: 2
Back
Fore
SplineSet
646 345 m 2,0,1
 657 334 657 334 655.5 321.5 c 128,-1,2
 654 309 654 309 646 301 c 128,-1,3
 638 293 638 293 625 291.5 c 128,-1,4
 612 290 612 290 601 301 c 2,5,-1
 386 517 l 1,6,-1
 596 727 l 2,7,8
 607 738 607 738 620 736.5 c 128,-1,9
 633 735 633 735 641 727 c 128,-1,10
 649 719 649 719 650.5 706.5 c 128,-1,11
 652 694 652 694 641 683 c 2,12,-1
 475 517 l 1,13,-1
 646 345 l 2,0,1
1065 492 m 256,14,15
 1065 390 1065 390 1028 300 c 128,-1,16
 991 210 991 210 927.5 143.5 c 128,-1,17
 864 77 864 77 778 38 c 128,-1,18
 692 -1 692 -1 595 -1 c 0,19,20
 502 -1 502 -1 420 35.5 c 128,-1,21
 338 72 338 72 275 133 c 1,22,-1
 335 183 l 1,23,24
 387 131 387 131 454 102 c 128,-1,25
 521 73 521 73 597 73 c 0,26,27
 677 73 677 73 747 106 c 128,-1,28
 817 139 817 139 869.5 196 c 128,-1,29
 922 253 922 253 952 329 c 128,-1,30
 982 405 982 405 982 492 c 256,31,32
 982 579 982 579 952 655.5 c 128,-1,33
 922 732 922 732 869.5 789 c 128,-1,34
 817 846 817 846 747 879 c 128,-1,35
 677 912 677 912 597 912 c 0,36,37
 498 912 498 912 415 863 c 128,-1,38
 332 814 332 814 279 733 c 1,39,-1
 227 772 l 1,40,41
 204 741 204 741 193 718 c 128,-1,42
 182 695 182 695 177 687 c 1,43,-1
 159 697 l 1,44,45
 169 721 169 721 185 744.5 c 128,-1,46
 201 768 201 768 218 791 c 0,47,48
 251 835 251 835 292.5 871 c 128,-1,49
 334 907 334 907 382 932.5 c 128,-1,50
 430 958 430 958 484 972 c 128,-1,51
 538 986 538 986 595 986 c 0,52,53
 692 986 692 986 778 947 c 128,-1,54
 864 908 864 908 927.5 841 c 128,-1,55
 991 774 991 774 1028 684 c 128,-1,56
 1065 594 1065 594 1065 492 c 256,14,15
224 846 m 1,57,58
 203 823 203 823 183.5 796.5 c 128,-1,59
 164 770 164 770 147 741 c 128,-1,60
 130 712 130 712 118 680 c 128,-1,61
 106 648 106 648 100 615 c 0,62,63
 92 570 92 570 94 526 c 128,-1,64
 96 482 96 482 106 440 c 128,-1,65
 116 398 116 398 134 359.5 c 128,-1,66
 152 321 152 321 175 288 c 1,67,-1
 107 245 l 1,68,69
 50 324 50 324 23 418 c 128,-1,70
 -4 512 -4 512 15 619 c 0,71,72
 22 660 22 660 36 700 c 128,-1,73
 50 740 50 740 69.5 777 c 128,-1,74
 89 814 89 814 113 846.5 c 128,-1,75
 137 879 137 879 164 906 c 1,76,-1
 214 863 l 1,77,78
 221 872 221 872 228 879 c 128,-1,79
 235 886 235 886 243.5 893.5 c 128,-1,80
 252 901 252 901 262.5 909 c 128,-1,81
 273 917 273 917 288 928 c 1,82,-1
 302 916 l 1,83,84
 279 898 279 898 258 880.5 c 128,-1,85
 237 863 237 863 225 846 c 1,86,-1
 224 846 l 1,57,58
1501 249 m 1,87,-1
 1115 249 l 1,88,-1
 1115 -67 l 1,89,-1
 208 -67 l 1,90,-1
 208 364 l 1,91,-1
 208 372 l 1,92,-1
 227 371 l 1,93,-1
 227 364 l 1,94,-1
 227 -50 l 1,95,-1
 1097 -50 l 1,96,-1
 1097 266 l 1,97,-1
 1501 266 l 1,98,-1
 1509 266 l 1,99,-1
 1509 249 l 1,100,-1
 1501 249 l 1,87,-1
EndSplineSet
EndChar

StartChar: equal
Encoding: 61 61 49
Width: 1161
Flags: W
LayerCount: 2
Back
Fore
SplineSet
732 578 m 2,0,-1
 732 552 l 1,1,-1
 406 552 l 2,2,3
 388 552 388 552 379 561.5 c 128,-1,4
 370 571 370 571 371 587 c 2,5,-1
 371 615 l 1,6,-1
 704 615 l 2,7,8
 725 615 725 615 728.5 604.5 c 128,-1,9
 732 594 732 594 732 578 c 2,0,-1
732 445 m 2,10,11
 732 429 732 429 723 419.5 c 128,-1,12
 714 410 714 410 696 410 c 2,13,-1
 371 410 l 1,14,-1
 370 436 l 2,15,16
 370 452 370 452 373.5 462.5 c 128,-1,17
 377 473 377 473 398 473 c 2,18,-1
 732 473 l 1,19,-1
 732 445 l 2,10,11
1065 492 m 256,20,21
 1065 390 1065 390 1028 300 c 128,-1,22
 991 210 991 210 927.5 143.5 c 128,-1,23
 864 77 864 77 778 38 c 128,-1,24
 692 -1 692 -1 595 -1 c 0,25,26
 502 -1 502 -1 420 35.5 c 128,-1,27
 338 72 338 72 275 133 c 1,28,-1
 335 183 l 1,29,30
 387 131 387 131 454 102 c 128,-1,31
 521 73 521 73 597 73 c 0,32,33
 677 73 677 73 747 106 c 128,-1,34
 817 139 817 139 869.5 196 c 128,-1,35
 922 253 922 253 952 329 c 128,-1,36
 982 405 982 405 982 492 c 256,37,38
 982 579 982 579 952 655.5 c 128,-1,39
 922 732 922 732 869.5 789 c 128,-1,40
 817 846 817 846 747 879 c 128,-1,41
 677 912 677 912 597 912 c 0,42,43
 498 912 498 912 415 863 c 128,-1,44
 332 814 332 814 279 733 c 1,45,-1
 227 772 l 1,46,47
 204 741 204 741 193 718 c 128,-1,48
 182 695 182 695 177 687 c 1,49,-1
 159 697 l 1,50,51
 169 721 169 721 185 744.5 c 128,-1,52
 201 768 201 768 218 791 c 0,53,54
 251 835 251 835 292.5 871 c 128,-1,55
 334 907 334 907 382 932.5 c 128,-1,56
 430 958 430 958 484 972 c 128,-1,57
 538 986 538 986 595 986 c 0,58,59
 692 986 692 986 778 947 c 128,-1,60
 864 908 864 908 927.5 841 c 128,-1,61
 991 774 991 774 1028 684 c 128,-1,62
 1065 594 1065 594 1065 492 c 256,20,21
224 846 m 1,63,64
 203 823 203 823 183.5 796.5 c 128,-1,65
 164 770 164 770 147 741 c 128,-1,66
 130 712 130 712 118 680 c 128,-1,67
 106 648 106 648 100 615 c 0,68,69
 92 570 92 570 94 526 c 128,-1,70
 96 482 96 482 106 440 c 128,-1,71
 116 398 116 398 134 359.5 c 128,-1,72
 152 321 152 321 175 288 c 1,73,-1
 107 245 l 1,74,75
 50 324 50 324 23 418 c 128,-1,76
 -4 512 -4 512 15 619 c 0,77,78
 22 660 22 660 36 700 c 128,-1,79
 50 740 50 740 69.5 777 c 128,-1,80
 89 814 89 814 113 846.5 c 128,-1,81
 137 879 137 879 164 906 c 1,82,-1
 214 863 l 1,83,84
 221 872 221 872 228 879 c 128,-1,85
 235 886 235 886 243.5 893.5 c 128,-1,86
 252 901 252 901 262.5 909 c 128,-1,87
 273 917 273 917 288 928 c 1,88,-1
 302 916 l 1,89,90
 279 898 279 898 258 880.5 c 128,-1,91
 237 863 237 863 225 846 c 1,92,-1
 224 846 l 1,63,64
1501 249 m 1,93,-1
 1115 249 l 1,94,-1
 1115 -67 l 1,95,-1
 208 -67 l 1,96,-1
 208 364 l 1,97,-1
 208 372 l 1,98,-1
 227 371 l 1,99,-1
 227 364 l 1,100,-1
 227 -50 l 1,101,-1
 1097 -50 l 1,102,-1
 1097 266 l 1,103,-1
 1501 266 l 1,104,-1
 1509 266 l 1,105,-1
 1509 249 l 1,106,-1
 1501 249 l 1,93,-1
EndSplineSet
EndChar

StartChar: greater
Encoding: 62 62 50
Width: 1161
Flags: W
LayerCount: 2
Back
Fore
SplineSet
720 501 m 1,0,-1
 504 285 l 2,1,2
 493 274 493 274 480.5 275.5 c 128,-1,3
 468 277 468 277 460 285 c 128,-1,4
 452 293 452 293 450.5 306 c 128,-1,5
 449 319 449 319 460 330 c 2,6,-1
 631 501 l 1,7,-1
 465 667 l 2,8,9
 454 678 454 678 455.5 691 c 128,-1,10
 457 704 457 704 465 712 c 128,-1,11
 473 720 473 720 485.5 721.5 c 128,-1,12
 498 723 498 723 509 712 c 2,13,-1
 720 501 l 1,0,-1
1065 492 m 256,14,15
 1065 390 1065 390 1028 300 c 128,-1,16
 991 210 991 210 927.5 143.5 c 128,-1,17
 864 77 864 77 778 38 c 128,-1,18
 692 -1 692 -1 595 -1 c 0,19,20
 502 -1 502 -1 420 35.5 c 128,-1,21
 338 72 338 72 275 133 c 1,22,-1
 335 183 l 1,23,24
 387 131 387 131 454 102 c 128,-1,25
 521 73 521 73 597 73 c 0,26,27
 677 73 677 73 747 106 c 128,-1,28
 817 139 817 139 869.5 196 c 128,-1,29
 922 253 922 253 952 329 c 128,-1,30
 982 405 982 405 982 492 c 256,31,32
 982 579 982 579 952 655.5 c 128,-1,33
 922 732 922 732 869.5 789 c 128,-1,34
 817 846 817 846 747 879 c 128,-1,35
 677 912 677 912 597 912 c 0,36,37
 498 912 498 912 415 863 c 128,-1,38
 332 814 332 814 279 733 c 1,39,-1
 227 772 l 1,40,41
 204 741 204 741 193 718 c 128,-1,42
 182 695 182 695 177 687 c 1,43,-1
 159 697 l 1,44,45
 169 721 169 721 185 744.5 c 128,-1,46
 201 768 201 768 218 791 c 0,47,48
 251 835 251 835 292.5 871 c 128,-1,49
 334 907 334 907 382 932.5 c 128,-1,50
 430 958 430 958 484 972 c 128,-1,51
 538 986 538 986 595 986 c 0,52,53
 692 986 692 986 778 947 c 128,-1,54
 864 908 864 908 927.5 841 c 128,-1,55
 991 774 991 774 1028 684 c 128,-1,56
 1065 594 1065 594 1065 492 c 256,14,15
224 846 m 1,57,58
 203 823 203 823 183.5 796.5 c 128,-1,59
 164 770 164 770 147 741 c 128,-1,60
 130 712 130 712 118 680 c 128,-1,61
 106 648 106 648 100 615 c 0,62,63
 92 570 92 570 94 526 c 128,-1,64
 96 482 96 482 106 440 c 128,-1,65
 116 398 116 398 134 359.5 c 128,-1,66
 152 321 152 321 175 288 c 1,67,-1
 107 245 l 1,68,69
 50 324 50 324 23 418 c 128,-1,70
 -4 512 -4 512 15 619 c 0,71,72
 22 660 22 660 36 700 c 128,-1,73
 50 740 50 740 69.5 777 c 128,-1,74
 89 814 89 814 113 846.5 c 128,-1,75
 137 879 137 879 164 906 c 1,76,-1
 214 863 l 1,77,78
 221 872 221 872 228 879 c 128,-1,79
 235 886 235 886 243.5 893.5 c 128,-1,80
 252 901 252 901 262.5 909 c 128,-1,81
 273 917 273 917 288 928 c 1,82,-1
 302 916 l 1,83,84
 279 898 279 898 258 880.5 c 128,-1,85
 237 863 237 863 225 846 c 1,86,-1
 224 846 l 1,57,58
1501 249 m 1,87,-1
 1115 249 l 1,88,-1
 1115 -67 l 1,89,-1
 208 -67 l 1,90,-1
 208 364 l 1,91,-1
 208 372 l 1,92,-1
 227 371 l 1,93,-1
 227 364 l 1,94,-1
 227 -50 l 1,95,-1
 1097 -50 l 1,96,-1
 1097 266 l 1,97,-1
 1501 266 l 1,98,-1
 1509 266 l 1,99,-1
 1509 249 l 1,100,-1
 1501 249 l 1,87,-1
EndSplineSet
EndChar

StartChar: question
Encoding: 63 63 51
Width: 1161
Flags: W
LayerCount: 2
Back
Fore
SplineSet
611 408 m 1,0,-1
 611 517 l 1,1,-1
 760 517 l 1,2,-1
 760 740 l 2,3,4
 760 756 760 756 760 767.5 c 128,-1,5
 760 779 760 779 756 786 c 128,-1,6
 752 793 752 793 743 796.5 c 128,-1,7
 734 800 734 800 715 800 c 2,8,-1
 577 800 l 1,9,-1
 414 800 l 1,10,-1
 414 689 l 1,11,-1
 414 667 l 1,12,-1
 500 667 l 1,13,-1
 500 690 l 2,14,15
 501 710 501 710 511.5 715.5 c 128,-1,16
 522 721 522 721 536 722 c 2,17,-1
 583 722 l 1,18,-1
 661 722 l 1,19,-1
 661 633 l 2,20,21
 661 612 661 612 645.5 601 c 128,-1,22
 630 590 630 590 607 589 c 0,23,24
 598 588 598 588 595.5 588 c 128,-1,25
 593 588 593 588 592 588.5 c 128,-1,26
 591 589 591 589 588 589 c 128,-1,27
 585 589 585 589 575 589 c 0,28,29
 549 587 549 587 533.5 580 c 128,-1,30
 518 573 518 573 518 548 c 2,31,-1
 518 361 l 1,32,-1
 611 361 l 1,33,-1
 611 408 l 1,0,-1
611 271 m 1,34,-1
 611 238 l 2,35,36
 611 224 611 224 598 224 c 2,37,-1
 530 224 l 2,38,39
 516 224 516 224 516 237 c 2,40,-1
 517 304 l 2,41,42
 517 318 517 318 530 318 c 2,43,-1
 598 318 l 2,44,45
 611 318 611 318 611 305 c 2,46,-1
 611 271 l 1,34,-1
1065 492 m 256,47,48
 1065 390 1065 390 1028 300 c 128,-1,49
 991 210 991 210 927.5 143.5 c 128,-1,50
 864 77 864 77 778 38 c 128,-1,51
 692 -1 692 -1 595 -1 c 0,52,53
 502 -1 502 -1 420 35.5 c 128,-1,54
 338 72 338 72 275 133 c 1,55,-1
 335 183 l 1,56,57
 387 131 387 131 454 102 c 128,-1,58
 521 73 521 73 597 73 c 0,59,60
 677 73 677 73 747 106 c 128,-1,61
 817 139 817 139 869.5 196 c 128,-1,62
 922 253 922 253 952 329 c 128,-1,63
 982 405 982 405 982 492 c 256,64,65
 982 579 982 579 952 655.5 c 128,-1,66
 922 732 922 732 869.5 789 c 128,-1,67
 817 846 817 846 747 879 c 128,-1,68
 677 912 677 912 597 912 c 0,69,70
 498 912 498 912 415 863 c 128,-1,71
 332 814 332 814 279 733 c 1,72,-1
 227 772 l 1,73,74
 204 741 204 741 193 718 c 128,-1,75
 182 695 182 695 177 687 c 1,76,-1
 159 697 l 1,77,78
 169 721 169 721 185 744.5 c 128,-1,79
 201 768 201 768 218 791 c 0,80,81
 251 835 251 835 292.5 871 c 128,-1,82
 334 907 334 907 382 932.5 c 128,-1,83
 430 958 430 958 484 972 c 128,-1,84
 538 986 538 986 595 986 c 0,85,86
 692 986 692 986 778 947 c 128,-1,87
 864 908 864 908 927.5 841 c 128,-1,88
 991 774 991 774 1028 684 c 128,-1,89
 1065 594 1065 594 1065 492 c 256,47,48
224 846 m 1,90,91
 203 823 203 823 183.5 796.5 c 128,-1,92
 164 770 164 770 147 741 c 128,-1,93
 130 712 130 712 118 680 c 128,-1,94
 106 648 106 648 100 615 c 0,95,96
 92 570 92 570 94 526 c 128,-1,97
 96 482 96 482 106 440 c 128,-1,98
 116 398 116 398 134 359.5 c 128,-1,99
 152 321 152 321 175 288 c 1,100,-1
 107 245 l 1,101,102
 50 324 50 324 23 418 c 128,-1,103
 -4 512 -4 512 15 619 c 0,104,105
 22 660 22 660 36 700 c 128,-1,106
 50 740 50 740 69.5 777 c 128,-1,107
 89 814 89 814 113 846.5 c 128,-1,108
 137 879 137 879 164 906 c 1,109,-1
 214 863 l 1,110,111
 221 872 221 872 228 879 c 128,-1,112
 235 886 235 886 243.5 893.5 c 128,-1,113
 252 901 252 901 262.5 909 c 128,-1,114
 273 917 273 917 288 928 c 1,115,-1
 302 916 l 1,116,117
 279 898 279 898 258 880.5 c 128,-1,118
 237 863 237 863 225 846 c 1,119,-1
 224 846 l 1,90,91
1501 249 m 1,120,-1
 1115 249 l 1,121,-1
 1115 -67 l 1,122,-1
 208 -67 l 1,123,-1
 208 364 l 1,124,-1
 208 372 l 1,125,-1
 227 371 l 1,126,-1
 227 364 l 1,127,-1
 227 -50 l 1,128,-1
 1097 -50 l 1,129,-1
 1097 266 l 1,130,-1
 1501 266 l 1,131,-1
 1509 266 l 1,132,-1
 1509 249 l 1,133,-1
 1501 249 l 1,120,-1
EndSplineSet
EndChar

StartChar: at
Encoding: 64 64 52
Width: 1161
Flags: W
LayerCount: 2
Back
Fore
SplineSet
714 364 m 2,0,1
 714 343 714 343 699 342 c 2,2,-1
 661 342 l 1,3,-1
 661 363 l 2,4,5
 659 351 659 351 646.5 347 c 128,-1,6
 634 343 634 343 626 343 c 2,7,-1
 499 342 l 2,8,9
 480 342 480 342 471.5 348.5 c 128,-1,10
 463 355 463 355 463 363 c 2,11,-1
 463 487 l 2,12,13
 463 510 463 510 472.5 524.5 c 128,-1,14
 482 539 482 539 505 539 c 2,15,-1
 661 539 l 1,16,-1
 661 607 l 2,17,18
 661 618 661 618 653.5 626 c 128,-1,19
 646 634 646 634 635 634 c 2,20,-1
 541 634 l 2,21,22
 530 634 530 634 526.5 629.5 c 128,-1,23
 523 625 523 625 523 617 c 2,24,-1
 523 582 l 1,25,-1
 478 582 l 2,26,27
 474 582 474 582 470 586.5 c 128,-1,28
 466 591 466 591 466 596 c 2,29,-1
 466 641 l 2,30,31
 466 648 466 648 471 655 c 128,-1,32
 476 662 476 662 483.5 668 c 128,-1,33
 491 674 491 674 499.5 677.5 c 128,-1,34
 508 681 508 681 516 681 c 2,35,-1
 650 681 l 2,36,37
 675 681 675 681 694.5 666 c 128,-1,38
 714 651 714 651 714 627 c 2,39,-1
 714 364 l 2,0,1
660 415 m 2,40,-1
 660 499 l 1,41,-1
 543 499 l 2,42,43
 523 499 523 499 516.5 487 c 128,-1,44
 510 475 510 475 510 465 c 2,45,-1
 510 399 l 2,46,47
 510 385 510 385 520 381.5 c 128,-1,48
 530 378 530 378 537 378 c 2,49,-1
 614 378 l 2,50,51
 626 378 626 378 643 387.5 c 128,-1,52
 660 397 660 397 660 415 c 2,40,-1
843 338 m 2,53,54
 843 321 843 321 834 301 c 128,-1,55
 825 281 825 281 808 263 c 128,-1,56
 791 245 791 245 767.5 233 c 128,-1,57
 744 221 744 221 716 221 c 2,58,-1
 608 221 l 1,59,-1
 458 221 l 2,60,61
 429 221 429 221 406 233 c 128,-1,62
 383 245 383 245 366.5 263 c 128,-1,63
 350 281 350 281 341 301 c 128,-1,64
 332 321 332 321 332 338 c 2,65,-1
 332 520 l 1,66,-1
 332 684 l 2,67,68
 332 700 332 700 341 720.5 c 128,-1,69
 350 741 350 741 366.5 758.5 c 128,-1,70
 383 776 383 776 406 788 c 128,-1,71
 429 800 429 800 458 800 c 2,72,-1
 596 800 l 1,73,-1
 716 800 l 2,74,75
 744 800 744 800 767.5 788 c 128,-1,76
 791 776 791 776 808 758.5 c 128,-1,77
 825 741 825 741 834 720.5 c 128,-1,78
 843 700 843 700 843 684 c 2,79,-1
 843 520 l 1,80,-1
 843 338 l 2,53,54
739 354 m 2,81,-1
 739 520 l 1,82,-1
 739 669 l 2,83,84
 739 678 739 678 733 688.5 c 128,-1,85
 727 699 727 699 716.5 708 c 128,-1,86
 706 717 706 717 691.5 723.5 c 128,-1,87
 677 730 677 730 660 730 c 2,88,-1
 605 730 l 1,89,-1
 516 730 l 2,90,91
 498 730 498 730 483.5 723.5 c 128,-1,92
 469 717 469 717 458 708 c 128,-1,93
 447 699 447 699 441 688.5 c 128,-1,94
 435 678 435 678 435 670 c 2,95,-1
 435 520 l 1,96,-1
 435 354 l 2,97,98
 435 345 435 345 441 334.5 c 128,-1,99
 447 324 447 324 457.5 315 c 128,-1,100
 468 306 468 306 483 300 c 128,-1,101
 498 294 498 294 515 294 c 2,102,-1
 659 294 l 2,103,104
 676 294 676 294 691 300 c 128,-1,105
 706 306 706 306 716.5 315 c 128,-1,106
 727 324 727 324 733 334.5 c 128,-1,107
 739 345 739 345 739 354 c 2,81,-1
1065 492 m 256,108,109
 1065 390 1065 390 1028 300 c 128,-1,110
 991 210 991 210 927.5 143.5 c 128,-1,111
 864 77 864 77 778 38 c 128,-1,112
 692 -1 692 -1 595 -1 c 0,113,114
 502 -1 502 -1 420 35.5 c 128,-1,115
 338 72 338 72 275 133 c 1,116,-1
 335 183 l 1,117,118
 387 131 387 131 454 102 c 128,-1,119
 521 73 521 73 597 73 c 0,120,121
 677 73 677 73 747 106 c 128,-1,122
 817 139 817 139 869.5 196 c 128,-1,123
 922 253 922 253 952 329 c 128,-1,124
 982 405 982 405 982 492 c 256,125,126
 982 579 982 579 952 655.5 c 128,-1,127
 922 732 922 732 869.5 789 c 128,-1,128
 817 846 817 846 747 879 c 128,-1,129
 677 912 677 912 597 912 c 0,130,131
 498 912 498 912 415 863 c 128,-1,132
 332 814 332 814 279 733 c 1,133,-1
 227 772 l 1,134,135
 204 741 204 741 193 718 c 128,-1,136
 182 695 182 695 177 687 c 1,137,-1
 159 697 l 1,138,139
 169 721 169 721 185 744.5 c 128,-1,140
 201 768 201 768 218 791 c 0,141,142
 251 835 251 835 292.5 871 c 128,-1,143
 334 907 334 907 382 932.5 c 128,-1,144
 430 958 430 958 484 972 c 128,-1,145
 538 986 538 986 595 986 c 0,146,147
 692 986 692 986 778 947 c 128,-1,148
 864 908 864 908 927.5 841 c 128,-1,149
 991 774 991 774 1028 684 c 128,-1,150
 1065 594 1065 594 1065 492 c 256,108,109
224 846 m 1,151,152
 203 823 203 823 183.5 796.5 c 128,-1,153
 164 770 164 770 147 741 c 128,-1,154
 130 712 130 712 118 680 c 128,-1,155
 106 648 106 648 100 615 c 0,156,157
 92 570 92 570 94 526 c 128,-1,158
 96 482 96 482 106 440 c 128,-1,159
 116 398 116 398 134 359.5 c 128,-1,160
 152 321 152 321 175 288 c 1,161,-1
 107 245 l 1,162,163
 50 324 50 324 23 418 c 128,-1,164
 -4 512 -4 512 15 619 c 0,165,166
 22 660 22 660 36 700 c 128,-1,167
 50 740 50 740 69.5 777 c 128,-1,168
 89 814 89 814 113 846.5 c 128,-1,169
 137 879 137 879 164 906 c 1,170,-1
 214 863 l 1,171,172
 221 872 221 872 228 879 c 128,-1,173
 235 886 235 886 243.5 893.5 c 128,-1,174
 252 901 252 901 262.5 909 c 128,-1,175
 273 917 273 917 288 928 c 1,176,-1
 302 916 l 1,177,178
 279 898 279 898 258 880.5 c 128,-1,179
 237 863 237 863 225 846 c 1,180,-1
 224 846 l 1,151,152
1501 249 m 1,181,-1
 1115 249 l 1,182,-1
 1115 -67 l 1,183,-1
 208 -67 l 1,184,-1
 208 364 l 1,185,-1
 208 372 l 1,186,-1
 227 371 l 1,187,-1
 227 364 l 1,188,-1
 227 -50 l 1,189,-1
 1097 -50 l 1,190,-1
 1097 266 l 1,191,-1
 1501 266 l 1,192,-1
 1509 266 l 1,193,-1
 1509 249 l 1,194,-1
 1501 249 l 1,181,-1
EndSplineSet
EndChar

StartChar: bracketleft
Encoding: 91 91 79
Width: 447
Flags: W
LayerCount: 2
Back
Fore
SplineSet
176 369 m 1,0,1
 197 370 197 370 216.5 362 c 128,-1,2
 236 354 236 354 251 340 c 128,-1,3
 266 326 266 326 275 307.5 c 128,-1,4
 284 289 284 289 284 268 c 2,5,-1
 284 263 l 1,6,-1
 832 263 l 1,7,-1
 840 263 l 1,8,-1
 840 249 l 1,9,-1
 832 249 l 1,10,-1
 282 248 l 1,11,12
 275 213 275 213 245 190 c 128,-1,13
 215 167 215 167 176 167 c 1,14,-1
 176 89 l 1,15,-1
 339 89 l 1,16,-1
 339 10 l 1,17,-1
 123 10 l 2,18,19
 103 11 103 11 91 26 c 128,-1,20
 79 41 79 41 77 62 c 2,21,-1
 77 997 l 1,22,-1
 339 998 l 1,23,-1
 339 922 l 1,24,-1
 216 922 l 2,25,26
 198 921 198 921 190 914 c 128,-1,27
 182 907 182 907 179 896 c 128,-1,28
 176 885 176 885 176.5 872.5 c 128,-1,29
 177 860 177 860 176 849 c 2,30,-1
 176 369 l 1,0,1
176 263 m 1,31,-1
 264 263 l 1,32,-1
 264 268 l 2,33,34
 264 299 264 299 240.5 324.5 c 128,-1,35
 217 350 217 350 176 350 c 1,36,-1
 176 263 l 1,31,-1
262 248 m 1,37,-1
 175 249 l 1,38,-1
 175 187 l 1,39,40
 204 187 204 187 229.5 204 c 128,-1,41
 255 221 255 221 262 248 c 1,37,-1
EndSplineSet
EndChar

StartChar: backslash
Encoding: 92 92 80
Width: 538
Flags: W
LayerCount: 2
Back
Fore
SplineSet
450 249 m 1,0,1
 446 230 446 230 438.5 215.5 c 128,-1,2
 431 201 431 201 417 187 c 1,3,-1
 527 -30 l 1,4,-1
 426 -30 l 1,5,-1
 341 136 l 1,6,7
 330 131 330 131 321 130.5 c 128,-1,8
 312 130 312 130 299 130 c 0,9,10
 266 130 266 130 237.5 142.5 c 128,-1,11
 209 155 209 155 188 177 c 128,-1,12
 167 199 167 199 155 228 c 128,-1,13
 143 257 143 257 143 290 c 0,14,15
 143 369 143 369 200 414 c 1,16,-1
 11 788 l 1,17,-1
 114 788 l 1,18,-1
 284 451 l 1,19,20
 290 452 290 452 291 451.5 c 128,-1,21
 292 451 292 451 299 451 c 0,22,23
 331 451 331 451 359.5 438 c 128,-1,24
 388 425 388 425 409 403.5 c 128,-1,25
 430 382 430 382 442.5 352.5 c 128,-1,26
 455 323 455 323 455 290 c 0,27,28
 455 282 455 282 455 276.5 c 128,-1,29
 455 271 455 271 453 264 c 1,30,-1
 779 264 l 1,31,-1
 779 249 l 1,32,-1
 450 249 l 1,0,1
399 222 m 1,33,34
 410 238 410 238 415 253.5 c 128,-1,35
 420 269 420 269 420 290 c 0,36,37
 420 316 420 316 411 339 c 128,-1,38
 402 362 402 362 386 379 c 128,-1,39
 370 396 370 396 348.5 405.5 c 128,-1,40
 327 415 327 415 302 415 c 1,41,-1
 399 222 l 1,33,34
178 290 m 0,42,43
 178 264 178 264 187.5 241.5 c 128,-1,44
 197 219 197 219 213.5 202 c 128,-1,45
 230 185 230 185 252 175 c 128,-1,46
 274 165 274 165 299 165 c 0,47,48
 308 165 308 165 312.5 165.5 c 128,-1,49
 317 166 317 166 325 169 c 1,50,-1
 216 382 l 1,51,52
 196 365 196 365 187 342.5 c 128,-1,53
 178 320 178 320 178 290 c 0,42,43
EndSplineSet
EndChar

StartChar: bracketright
Encoding: 93 93 81
Width: 419
Flags: W
LayerCount: 2
Back
Fore
SplineSet
199 167 m 1,0,1
 159 167 159 167 129.5 187.5 c 128,-1,2
 100 208 100 208 93 243 c 0,3,4
 93 245 93 245 92 255 c 128,-1,5
 91 265 91 265 91 267 c 0,6,7
 91 288 91 288 100 307 c 128,-1,8
 109 326 109 326 124 340 c 128,-1,9
 139 354 139 354 158.5 361.5 c 128,-1,10
 178 369 178 369 199 368 c 1,11,-1
 199 848 l 2,12,13
 198 860 198 860 198.5 872.5 c 128,-1,14
 199 885 199 885 196 895.5 c 128,-1,15
 193 906 193 906 185 913 c 128,-1,16
 177 920 177 920 159 921 c 2,17,-1
 36 921 l 1,18,-1
 36 997 l 1,19,-1
 297 997 l 1,20,-1
 297 62 l 2,21,22
 296 40 296 40 283.5 25 c 128,-1,23
 271 10 271 10 251 10 c 2,24,-1
 35 10 l 1,25,-1
 36 88 l 1,26,-1
 198 88 l 1,27,28
 198 104 198 104 198 109 c 128,-1,29
 198 114 198 114 198.5 118.5 c 128,-1,30
 199 123 199 123 199 132.5 c 128,-1,31
 199 142 199 142 199 167 c 1,0,1
198 353 m 1,32,33
 157 353 157 353 134 327.5 c 128,-1,34
 111 302 111 302 111 271 c 2,35,-1
 111 263 l 1,36,-1
 198 263 l 1,37,-1
 198 353 l 1,32,33
112 249 m 1,38,39
 119 222 119 222 144 204.5 c 128,-1,40
 169 187 169 187 198 187 c 1,41,-1
 198 249 l 1,42,-1
 112 249 l 1,38,39
EndSplineSet
EndChar

StartChar: asciicircum
Encoding: 94 94 82
Width: 593
Flags: W
LayerCount: 2
Back
Fore
SplineSet
287 316 m 1,0,1
 273 319 273 319 260.5 334.5 c 128,-1,2
 248 350 248 350 248 370 c 0,3,4
 248 393 248 393 264.5 409.5 c 128,-1,5
 281 426 281 426 305 426 c 0,6,7
 328 426 328 426 345 409.5 c 128,-1,8
 362 393 362 393 362 370 c 256,9,10
 362 347 362 347 346.5 331 c 128,-1,11
 331 315 331 315 307 315 c 1,12,-1
 307 263 l 1,13,-1
 832 263 l 1,14,-1
 840 263 l 1,15,-1
 840 249 l 1,16,-1
 832 249 l 1,17,-1
 307 249 l 1,18,-1
 307 211 l 1,19,-1
 478 211 l 1,20,-1
 488 211 l 1,21,-1
 488 191 l 1,22,-1
 478 191 l 1,23,-1
 287 191 l 1,24,-1
 287 249 l 1,25,-1
 82 249 l 1,26,-1
 21 249 l 1,27,-1
 61 330 l 1,28,-1
 299 811 l 1,29,30
 338 733 338 733 362 685 c 128,-1,31
 386 637 386 637 399.5 611 c 128,-1,32
 413 585 413 585 417.5 575.5 c 128,-1,33
 422 566 422 566 422 565.5 c 128,-1,34
 422 565 422 565 420 569 c 128,-1,35
 418 573 418 573 418 572.5 c 128,-1,36
 418 572 418 572 422.5 562.5 c 128,-1,37
 427 553 427 553 440.5 527 c 128,-1,38
 454 501 454 501 478 453 c 128,-1,39
 502 405 502 405 541 327 c 1,40,-1
 470 291 l 1,41,-1
 452 327 l 1,42,-1
 299 632 l 1,43,-1
 133 294 l 1,44,-1
 116 263 l 1,45,-1
 287 263 l 1,46,-1
 287 316 l 1,0,1
EndSplineSet
EndChar

StartChar: underscore
Encoding: 95 95 83
Width: 514
Flags: W
LayerCount: 2
Back
Fore
SplineSet
470 270 m 1,0,-1
 470 263 l 1,1,-1
 832 263 l 1,2,-1
 840 263 l 1,3,-1
 840 249 l 1,4,-1
 832 249 l 1,5,-1
 470 248 l 1,6,-1
 470 1 l 1,7,-1
 470 -7 l 1,8,-1
 419 -7 l 1,9,-1
 95 -7 l 1,10,-1
 52 -7 l 1,11,-1
 53 1 l 1,12,-1
 53 367 l 1,13,-1
 53 377 l 1,14,-1
 73 377 l 1,15,-1
 73 367 l 1,16,-1
 72 38 l 1,17,-1
 450 38 l 1,18,-1
 450 260 l 1,19,-1
 450 270 l 1,20,-1
 470 270 l 1,0,-1
EndSplineSet
EndChar

StartChar: grave
Encoding: 96 96 84
Width: 362
Flags: W
LayerCount: 2
Back
Fore
SplineSet
314 676 m 2,0,1
 326 671 326 671 329 661.5 c 128,-1,2
 332 652 332 652 328.5 643.5 c 128,-1,3
 325 635 325 635 316.5 629.5 c 128,-1,4
 308 624 308 624 296 629 c 2,5,-1
 64 717 l 2,6,7
 52 721 52 721 49 731 c 128,-1,8
 46 741 46 741 49.5 749.5 c 128,-1,9
 53 758 53 758 61.5 763 c 128,-1,10
 70 768 70 768 82 764 c 2,11,-1
 314 676 l 2,0,1
EndSplineSet
EndChar

StartChar: braceleft
Encoding: 123 123 111
Width: 555
Flags: W
LayerCount: 2
Back
Fore
SplineSet
217 125 m 2,0,1
 217 112 217 112 222 103 c 128,-1,2
 227 94 227 94 234.5 88 c 128,-1,3
 242 82 242 82 250.5 80 c 128,-1,4
 259 78 259 78 265 78 c 2,5,-1
 375 78 l 1,6,-1
 375 1 l 1,7,-1
 159 1 l 2,8,9
 139 1 139 1 127 15 c 128,-1,10
 115 29 115 29 113 50 c 2,11,-1
 113 268 l 2,12,13
 113 274 113 274 113.5 293 c 128,-1,14
 114 312 114 312 113.5 337.5 c 128,-1,15
 113 363 113 363 110 392 c 128,-1,16
 107 421 107 421 101 446.5 c 128,-1,17
 95 472 95 472 84.5 490.5 c 128,-1,18
 74 509 74 509 59 515 c 1,19,20
 82 521 82 521 93.5 551 c 128,-1,21
 105 581 105 581 109.5 619.5 c 128,-1,22
 114 658 114 658 113.5 695.5 c 128,-1,23
 113 733 113 733 113 754 c 2,24,-1
 113 901 l 2,25,26
 113 950 113 950 130 969.5 c 128,-1,27
 147 989 147 989 179 989 c 2,28,-1
 374 989 l 1,29,-1
 375 910 l 1,30,-1
 252 910 l 2,31,32
 234 909 234 909 226 902 c 128,-1,33
 218 895 218 895 215 884 c 128,-1,34
 212 873 212 873 212.5 860.5 c 128,-1,35
 213 848 213 848 212 837 c 2,36,-1
 212 758 l 2,37,38
 212 729 212 729 212 694 c 128,-1,39
 212 659 212 659 208.5 625 c 128,-1,40
 205 591 205 591 194.5 560 c 128,-1,41
 184 529 184 529 163 507 c 1,42,43
 186 488 186 488 197.5 458 c 128,-1,44
 209 428 209 428 213.5 395.5 c 128,-1,45
 218 363 218 363 217.5 332.5 c 128,-1,46
 217 302 217 302 217 283 c 2,47,-1
 217 125 l 2,0,1
805 263 m 1,48,-1
 813 263 l 1,49,-1
 813 248 l 1,50,-1
 805 248 l 1,51,-1
 267 248 l 1,52,-1
 267 137 l 1,53,-1
 247 138 l 1,54,-1
 247 375 l 1,55,-1
 267 375 l 1,56,-1
 267 263 l 1,57,-1
 805 263 l 1,48,-1
EndSplineSet
EndChar

StartChar: bar
Encoding: 124 124 112
Width: 555
Flags: W
LayerCount: 2
Back
Fore
SplineSet
328 939 m 1,0,-1
 328 12 l 1,1,-1
 328 -30 l 1,2,-1
 243 -30 l 1,3,-1
 243 13 l 1,4,-1
 243 939 l 1,5,-1
 243 981 l 1,6,-1
 328 981 l 1,7,-1
 328 939 l 1,0,-1
12 262 m 1,8,-1
 3 262 l 1,9,-1
 3 247 l 1,10,-1
 11 247 l 1,11,-1
 204 247 l 1,12,-1
 204 137 l 1,13,-1
 224 137 l 1,14,-1
 224 374 l 1,15,-1
 205 375 l 1,16,-1
 204 262 l 1,17,-1
 12 262 l 1,8,-1
805 263 m 1,18,-1
 813 263 l 1,19,-1
 813 248 l 1,20,-1
 805 248 l 1,21,-1
 367 248 l 1,22,-1
 367 137 l 1,23,-1
 347 138 l 1,24,-1
 347 375 l 1,25,-1
 367 375 l 1,26,-1
 367 263 l 1,27,-1
 805 263 l 1,18,-1
EndSplineSet
EndChar

StartChar: braceright
Encoding: 125 125 113
Width: 555
Flags: W
LayerCount: 2
Back
Fore
SplineSet
334 124 m 2,0,-1
 334 282 l 2,1,2
 334 301 334 301 333.5 331.5 c 128,-1,3
 333 362 333 362 337.5 394.5 c 128,-1,4
 342 427 342 427 353.5 457 c 128,-1,5
 365 487 365 487 388 506 c 1,6,7
 367 528 367 528 357 559 c 128,-1,8
 347 590 347 590 343 624 c 128,-1,9
 339 658 339 658 339 693 c 128,-1,10
 339 728 339 728 339 757 c 2,11,-1
 339 836 l 2,12,13
 338 847 338 847 338.5 859.5 c 128,-1,14
 339 872 339 872 336.5 883 c 128,-1,15
 334 894 334 894 326 901 c 128,-1,16
 318 908 318 908 300 909 c 2,17,-1
 177 909 l 1,18,-1
 177 988 l 1,19,-1
 373 988 l 2,20,21
 405 988 405 988 421.5 968.5 c 128,-1,22
 438 949 438 949 438 900 c 2,23,-1
 438 753 l 2,24,25
 438 732 438 732 438 694.5 c 128,-1,26
 438 657 438 657 442 618.5 c 128,-1,27
 446 580 446 580 457.5 550 c 128,-1,28
 469 520 469 520 492 514 c 1,29,30
 476 508 476 508 466.5 489 c 128,-1,31
 457 470 457 470 451 443.5 c 128,-1,32
 445 417 445 417 442 388 c 128,-1,33
 439 359 439 359 438.5 333.5 c 128,-1,34
 438 308 438 308 438 289.5 c 128,-1,35
 438 271 438 271 438 267 c 2,36,-1
 438 49 l 2,37,38
 436 28 436 28 424 14 c 128,-1,39
 412 0 412 0 392 0 c 2,40,-1
 176 0 l 1,41,-1
 177 76 l 1,42,-1
 287 75 l 2,43,44
 301 75 301 75 317.5 86.5 c 128,-1,45
 334 98 334 98 334 124 c 2,0,-1
9 262 m 1,46,-1
 1 262 l 1,47,-1
 1 247 l 1,48,-1
 9 247 l 1,49,-1
 284 247 l 1,50,-1
 284 137 l 1,51,-1
 304 137 l 1,52,-1
 304 374 l 1,53,-1
 284 374 l 1,54,-1
 284 262 l 1,55,-1
 9 262 l 1,46,-1
EndSplineSet
EndChar

StartChar: asciitilde
Encoding: 126 126 114
Width: 498
Flags: W
LayerCount: 2
Back
Fore
SplineSet
30 209 m 2,0,1
 30 220 30 220 40.5 228.5 c 128,-1,2
 51 237 51 237 65 237 c 2,3,-1
 252 237 l 2,4,5
 266 237 266 237 276.5 228.5 c 128,-1,6
 287 220 287 220 287 209 c 2,7,-1
 287 147 l 1,8,-1
 398 147 l 1,9,-1
 398 179 l 2,10,11
 398 193 398 193 409 200 c 128,-1,12
 420 207 420 207 433 207 c 128,-1,13
 446 207 446 207 457 200 c 128,-1,14
 468 193 468 193 468 179 c 2,15,-1
 468 119 l 2,16,17
 468 108 468 108 457.5 99.5 c 128,-1,18
 447 91 447 91 433 91 c 2,19,-1
 252 91 l 2,20,21
 238 91 238 91 227.5 99.5 c 128,-1,22
 217 108 217 108 217 119 c 2,23,-1
 217 181 l 1,24,-1
 100 181 l 1,25,-1
 100 159 l 2,26,27
 100 145 100 145 89 137.5 c 128,-1,28
 78 130 78 130 65 130 c 128,-1,29
 52 130 52 130 41 137.5 c 128,-1,30
 30 145 30 145 30 159 c 2,31,-1
 30 209 l 2,0,1
EndSplineSet
EndChar

StartChar: Ccedilla
Encoding: 8218 8218 117
Width: 1161
Flags: W
LayerCount: 2
Back
Fore
SplineSet
750 400 m 2,0,-1
 750 336 l 2,1,2
 750 327 750 327 744.5 316.5 c 128,-1,3
 739 306 739 306 730.5 296.5 c 128,-1,4
 722 287 722 287 711 281 c 128,-1,5
 700 275 700 275 689 275 c 2,6,-1
 558 275 l 1,7,-1
 558 196 l 1,8,-1
 509 196 l 1,9,-1
 509 172 l 1,10,-1
 576 172 l 1,11,-1
 576 130 l 1,12,-1
 483 130 l 2,13,14
 465 130 465 130 465 146 c 2,15,-1
 465 210 l 2,16,17
 465 228 465 228 485 228 c 2,18,-1
 506 228 l 1,19,-1
 506 275 l 1,20,21
 474 275 474 275 458 283.5 c 128,-1,22
 442 292 442 292 435 309 c 128,-1,23
 428 326 428 326 428 351.5 c 128,-1,24
 428 377 428 377 428 411 c 2,25,-1
 428 708 l 2,26,27
 428 747 428 747 453 773.5 c 128,-1,28
 478 800 478 800 538 800 c 2,29,-1
 636 800 l 2,30,31
 655 800 655 800 675.5 796 c 128,-1,32
 696 792 696 792 712 782.5 c 128,-1,33
 728 773 728 773 738.5 757.5 c 128,-1,34
 749 742 749 742 749 720 c 2,35,-1
 749 613 l 1,36,-1
 703 613 l 2,37,38
 696 614 696 614 687 617.5 c 128,-1,39
 678 621 678 621 678 634 c 2,40,-1
 678 665 l 2,41,42
 678 693 678 693 663 703 c 128,-1,43
 648 713 648 713 635 713 c 2,44,-1
 500 713 l 1,45,-1
 501 397 l 2,46,47
 501 370 501 370 506.5 356.5 c 128,-1,48
 512 343 512 343 523.5 338 c 128,-1,49
 535 333 535 333 552 333 c 128,-1,50
 569 333 569 333 590 333 c 2,51,-1
 681 333 l 1,52,-1
 681 401 l 1,53,-1
 681 432 l 1,54,-1
 719 432 l 2,55,56
 739 432 739 432 744.5 423.5 c 128,-1,57
 750 415 750 415 750 400 c 2,0,-1
164 44 m 2,58,-1
 164 21 l 2,59,60
 164 15 164 15 157.5 7.5 c 128,-1,61
 151 0 151 0 143 0 c 2,62,-1
 97 0 l 1,63,-1
 97 -28 l 1,64,-1
 80 -28 l 1,65,-1
 80 -36 l 1,66,-1
 103 -36 l 1,67,-1
 103 -51 l 1,68,-1
 71 -51 l 2,69,70
 64 -51 64 -51 64 -45 c 2,71,-1
 64 -23 l 2,72,73
 64 -16 64 -16 72 -16 c 2,74,-1
 79 -16 l 1,75,-1
 79 0 l 1,76,77
 68 0 68 0 62 3 c 128,-1,78
 56 6 56 6 53.5 12 c 128,-1,79
 51 18 51 18 51 27 c 128,-1,80
 51 36 51 36 51 48 c 0,81,82
 51 50 51 50 51 66 c 128,-1,83
 51 82 51 82 50.5 100 c 128,-1,84
 50 118 50 118 50 133.5 c 128,-1,85
 50 149 50 149 50 151 c 0,86,87
 50 165 50 165 59.5 174.5 c 128,-1,88
 69 184 69 184 90 184 c 2,89,-1
 124 184 l 2,90,91
 138 184 138 184 151 178 c 128,-1,92
 164 172 164 172 164 156 c 2,93,-1
 164 118 l 1,94,-1
 148 118 l 2,95,96
 145 119 145 119 142 120 c 128,-1,97
 139 121 139 121 139 126 c 2,98,-1
 139 136 l 2,99,100
 139 146 139 146 134 149.5 c 128,-1,101
 129 153 129 153 124 153 c 2,102,-1
 77 153 l 1,103,-1
 77 43 l 2,104,105
 77 23 77 23 85 21.5 c 128,-1,106
 93 20 93 20 108 20 c 2,107,-1
 140 20 l 1,108,-1
 140 44 l 1,109,-1
 140 55 l 1,110,-1
 153 55 l 2,111,112
 161 55 161 55 162.5 52 c 128,-1,113
 164 49 164 49 164 44 c 2,58,-1
1065 492 m 256,114,115
 1065 390 1065 390 1028 300 c 128,-1,116
 991 210 991 210 927.5 143.5 c 128,-1,117
 864 77 864 77 778 38 c 128,-1,118
 692 -1 692 -1 595 -1 c 0,119,120
 502 -1 502 -1 420 35.5 c 128,-1,121
 338 72 338 72 275 133 c 1,122,-1
 335 183 l 1,123,124
 387 131 387 131 454 102 c 128,-1,125
 521 73 521 73 597 73 c 0,126,127
 677 73 677 73 747 106 c 128,-1,128
 817 139 817 139 869.5 196 c 128,-1,129
 922 253 922 253 952 329 c 128,-1,130
 982 405 982 405 982 492 c 256,131,132
 982 579 982 579 952 655.5 c 128,-1,133
 922 732 922 732 869.5 789 c 128,-1,134
 817 846 817 846 747 879 c 128,-1,135
 677 912 677 912 597 912 c 0,136,137
 498 912 498 912 415 863 c 128,-1,138
 332 814 332 814 279 733 c 1,139,-1
 227 772 l 1,140,141
 204 741 204 741 193 718 c 128,-1,142
 182 695 182 695 177 687 c 1,143,-1
 159 697 l 1,144,145
 169 721 169 721 185 744.5 c 128,-1,146
 201 768 201 768 218 791 c 0,147,148
 251 835 251 835 292.5 871 c 128,-1,149
 334 907 334 907 382 932.5 c 128,-1,150
 430 958 430 958 484 972 c 128,-1,151
 538 986 538 986 595 986 c 0,152,153
 692 986 692 986 778 947 c 128,-1,154
 864 908 864 908 927.5 841 c 128,-1,155
 991 774 991 774 1028 684 c 128,-1,156
 1065 594 1065 594 1065 492 c 256,114,115
224 846 m 1,157,158
 203 823 203 823 183.5 796.5 c 128,-1,159
 164 770 164 770 147 741 c 128,-1,160
 130 712 130 712 118 680 c 128,-1,161
 106 648 106 648 100 615 c 0,162,163
 92 570 92 570 94 526 c 128,-1,164
 96 482 96 482 106 440 c 128,-1,165
 116 398 116 398 134 359.5 c 128,-1,166
 152 321 152 321 175 288 c 1,167,-1
 107 245 l 1,168,169
 50 324 50 324 23 418 c 128,-1,170
 -4 512 -4 512 15 619 c 0,171,172
 22 660 22 660 36 700 c 128,-1,173
 50 740 50 740 69.5 777 c 128,-1,174
 89 814 89 814 113 846.5 c 128,-1,175
 137 879 137 879 164 906 c 1,176,-1
 214 863 l 1,177,178
 221 872 221 872 228 879 c 128,-1,179
 235 886 235 886 243.5 893.5 c 128,-1,180
 252 901 252 901 262.5 909 c 128,-1,181
 273 917 273 917 288 928 c 1,182,-1
 302 916 l 1,183,184
 279 898 279 898 258 880.5 c 128,-1,185
 237 863 237 863 225 846 c 1,186,-1
 224 846 l 1,157,158
1501 249 m 1,187,-1
 1115 249 l 1,188,-1
 1115 -67 l 1,189,-1
 208 -67 l 1,190,-1
 208 364 l 1,191,-1
 208 372 l 1,192,-1
 227 371 l 1,193,-1
 227 364 l 1,194,-1
 227 -50 l 1,195,-1
 1097 -50 l 1,196,-1
 1097 266 l 1,197,-1
 1501 266 l 1,198,-1
 1509 266 l 1,199,-1
 1509 249 l 1,200,-1
 1501 249 l 1,187,-1
EndSplineSet
EndChar

StartChar: dagger
Encoding: 160 160 147
Width: 1161
Flags: W
LayerCount: 2
Back
Fore
SplineSet
701 686 m 1,0,-1
 701 626 l 1,1,-1
 604 626 l 1,2,-1
 604 218 l 1,3,-1
 536 218 l 1,4,-1
 536 622 l 1,5,-1
 438 621 l 1,6,-1
 438 686 l 1,7,-1
 536 686 l 1,8,-1
 536 797 l 1,9,-1
 604 797 l 1,10,-1
 604 686 l 1,11,-1
 701 686 l 1,0,-1
141 164 m 1,12,-1
 141 143 l 1,13,-1
 107 143 l 1,14,-1
 107 0 l 1,15,-1
 83 0 l 1,16,-1
 83 141 l 1,17,-1
 49 141 l 1,18,-1
 49 164 l 1,19,-1
 83 164 l 1,20,-1
 83 203 l 1,21,-1
 107 203 l 1,22,-1
 107 164 l 1,23,-1
 141 164 l 1,12,-1
1065 492 m 256,24,25
 1065 390 1065 390 1028 300 c 128,-1,26
 991 210 991 210 927.5 143.5 c 128,-1,27
 864 77 864 77 778 38 c 128,-1,28
 692 -1 692 -1 595 -1 c 0,29,30
 502 -1 502 -1 420 35.5 c 128,-1,31
 338 72 338 72 275 133 c 1,32,-1
 335 183 l 1,33,34
 387 131 387 131 454 102 c 128,-1,35
 521 73 521 73 597 73 c 0,36,37
 677 73 677 73 747 106 c 128,-1,38
 817 139 817 139 869.5 196 c 128,-1,39
 922 253 922 253 952 329 c 128,-1,40
 982 405 982 405 982 492 c 256,41,42
 982 579 982 579 952 655.5 c 128,-1,43
 922 732 922 732 869.5 789 c 128,-1,44
 817 846 817 846 747 879 c 128,-1,45
 677 912 677 912 597 912 c 0,46,47
 498 912 498 912 415 863 c 128,-1,48
 332 814 332 814 279 733 c 1,49,-1
 227 772 l 1,50,51
 204 741 204 741 193 718 c 128,-1,52
 182 695 182 695 177 687 c 1,53,-1
 159 697 l 1,54,55
 169 721 169 721 185 744.5 c 128,-1,56
 201 768 201 768 218 791 c 0,57,58
 251 835 251 835 292.5 871 c 128,-1,59
 334 907 334 907 382 932.5 c 128,-1,60
 430 958 430 958 484 972 c 128,-1,61
 538 986 538 986 595 986 c 0,62,63
 692 986 692 986 778 947 c 128,-1,64
 864 908 864 908 927.5 841 c 128,-1,65
 991 774 991 774 1028 684 c 128,-1,66
 1065 594 1065 594 1065 492 c 256,24,25
224 846 m 1,67,68
 203 823 203 823 183.5 796.5 c 128,-1,69
 164 770 164 770 147 741 c 128,-1,70
 130 712 130 712 118 680 c 128,-1,71
 106 648 106 648 100 615 c 0,72,73
 92 570 92 570 94 526 c 128,-1,74
 96 482 96 482 106 440 c 128,-1,75
 116 398 116 398 134 359.5 c 128,-1,76
 152 321 152 321 175 288 c 1,77,-1
 107 245 l 1,78,79
 50 324 50 324 23 418 c 128,-1,80
 -4 512 -4 512 15 619 c 0,81,82
 22 660 22 660 36 700 c 128,-1,83
 50 740 50 740 69.5 777 c 128,-1,84
 89 814 89 814 113 846.5 c 128,-1,85
 137 879 137 879 164 906 c 1,86,-1
 214 863 l 1,87,88
 221 872 221 872 228 879 c 128,-1,89
 235 886 235 886 243.5 893.5 c 128,-1,90
 252 901 252 901 262.5 909 c 128,-1,91
 273 917 273 917 288 928 c 1,92,-1
 302 916 l 1,93,94
 279 898 279 898 258 880.5 c 128,-1,95
 237 863 237 863 225 846 c 1,96,-1
 224 846 l 1,67,68
1501 249 m 1,97,-1
 1115 249 l 1,98,-1
 1115 -67 l 1,99,-1
 208 -67 l 1,100,-1
 208 364 l 1,101,-1
 208 372 l 1,102,-1
 227 371 l 1,103,-1
 227 364 l 1,104,-1
 227 -50 l 1,105,-1
 1097 -50 l 1,106,-1
 1097 266 l 1,107,-1
 1501 266 l 1,108,-1
 1509 266 l 1,109,-1
 1509 249 l 1,110,-1
 1501 249 l 1,97,-1
EndSplineSet
EndChar

StartChar: degree
Encoding: 161 161 148
Width: 299
Flags: W
LayerCount: 2
Back
Fore
SplineSet
273 547 m 2,0,1
 273 540 273 540 269 532 c 128,-1,2
 265 524 265 524 257.5 516.5 c 128,-1,3
 250 509 250 509 240 504 c 128,-1,4
 230 499 230 499 217 499 c 2,5,-1
 170 499 l 1,6,-1
 103 499 l 2,7,8
 91 499 91 499 80.5 504 c 128,-1,9
 70 509 70 509 63 516.5 c 128,-1,10
 56 524 56 524 52 532 c 128,-1,11
 48 540 48 540 48 547 c 2,12,-1
 48 621 l 2,13,14
 48 643 48 643 47.5 662.5 c 128,-1,15
 47 682 47 682 47 687 c 0,16,17
 47 701 47 701 62.5 717.5 c 128,-1,18
 78 734 78 734 103 734 c 2,19,-1
 164 734 l 1,20,-1
 217 734 l 2,21,22
 243 734 243 734 258 717.5 c 128,-1,23
 273 701 273 701 273 687 c 2,24,-1
 273 621 l 1,25,-1
 273 547 l 2,0,1
227 553 m 2,26,-1
 227 621 l 1,27,-1
 227 681 l 2,28,29
 227 689 227 689 217.5 697.5 c 128,-1,30
 208 706 208 706 192 706 c 2,31,-1
 168 706 l 1,32,-1
 129 706 l 2,33,34
 113 706 113 706 103 697.5 c 128,-1,35
 93 689 93 689 93 682 c 2,36,-1
 93 621 l 1,37,-1
 93 553 l 2,38,39
 93 546 93 546 103 537.5 c 128,-1,40
 113 529 113 529 129 529 c 2,41,-1
 192 529 l 2,42,43
 207 529 207 529 217 537.5 c 128,-1,44
 227 546 227 546 227 553 c 2,26,-1
119 622 m 256,45,46
 119 639 119 639 131.5 651.5 c 128,-1,47
 144 664 144 664 161 664 c 256,48,49
 178 664 178 664 190 651.5 c 128,-1,50
 202 639 202 639 202 622 c 256,51,52
 202 605 202 605 190 592.5 c 128,-1,53
 178 580 178 580 161 580 c 256,54,55
 144 580 144 580 131.5 592.5 c 128,-1,56
 119 605 119 605 119 622 c 256,45,46
EndSplineSet
EndChar

StartChar: cent
Encoding: 162 162 149
Width: 1161
Flags: W
LayerCount: 2
Back
Fore
SplineSet
754 359 m 2,0,-1
 754 288 l 2,1,2
 754 278 754 278 748.5 266 c 128,-1,3
 743 254 743 254 734.5 244 c 128,-1,4
 726 234 726 234 715 227.5 c 128,-1,5
 704 221 704 221 693 221 c 2,6,-1
 630 221 l 1,7,8
 628 207 628 207 617 199.5 c 128,-1,9
 606 192 606 192 595 191 c 2,10,-1
 558 191 l 1,11,-1
 557 221 l 1,12,-1
 509 221 l 2,13,14
 477 221 477 221 460.5 230.5 c 128,-1,15
 444 240 444 240 437 258.5 c 128,-1,16
 430 277 430 277 429.5 305 c 128,-1,17
 429 333 429 333 429 371 c 2,18,-1
 429 697 l 2,19,20
 429 740 429 740 455.5 770 c 128,-1,21
 482 800 482 800 542 800 c 2,22,-1
 557 800 l 1,23,24
 557 836 557 836 594 835 c 2,25,-1
 631 835 l 1,26,-1
 631 800 l 1,27,-1
 640 800 l 2,28,29
 659 800 659 800 679.5 795.5 c 128,-1,30
 700 791 700 791 716 780.5 c 128,-1,31
 732 770 732 770 742.5 753.5 c 128,-1,32
 753 737 753 737 753 712 c 2,33,-1
 753 593 l 1,34,-1
 707 593 l 2,35,36
 700 595 700 595 691 599 c 128,-1,37
 682 603 682 603 682 617 c 2,38,-1
 682 650 l 2,39,40
 682 681 682 681 667 692.5 c 128,-1,41
 652 704 652 704 638 704 c 2,42,-1
 631 704 l 1,43,-1
 631 284 l 1,44,-1
 685 284 l 1,45,-1
 685 359 l 1,46,-1
 685 394 l 1,47,-1
 723 394 l 2,48,49
 743 394 743 394 748.5 384.5 c 128,-1,50
 754 375 754 375 754 359 c 2,0,-1
558 704 m 1,51,-1
 505 704 l 1,52,-1
 505 355 l 2,53,54
 505 332 505 332 508 318 c 128,-1,55
 511 304 511 304 517.5 296.5 c 128,-1,56
 524 289 524 289 534 287 c 128,-1,57
 544 285 544 285 557 285 c 1,58,-1
 558 704 l 1,51,-1
165 48 m 2,59,-1
 165 23 l 2,60,61
 165 16 165 16 158.5 8 c 128,-1,62
 152 0 152 0 144 0 c 2,63,-1
 122 0 l 1,64,65
 120 -9 120 -9 109 -11 c 2,66,-1
 96 -11 l 1,67,-1
 96 0 l 1,68,-1
 80 0 l 2,69,70
 69 0 69 0 63 3 c 128,-1,71
 57 6 57 6 54.5 12.5 c 128,-1,72
 52 19 52 19 52 29 c 128,-1,73
 52 39 52 39 52 52 c 2,74,-1
 52 167 l 2,75,76
 51 182 51 182 60.5 192 c 128,-1,77
 70 202 70 202 91 202 c 2,78,-1
 96 202 l 1,79,80
 96 215 96 215 109 215 c 2,81,-1
 122 215 l 1,82,-1
 122 202 l 1,83,-1
 125 202 l 2,84,85
 139 203 139 203 152 196 c 128,-1,86
 165 189 165 189 165 172 c 2,87,-1
 165 130 l 1,88,-1
 149 130 l 2,89,90
 146 131 146 131 143 132.5 c 128,-1,91
 140 134 140 134 140 139 c 2,92,-1
 140 150 l 2,93,94
 140 161 140 161 135 165 c 128,-1,95
 130 169 130 169 125 169 c 2,96,-1
 122 169 l 1,97,-1
 122 22 l 1,98,-1
 141 22 l 1,99,-1
 141 48 l 1,100,-1
 141 60 l 1,101,-1
 154 60 l 2,102,103
 162 61 162 61 163.5 57.5 c 128,-1,104
 165 54 165 54 165 48 c 2,59,-1
96 169 m 1,105,-1
 78 169 l 1,106,-1
 78 47 l 2,107,108
 78 30 78 30 82.5 26 c 128,-1,109
 87 22 87 22 96 22 c 1,110,-1
 96 169 l 1,105,-1
1065 492 m 256,111,112
 1065 390 1065 390 1028 300 c 128,-1,113
 991 210 991 210 927.5 143.5 c 128,-1,114
 864 77 864 77 778 38 c 128,-1,115
 692 -1 692 -1 595 -1 c 0,116,117
 502 -1 502 -1 420 35.5 c 128,-1,118
 338 72 338 72 275 133 c 1,119,-1
 335 183 l 1,120,121
 387 131 387 131 454 102 c 128,-1,122
 521 73 521 73 597 73 c 0,123,124
 677 73 677 73 747 106 c 128,-1,125
 817 139 817 139 869.5 196 c 128,-1,126
 922 253 922 253 952 329 c 128,-1,127
 982 405 982 405 982 492 c 256,128,129
 982 579 982 579 952 655.5 c 128,-1,130
 922 732 922 732 869.5 789 c 128,-1,131
 817 846 817 846 747 879 c 128,-1,132
 677 912 677 912 597 912 c 0,133,134
 498 912 498 912 415 863 c 128,-1,135
 332 814 332 814 279 733 c 1,136,-1
 227 772 l 1,137,138
 204 741 204 741 193 718 c 128,-1,139
 182 695 182 695 177 687 c 1,140,-1
 159 697 l 1,141,142
 169 721 169 721 185 744.5 c 128,-1,143
 201 768 201 768 218 791 c 0,144,145
 251 835 251 835 292.5 871 c 128,-1,146
 334 907 334 907 382 932.5 c 128,-1,147
 430 958 430 958 484 972 c 128,-1,148
 538 986 538 986 595 986 c 0,149,150
 692 986 692 986 778 947 c 128,-1,151
 864 908 864 908 927.5 841 c 128,-1,152
 991 774 991 774 1028 684 c 128,-1,153
 1065 594 1065 594 1065 492 c 256,111,112
224 846 m 1,154,155
 203 823 203 823 183.5 796.5 c 128,-1,156
 164 770 164 770 147 741 c 128,-1,157
 130 712 130 712 118 680 c 128,-1,158
 106 648 106 648 100 615 c 0,159,160
 92 570 92 570 94 526 c 128,-1,161
 96 482 96 482 106 440 c 128,-1,162
 116 398 116 398 134 359.5 c 128,-1,163
 152 321 152 321 175 288 c 1,164,-1
 107 245 l 1,165,166
 50 324 50 324 23 418 c 128,-1,167
 -4 512 -4 512 15 619 c 0,168,169
 22 660 22 660 36 700 c 128,-1,170
 50 740 50 740 69.5 777 c 128,-1,171
 89 814 89 814 113 846.5 c 128,-1,172
 137 879 137 879 164 906 c 1,173,-1
 214 863 l 1,174,175
 221 872 221 872 228 879 c 128,-1,176
 235 886 235 886 243.5 893.5 c 128,-1,177
 252 901 252 901 262.5 909 c 128,-1,178
 273 917 273 917 288 928 c 1,179,-1
 302 916 l 1,180,181
 279 898 279 898 258 880.5 c 128,-1,182
 237 863 237 863 225 846 c 1,183,-1
 224 846 l 1,154,155
1501 249 m 1,184,-1
 1115 249 l 1,185,-1
 1115 -67 l 1,186,-1
 208 -67 l 1,187,-1
 208 364 l 1,188,-1
 208 372 l 1,189,-1
 227 371 l 1,190,-1
 227 364 l 1,191,-1
 227 -50 l 1,192,-1
 1097 -50 l 1,193,-1
 1097 266 l 1,194,-1
 1501 266 l 1,195,-1
 1509 266 l 1,196,-1
 1509 249 l 1,197,-1
 1501 249 l 1,184,-1
EndSplineSet
EndChar

StartChar: sterling
Encoding: 163 163 150
Width: 1161
Flags: W
LayerCount: 2
Back
Fore
SplineSet
757 293 m 1,0,-1
 757 247 l 2,1,2
 757 231 757 231 749.5 226 c 128,-1,3
 742 221 742 221 726 221 c 2,4,-1
 505 221 l 1,5,-1
 504 488 l 1,6,-1
 453 489 l 2,7,8
 438 488 438 488 429.5 495 c 128,-1,9
 421 502 421 502 421 514 c 2,10,-1
 421 561 l 1,11,-1
 504 561 l 1,12,-1
 504 769 l 2,13,14
 504 784 504 784 513 792 c 128,-1,15
 522 800 522 800 543 800 c 2,16,-1
 648 800 l 2,17,18
 655 800 655 800 660 795.5 c 128,-1,19
 665 791 665 791 665 781 c 2,20,-1
 665 728 l 1,21,-1
 608 727 l 2,22,23
 597 727 597 727 593 720.5 c 128,-1,24
 589 714 589 714 589 705 c 2,25,-1
 589 561 l 1,26,-1
 662 561 l 2,27,28
 677 561 677 561 683 556 c 128,-1,29
 689 551 689 551 689 535 c 2,30,-1
 689 488 l 1,31,-1
 589 488 l 1,32,-1
 589 321 l 2,33,34
 589 308 589 308 597 300.5 c 128,-1,35
 605 293 605 293 617 293 c 2,36,-1
 757 293 l 1,0,-1
146 25 m 1,37,-1
 146 9 l 2,38,39
 146 0 146 0 135 0 c 2,40,-1
 58 0 l 1,41,-1
 58 94 l 1,42,-1
 40 94 l 2,43,44
 29 94 29 94 29 103 c 2,45,-1
 29 119 l 1,46,-1
 58 119 l 1,47,-1
 58 192 l 2,48,49
 58 203 58 203 72 203 c 2,50,-1
 108 203 l 2,51,52
 114 203 114 203 114 196 c 2,53,-1
 114 177 l 1,54,-1
 94 177 l 2,55,56
 87 177 87 177 87 170 c 2,57,-1
 87 119 l 1,58,-1
 113 119 l 2,59,60
 122 119 122 119 122 110 c 2,61,-1
 122 94 l 1,62,-1
 87 94 l 1,63,-1
 87 35 l 2,64,65
 87 25 87 25 97 25 c 2,66,-1
 146 25 l 1,37,-1
1065 492 m 256,67,68
 1065 390 1065 390 1028 300 c 128,-1,69
 991 210 991 210 927.5 143.5 c 128,-1,70
 864 77 864 77 778 38 c 128,-1,71
 692 -1 692 -1 595 -1 c 0,72,73
 502 -1 502 -1 420 35.5 c 128,-1,74
 338 72 338 72 275 133 c 1,75,-1
 335 183 l 1,76,77
 387 131 387 131 454 102 c 128,-1,78
 521 73 521 73 597 73 c 0,79,80
 677 73 677 73 747 106 c 128,-1,81
 817 139 817 139 869.5 196 c 128,-1,82
 922 253 922 253 952 329 c 128,-1,83
 982 405 982 405 982 492 c 256,84,85
 982 579 982 579 952 655.5 c 128,-1,86
 922 732 922 732 869.5 789 c 128,-1,87
 817 846 817 846 747 879 c 128,-1,88
 677 912 677 912 597 912 c 0,89,90
 498 912 498 912 415 863 c 128,-1,91
 332 814 332 814 279 733 c 1,92,-1
 227 772 l 1,93,94
 204 741 204 741 193 718 c 128,-1,95
 182 695 182 695 177 687 c 1,96,-1
 159 697 l 1,97,98
 169 721 169 721 185 744.5 c 128,-1,99
 201 768 201 768 218 791 c 0,100,101
 251 835 251 835 292.5 871 c 128,-1,102
 334 907 334 907 382 932.5 c 128,-1,103
 430 958 430 958 484 972 c 128,-1,104
 538 986 538 986 595 986 c 0,105,106
 692 986 692 986 778 947 c 128,-1,107
 864 908 864 908 927.5 841 c 128,-1,108
 991 774 991 774 1028 684 c 128,-1,109
 1065 594 1065 594 1065 492 c 256,67,68
224 846 m 1,110,111
 203 823 203 823 183.5 796.5 c 128,-1,112
 164 770 164 770 147 741 c 128,-1,113
 130 712 130 712 118 680 c 128,-1,114
 106 648 106 648 100 615 c 0,115,116
 92 570 92 570 94 526 c 128,-1,117
 96 482 96 482 106 440 c 128,-1,118
 116 398 116 398 134 359.5 c 128,-1,119
 152 321 152 321 175 288 c 1,120,-1
 107 245 l 1,121,122
 50 324 50 324 23 418 c 128,-1,123
 -4 512 -4 512 15 619 c 0,124,125
 22 660 22 660 36 700 c 128,-1,126
 50 740 50 740 69.5 777 c 128,-1,127
 89 814 89 814 113 846.5 c 128,-1,128
 137 879 137 879 164 906 c 1,129,-1
 214 863 l 1,130,131
 221 872 221 872 228 879 c 128,-1,132
 235 886 235 886 243.5 893.5 c 128,-1,133
 252 901 252 901 262.5 909 c 128,-1,134
 273 917 273 917 288 928 c 1,135,-1
 302 916 l 1,136,137
 279 898 279 898 258 880.5 c 128,-1,138
 237 863 237 863 225 846 c 1,139,-1
 224 846 l 1,110,111
1501 249 m 1,140,-1
 1115 249 l 1,141,-1
 1115 -67 l 1,142,-1
 208 -67 l 1,143,-1
 208 364 l 1,144,-1
 208 372 l 1,145,-1
 227 371 l 1,146,-1
 227 364 l 1,147,-1
 227 -50 l 1,148,-1
 1097 -50 l 1,149,-1
 1097 266 l 1,150,-1
 1501 266 l 1,151,-1
 1509 266 l 1,152,-1
 1509 249 l 1,153,-1
 1501 249 l 1,140,-1
EndSplineSet
EndChar

StartChar: section
Encoding: 164 164 151
Width: 1161
Flags: W
LayerCount: 2
Back
Fore
SplineSet
767 682 m 1,0,-1
 679 682 l 1,1,-1
 679 702 l 2,2,3
 679 717 679 717 668 723.5 c 128,-1,4
 657 730 657 730 643 730 c 2,5,-1
 515 730 l 1,6,7
 516 711 516 711 515.5 695.5 c 128,-1,8
 515 680 515 680 515 672 c 0,9,10
 515 653 515 653 530.5 643.5 c 128,-1,11
 546 634 546 634 570 634 c 0,12,13
 579 634 579 634 598.5 634 c 128,-1,14
 618 634 618 634 639 633.5 c 128,-1,15
 660 633 660 633 679 633 c 128,-1,16
 698 633 698 633 708 633 c 0,17,18
 734 634 734 634 750.5 626.5 c 128,-1,19
 767 619 767 619 767 596 c 2,20,-1
 767 477 l 1,21,-1
 767 221 l 1,22,-1
 468 221 l 2,23,24
 443 221 443 221 428.5 231.5 c 128,-1,25
 414 242 414 242 414 260 c 2,26,-1
 413 384 l 1,27,-1
 488 384 l 2,28,29
 505 384 505 384 509 378 c 128,-1,30
 513 372 513 372 513 358 c 2,31,-1
 513 288 l 1,32,-1
 627 288 l 2,33,34
 650 288 650 288 661 300 c 128,-1,35
 672 312 672 312 672 329 c 2,36,-1
 672 419 l 1,37,-1
 414 419 l 1,38,-1
 414 589 l 1,39,-1
 414 746 l 2,40,41
 414 760 414 760 414 770.5 c 128,-1,42
 414 781 414 781 418 787.5 c 128,-1,43
 422 794 422 794 432 797 c 128,-1,44
 442 800 442 800 461 800 c 2,45,-1
 767 800 l 1,46,-1
 767 682 l 1,0,-1
673 482 m 1,47,-1
 673 542 l 2,48,49
 673 560 673 560 661.5 565.5 c 128,-1,50
 650 571 650 571 636 571 c 2,51,-1
 595 571 l 1,52,-1
 515 571 l 1,53,-1
 515 521 l 2,54,55
 515 503 515 503 530.5 492.5 c 128,-1,56
 546 482 546 482 570 482 c 2,57,-1
 673 482 l 1,47,-1
163 161 m 1,58,-1
 132 161 l 1,59,-1
 132 168 l 2,60,61
 132 173 132 173 128 175.5 c 128,-1,62
 124 178 124 178 119 178 c 2,63,-1
 74 178 l 1,64,65
 75 171 75 171 74.5 165.5 c 128,-1,66
 74 160 74 160 74 158 c 0,67,68
 74 144 74 144 93 144 c 2,69,-1
 142 144 l 2,70,71
 151 144 151 144 157 141.5 c 128,-1,72
 163 139 163 139 163 131 c 2,73,-1
 163 89 l 1,74,-1
 162 0 l 1,75,-1
 58 0 l 2,76,77
 39 0 39 0 39 14 c 2,78,-1
 39 57 l 1,79,-1
 65 57 l 2,80,81
 71 57 71 57 72.5 55 c 128,-1,82
 74 53 74 53 74 48 c 2,83,-1
 74 23 l 1,84,-1
 114 23 l 2,85,86
 122 23 122 23 125.5 27.5 c 128,-1,87
 129 32 129 32 129 38 c 2,88,-1
 129 69 l 1,89,-1
 39 69 l 1,90,-1
 39 129 l 1,91,-1
 39 184 l 2,92,93
 39 194 39 194 40 198.5 c 128,-1,94
 41 203 41 203 55 203 c 2,95,-1
 162 203 l 1,96,-1
 163 161 l 1,58,-1
130 91 m 1,97,-1
 130 112 l 2,98,99
 130 119 130 119 126 120.5 c 128,-1,100
 122 122 122 122 117 122 c 2,101,-1
 102 122 l 1,102,-1
 74 122 l 1,103,-1
 74 105 l 2,104,105
 74 91 74 91 93 91 c 2,106,-1
 130 91 l 1,97,-1
1065 492 m 256,107,108
 1065 390 1065 390 1028 300 c 128,-1,109
 991 210 991 210 927.5 143.5 c 128,-1,110
 864 77 864 77 778 38 c 128,-1,111
 692 -1 692 -1 595 -1 c 0,112,113
 502 -1 502 -1 420 35.5 c 128,-1,114
 338 72 338 72 275 133 c 1,115,-1
 335 183 l 1,116,117
 387 131 387 131 454 102 c 128,-1,118
 521 73 521 73 597 73 c 0,119,120
 677 73 677 73 747 106 c 128,-1,121
 817 139 817 139 869.5 196 c 128,-1,122
 922 253 922 253 952 329 c 128,-1,123
 982 405 982 405 982 492 c 256,124,125
 982 579 982 579 952 655.5 c 128,-1,126
 922 732 922 732 869.5 789 c 128,-1,127
 817 846 817 846 747 879 c 128,-1,128
 677 912 677 912 597 912 c 0,129,130
 498 912 498 912 415 863 c 128,-1,131
 332 814 332 814 279 733 c 1,132,-1
 227 772 l 1,133,134
 204 741 204 741 193 718 c 128,-1,135
 182 695 182 695 177 687 c 1,136,-1
 159 697 l 1,137,138
 169 721 169 721 185 744.5 c 128,-1,139
 201 768 201 768 218 791 c 0,140,141
 251 835 251 835 292.5 871 c 128,-1,142
 334 907 334 907 382 932.5 c 128,-1,143
 430 958 430 958 484 972 c 128,-1,144
 538 986 538 986 595 986 c 0,145,146
 692 986 692 986 778 947 c 128,-1,147
 864 908 864 908 927.5 841 c 128,-1,148
 991 774 991 774 1028 684 c 128,-1,149
 1065 594 1065 594 1065 492 c 256,107,108
224 846 m 1,150,151
 203 823 203 823 183.5 796.5 c 128,-1,152
 164 770 164 770 147 741 c 128,-1,153
 130 712 130 712 118 680 c 128,-1,154
 106 648 106 648 100 615 c 0,155,156
 92 570 92 570 94 526 c 128,-1,157
 96 482 96 482 106 440 c 128,-1,158
 116 398 116 398 134 359.5 c 128,-1,159
 152 321 152 321 175 288 c 1,160,-1
 107 245 l 1,161,162
 50 324 50 324 23 418 c 128,-1,163
 -4 512 -4 512 15 619 c 0,164,165
 22 660 22 660 36 700 c 128,-1,166
 50 740 50 740 69.5 777 c 128,-1,167
 89 814 89 814 113 846.5 c 128,-1,168
 137 879 137 879 164 906 c 1,169,-1
 214 863 l 1,170,171
 221 872 221 872 228 879 c 128,-1,172
 235 886 235 886 243.5 893.5 c 128,-1,173
 252 901 252 901 262.5 909 c 128,-1,174
 273 917 273 917 288 928 c 1,175,-1
 302 916 l 1,176,177
 279 898 279 898 258 880.5 c 128,-1,178
 237 863 237 863 225 846 c 1,179,-1
 224 846 l 1,150,151
1501 249 m 1,180,-1
 1115 249 l 1,181,-1
 1115 -67 l 1,182,-1
 208 -67 l 1,183,-1
 208 364 l 1,184,-1
 208 372 l 1,185,-1
 227 371 l 1,186,-1
 227 364 l 1,187,-1
 227 -50 l 1,188,-1
 1097 -50 l 1,189,-1
 1097 266 l 1,190,-1
 1501 266 l 1,191,-1
 1509 266 l 1,192,-1
 1509 249 l 1,193,-1
 1501 249 l 1,180,-1
EndSplineSet
EndChar

StartChar: bullet
Encoding: 165 165 152
Width: 1161
Flags: W
LayerCount: 2
Back
Fore
SplineSet
393 518 m 256,0,1
 393 558 393 558 408.5 593 c 128,-1,2
 424 628 424 628 450.5 654 c 128,-1,3
 477 680 477 680 513 695 c 128,-1,4
 549 710 549 710 590 710 c 256,5,6
 631 710 631 710 667 695 c 128,-1,7
 703 680 703 680 730 654 c 128,-1,8
 757 628 757 628 772.5 593 c 128,-1,9
 788 558 788 558 788 518 c 256,10,11
 788 478 788 478 772.5 443 c 128,-1,12
 757 408 757 408 730 382 c 128,-1,13
 703 356 703 356 667 341 c 128,-1,14
 631 326 631 326 590 326 c 256,15,16
 549 326 549 326 513 341 c 128,-1,17
 477 356 477 356 450.5 382 c 128,-1,18
 424 408 424 408 408.5 443 c 128,-1,19
 393 478 393 478 393 518 c 256,0,1
22 130 m 0,20,21
 22 159 22 159 42 178.5 c 128,-1,22
 62 198 62 198 91 198 c 256,23,24
 120 198 120 198 140.5 178.5 c 128,-1,25
 161 159 161 159 161 130 c 0,26,27
 161 102 161 102 140.5 82.5 c 128,-1,28
 120 63 120 63 91 63 c 256,29,30
 62 63 62 63 42 82.5 c 128,-1,31
 22 102 22 102 22 130 c 0,20,21
1065 492 m 256,32,33
 1065 390 1065 390 1028 300 c 128,-1,34
 991 210 991 210 927.5 143.5 c 128,-1,35
 864 77 864 77 778 38 c 128,-1,36
 692 -1 692 -1 595 -1 c 0,37,38
 502 -1 502 -1 420 35.5 c 128,-1,39
 338 72 338 72 275 133 c 1,40,-1
 335 183 l 1,41,42
 387 131 387 131 454 102 c 128,-1,43
 521 73 521 73 597 73 c 0,44,45
 677 73 677 73 747 106 c 128,-1,46
 817 139 817 139 869.5 196 c 128,-1,47
 922 253 922 253 952 329 c 128,-1,48
 982 405 982 405 982 492 c 256,49,50
 982 579 982 579 952 655.5 c 128,-1,51
 922 732 922 732 869.5 789 c 128,-1,52
 817 846 817 846 747 879 c 128,-1,53
 677 912 677 912 597 912 c 0,54,55
 498 912 498 912 415 863 c 128,-1,56
 332 814 332 814 279 733 c 1,57,-1
 227 772 l 1,58,59
 204 741 204 741 193 718 c 128,-1,60
 182 695 182 695 177 687 c 1,61,-1
 159 697 l 1,62,63
 169 721 169 721 185 744.5 c 128,-1,64
 201 768 201 768 218 791 c 0,65,66
 251 835 251 835 292.5 871 c 128,-1,67
 334 907 334 907 382 932.5 c 128,-1,68
 430 958 430 958 484 972 c 128,-1,69
 538 986 538 986 595 986 c 0,70,71
 692 986 692 986 778 947 c 128,-1,72
 864 908 864 908 927.5 841 c 128,-1,73
 991 774 991 774 1028 684 c 128,-1,74
 1065 594 1065 594 1065 492 c 256,32,33
224 846 m 1,75,76
 203 823 203 823 183.5 796.5 c 128,-1,77
 164 770 164 770 147 741 c 128,-1,78
 130 712 130 712 118 680 c 128,-1,79
 106 648 106 648 100 615 c 0,80,81
 92 570 92 570 94 526 c 128,-1,82
 96 482 96 482 106 440 c 128,-1,83
 116 398 116 398 134 359.5 c 128,-1,84
 152 321 152 321 175 288 c 1,85,-1
 107 245 l 1,86,87
 50 324 50 324 23 418 c 128,-1,88
 -4 512 -4 512 15 619 c 0,89,90
 22 660 22 660 36 700 c 128,-1,91
 50 740 50 740 69.5 777 c 128,-1,92
 89 814 89 814 113 846.5 c 128,-1,93
 137 879 137 879 164 906 c 1,94,-1
 214 863 l 1,95,96
 221 872 221 872 228 879 c 128,-1,97
 235 886 235 886 243.5 893.5 c 128,-1,98
 252 901 252 901 262.5 909 c 128,-1,99
 273 917 273 917 288 928 c 1,100,-1
 302 916 l 1,101,102
 279 898 279 898 258 880.5 c 128,-1,103
 237 863 237 863 225 846 c 1,104,-1
 224 846 l 1,75,76
1501 249 m 1,105,-1
 1115 249 l 1,106,-1
 1115 -67 l 1,107,-1
 208 -67 l 1,108,-1
 208 364 l 1,109,-1
 208 372 l 1,110,-1
 227 371 l 1,111,-1
 227 364 l 1,112,-1
 227 -50 l 1,113,-1
 1097 -50 l 1,114,-1
 1097 266 l 1,115,-1
 1501 266 l 1,116,-1
 1509 266 l 1,117,-1
 1509 249 l 1,118,-1
 1501 249 l 1,105,-1
EndSplineSet
EndChar

StartChar: paragraph
Encoding: 166 166 153
Width: 1161
Flags: W
LayerCount: 2
Back
Fore
SplineSet
505 540 m 1,0,-1
 505 713 l 1,1,-1
 495 713 l 2,2,3
 477 713 477 713 460 700.5 c 128,-1,4
 443 688 443 688 443 662 c 2,5,-1
 443 540 l 1,6,-1
 505 540 l 1,0,-1
631 800 m 1,7,-1
 823 800 l 1,8,-1
 823 713 l 1,9,-1
 728 713 l 1,10,-1
 728 252 l 2,11,12
 728 212 728 212 699 212 c 2,13,-1
 655 212 l 1,14,-1
 655 713 l 1,15,-1
 579 713 l 1,16,-1
 579 251 l 2,17,18
 579 212 579 212 550 212 c 2,19,-1
 506 212 l 1,20,-1
 505 470 l 1,21,-1
 392 470 l 2,22,23
 367 470 367 470 353.5 478.5 c 128,-1,24
 340 487 340 487 334 498.5 c 128,-1,25
 328 510 328 510 327 521.5 c 128,-1,26
 326 533 326 533 326 539 c 2,27,-1
 326 720 l 2,28,29
 326 730 326 730 330.5 743.5 c 128,-1,30
 335 757 335 757 346.5 769.5 c 128,-1,31
 358 782 358 782 376 791 c 128,-1,32
 394 800 394 800 421 800 c 2,33,-1
 511 800 l 1,34,-1
 631 800 l 1,7,-1
82 115 m 1,35,-1
 82 175 l 1,36,-1
 78 175 l 2,37,38
 72 175 72 175 66 170.5 c 128,-1,39
 60 166 60 166 60 158 c 2,40,-1
 60 115 l 1,41,-1
 82 115 l 1,35,-1
84 206 m 1,42,-1
 126 206 l 1,43,-1
 193 206 l 1,44,-1
 193 175 l 1,45,-1
 160 175 l 1,46,-1
 159 14 l 2,47,48
 159 0 159 0 149 0 c 2,49,-1
 134 0 l 1,50,-1
 134 175 l 1,51,-1
 108 175 l 1,52,-1
 108 14 l 2,53,54
 108 0 108 0 97 0 c 2,55,-1
 82 0 l 1,56,-1
 82 90 l 1,57,-1
 42 90 l 2,58,59
 25 90 25 90 22 100 c 128,-1,60
 19 110 19 110 19 115 c 2,61,-1
 19 178 l 2,62,63
 19 185 19 185 26 195.5 c 128,-1,64
 33 206 33 206 52 206 c 2,65,-1
 84 206 l 1,66,-1
 84 206 l 1,42,-1
1065 492 m 256,67,68
 1065 390 1065 390 1028 300 c 128,-1,69
 991 210 991 210 927.5 143.5 c 128,-1,70
 864 77 864 77 778 38 c 128,-1,71
 692 -1 692 -1 595 -1 c 0,72,73
 502 -1 502 -1 420 35.5 c 128,-1,74
 338 72 338 72 275 133 c 1,75,-1
 335 183 l 1,76,77
 387 131 387 131 454 102 c 128,-1,78
 521 73 521 73 597 73 c 0,79,80
 677 73 677 73 747 106 c 128,-1,81
 817 139 817 139 869.5 196 c 128,-1,82
 922 253 922 253 952 329 c 128,-1,83
 982 405 982 405 982 492 c 256,84,85
 982 579 982 579 952 655.5 c 128,-1,86
 922 732 922 732 869.5 789 c 128,-1,87
 817 846 817 846 747 879 c 128,-1,88
 677 912 677 912 597 912 c 0,89,90
 498 912 498 912 415 863 c 128,-1,91
 332 814 332 814 279 733 c 1,92,-1
 227 772 l 1,93,94
 204 741 204 741 193 718 c 128,-1,95
 182 695 182 695 177 687 c 1,96,-1
 159 697 l 1,97,98
 169 721 169 721 185 744.5 c 128,-1,99
 201 768 201 768 218 791 c 0,100,101
 251 835 251 835 292.5 871 c 128,-1,102
 334 907 334 907 382 932.5 c 128,-1,103
 430 958 430 958 484 972 c 128,-1,104
 538 986 538 986 595 986 c 0,105,106
 692 986 692 986 778 947 c 128,-1,107
 864 908 864 908 927.5 841 c 128,-1,108
 991 774 991 774 1028 684 c 128,-1,109
 1065 594 1065 594 1065 492 c 256,67,68
224 846 m 1,110,111
 203 823 203 823 183.5 796.5 c 128,-1,112
 164 770 164 770 147 741 c 128,-1,113
 130 712 130 712 118 680 c 128,-1,114
 106 648 106 648 100 615 c 0,115,116
 92 570 92 570 94 526 c 128,-1,117
 96 482 96 482 106 440 c 128,-1,118
 116 398 116 398 134 359.5 c 128,-1,119
 152 321 152 321 175 288 c 1,120,-1
 107 245 l 1,121,122
 50 324 50 324 23 418 c 128,-1,123
 -4 512 -4 512 15 619 c 0,124,125
 22 660 22 660 36 700 c 128,-1,126
 50 740 50 740 69.5 777 c 128,-1,127
 89 814 89 814 113 846.5 c 128,-1,128
 137 879 137 879 164 906 c 1,129,-1
 214 863 l 1,130,131
 221 872 221 872 228 879 c 128,-1,132
 235 886 235 886 243.5 893.5 c 128,-1,133
 252 901 252 901 262.5 909 c 128,-1,134
 273 917 273 917 288 928 c 1,135,-1
 302 916 l 1,136,137
 279 898 279 898 258 880.5 c 128,-1,138
 237 863 237 863 225 846 c 1,139,-1
 224 846 l 1,110,111
1501 249 m 1,140,-1
 1115 249 l 1,141,-1
 1115 -67 l 1,142,-1
 208 -67 l 1,143,-1
 208 364 l 1,144,-1
 208 372 l 1,145,-1
 227 371 l 1,146,-1
 227 364 l 1,147,-1
 227 -50 l 1,148,-1
 1097 -50 l 1,149,-1
 1097 266 l 1,150,-1
 1501 266 l 1,151,-1
 1509 266 l 1,152,-1
 1509 249 l 1,153,-1
 1501 249 l 1,140,-1
EndSplineSet
EndChar

StartChar: germandbls
Encoding: 167 167 154
Width: 1161
Flags: W
LayerCount: 2
Back
Fore
SplineSet
759 723 m 0,0,1
 759 712 759 712 759 698.5 c 128,-1,2
 759 685 759 685 758.5 670.5 c 128,-1,3
 758 656 758 656 758 643 c 128,-1,4
 758 630 758 630 758 621 c 0,5,6
 758 592 758 592 745.5 574 c 128,-1,7
 733 556 733 556 695 555 c 1,8,9
 714 555 714 555 726 545 c 128,-1,10
 738 535 738 535 745 521.5 c 128,-1,11
 752 508 752 508 755 493.5 c 128,-1,12
 758 479 758 479 758 469 c 2,13,-1
 758 292 l 2,14,15
 758 280 758 280 749.5 268.5 c 128,-1,16
 741 257 741 257 726 247 c 128,-1,17
 711 237 711 237 691.5 229.5 c 128,-1,18
 672 222 672 222 650 217 c 0,19,20
 632 213 632 213 618.5 220 c 128,-1,21
 605 227 605 227 598 237.5 c 128,-1,22
 591 248 591 248 593 260 c 128,-1,23
 595 272 595 272 608 278 c 1,24,25
 632 278 632 278 652 292 c 128,-1,26
 672 306 672 306 672 335 c 2,27,-1
 672 457 l 2,28,29
 672 484 672 484 651 498 c 128,-1,30
 630 512 630 512 607 512 c 2,31,-1
 525 512 l 1,32,-1
 525 221 l 1,33,-1
 408 221 l 2,34,35
 397 221 397 221 390 228 c 128,-1,36
 383 235 383 235 383 246 c 2,37,-1
 383 280 l 1,38,-1
 459 280 l 1,39,-1
 459 746 l 2,40,41
 459 764 459 764 470.5 782 c 128,-1,42
 482 800 482 800 512 800 c 2,43,-1
 638 800 l 2,44,45
 669 800 669 800 691.5 791.5 c 128,-1,46
 714 783 714 783 729 771 c 128,-1,47
 744 759 744 759 751.5 745.5 c 128,-1,48
 759 732 759 732 759 723 c 0,0,1
672 686 m 2,49,50
 672 698 672 698 666.5 707.5 c 128,-1,51
 661 717 661 717 652 723 c 128,-1,52
 643 729 643 729 632 732 c 128,-1,53
 621 735 621 735 611 735 c 2,54,-1
 525 735 l 1,55,-1
 525 595 l 1,56,-1
 611 595 l 2,57,58
 632 595 632 595 652 608 c 128,-1,59
 672 621 672 621 672 646 c 2,60,-1
 672 686 l 2,49,50
167 176 m 2,61,-1
 167 140 l 2,62,63
 167 130 167 130 163 123.5 c 128,-1,64
 159 117 159 117 145 117 c 1,65,66
 159 117 159 117 163 105.5 c 128,-1,67
 167 94 167 94 167 87 c 2,68,-1
 167 25 l 2,69,70
 167 16 167 16 156 9 c 128,-1,71
 145 2 145 2 129 -1 c 0,72,73
 117 -4 117 -4 111 5.5 c 128,-1,74
 105 15 105 15 115 20 c 0,75,76
 123 20 123 20 130 25 c 128,-1,77
 137 30 137 30 137 40 c 2,78,-1
 137 82 l 2,79,80
 137 92 137 92 129.5 97 c 128,-1,81
 122 102 122 102 114 102 c 2,82,-1
 85 102 l 1,83,-1
 85 0 l 1,84,-1
 45 0 l 2,85,86
 36 0 36 0 36 9 c 2,87,-1
 36 21 l 1,88,-1
 62 21 l 1,89,-1
 62 184 l 2,90,91
 62 190 62 190 66 196.5 c 128,-1,92
 70 203 70 203 81 203 c 2,93,-1
 125 203 l 2,94,95
 147 203 147 203 157 193 c 128,-1,96
 167 183 167 183 167 176 c 2,61,-1
137 163 m 2,97,98
 137 171 137 171 130 175.5 c 128,-1,99
 123 180 123 180 116 180 c 2,100,-1
 86 180 l 1,101,-1
 86 131 l 1,102,-1
 116 131 l 2,103,104
 123 131 123 131 130 135.5 c 128,-1,105
 137 140 137 140 137 149 c 2,106,-1
 137 163 l 2,97,98
1065 492 m 256,107,108
 1065 390 1065 390 1028 300 c 128,-1,109
 991 210 991 210 927.5 143.5 c 128,-1,110
 864 77 864 77 778 38 c 128,-1,111
 692 -1 692 -1 595 -1 c 0,112,113
 502 -1 502 -1 420 35.5 c 128,-1,114
 338 72 338 72 275 133 c 1,115,-1
 335 183 l 1,116,117
 387 131 387 131 454 102 c 128,-1,118
 521 73 521 73 597 73 c 0,119,120
 677 73 677 73 747 106 c 128,-1,121
 817 139 817 139 869.5 196 c 128,-1,122
 922 253 922 253 952 329 c 128,-1,123
 982 405 982 405 982 492 c 256,124,125
 982 579 982 579 952 655.5 c 128,-1,126
 922 732 922 732 869.5 789 c 128,-1,127
 817 846 817 846 747 879 c 128,-1,128
 677 912 677 912 597 912 c 0,129,130
 498 912 498 912 415 863 c 128,-1,131
 332 814 332 814 279 733 c 1,132,-1
 227 772 l 1,133,134
 204 741 204 741 193 718 c 128,-1,135
 182 695 182 695 177 687 c 1,136,-1
 159 697 l 1,137,138
 169 721 169 721 185 744.5 c 128,-1,139
 201 768 201 768 218 791 c 0,140,141
 251 835 251 835 292.5 871 c 128,-1,142
 334 907 334 907 382 932.5 c 128,-1,143
 430 958 430 958 484 972 c 128,-1,144
 538 986 538 986 595 986 c 0,145,146
 692 986 692 986 778 947 c 128,-1,147
 864 908 864 908 927.5 841 c 128,-1,148
 991 774 991 774 1028 684 c 128,-1,149
 1065 594 1065 594 1065 492 c 256,107,108
224 846 m 1,150,151
 203 823 203 823 183.5 796.5 c 128,-1,152
 164 770 164 770 147 741 c 128,-1,153
 130 712 130 712 118 680 c 128,-1,154
 106 648 106 648 100 615 c 0,155,156
 92 570 92 570 94 526 c 128,-1,157
 96 482 96 482 106 440 c 128,-1,158
 116 398 116 398 134 359.5 c 128,-1,159
 152 321 152 321 175 288 c 1,160,-1
 107 245 l 1,161,162
 50 324 50 324 23 418 c 128,-1,163
 -4 512 -4 512 15 619 c 0,164,165
 22 660 22 660 36 700 c 128,-1,166
 50 740 50 740 69.5 777 c 128,-1,167
 89 814 89 814 113 846.5 c 128,-1,168
 137 879 137 879 164 906 c 1,169,-1
 214 863 l 1,170,171
 221 872 221 872 228 879 c 128,-1,172
 235 886 235 886 243.5 893.5 c 128,-1,173
 252 901 252 901 262.5 909 c 128,-1,174
 273 917 273 917 288 928 c 1,175,-1
 302 916 l 1,176,177
 279 898 279 898 258 880.5 c 128,-1,178
 237 863 237 863 225 846 c 1,179,-1
 224 846 l 1,150,151
1501 249 m 1,180,-1
 1115 249 l 1,181,-1
 1115 -67 l 1,182,-1
 208 -67 l 1,183,-1
 208 364 l 1,184,-1
 208 372 l 1,185,-1
 227 371 l 1,186,-1
 227 364 l 1,187,-1
 227 -50 l 1,188,-1
 1097 -50 l 1,189,-1
 1097 266 l 1,190,-1
 1501 266 l 1,191,-1
 1509 266 l 1,192,-1
 1509 249 l 1,193,-1
 1501 249 l 1,180,-1
EndSplineSet
EndChar

StartChar: registered
Encoding: 168 168 155
Width: 1161
Flags: W
LayerCount: 2
Back
Fore
SplineSet
658 618 m 2,0,-1
 658 533 l 2,1,2
 658 530 658 530 658 525 c 128,-1,3
 658 520 658 520 655.5 514.5 c 128,-1,4
 653 509 653 509 648.5 505 c 128,-1,5
 644 501 644 501 635 501 c 1,6,-1
 635 368 l 1,7,-1
 615 368 l 2,8,9
 606 368 606 368 597.5 373 c 128,-1,10
 589 378 589 378 589 390 c 2,11,-1
 589 499 l 1,12,-1
 547 499 l 1,13,-1
 547 368 l 1,14,-1
 514 368 l 1,15,-1
 514 620 l 1,16,-1
 514 657 l 1,17,-1
 604 657 l 2,18,19
 619 657 619 657 629.5 652.5 c 128,-1,20
 640 648 640 648 646.5 642 c 128,-1,21
 653 636 653 636 655.5 629.5 c 128,-1,22
 658 623 658 623 658 618 c 2,0,-1
623 531 m 1,23,-1
 623 552 l 1,24,-1
 623 599 l 2,25,26
 623 612 623 612 613 618 c 128,-1,27
 603 624 603 624 593 624 c 2,28,-1
 548 624 l 1,29,-1
 548 531 l 1,30,-1
 623 531 l 1,23,-1
790 338 m 2,31,32
 790 321 790 321 783 301 c 128,-1,33
 776 281 776 281 763 263 c 128,-1,34
 750 245 750 245 732 233 c 128,-1,35
 714 221 714 221 692 221 c 2,36,-1
 609 221 l 1,37,-1
 494 221 l 2,38,39
 472 221 472 221 454 233 c 128,-1,40
 436 245 436 245 423.5 263 c 128,-1,41
 411 281 411 281 404 301 c 128,-1,42
 397 321 397 321 397 338 c 2,43,-1
 397 520 l 2,44,45
 397 547 397 547 397 573.5 c 128,-1,46
 397 600 397 600 396.5 622.5 c 128,-1,47
 396 645 396 645 396 661.5 c 128,-1,48
 396 678 396 678 396 684 c 0,49,50
 396 700 396 700 403 720.5 c 128,-1,51
 410 741 410 741 423 758.5 c 128,-1,52
 436 776 436 776 454 788 c 128,-1,53
 472 800 472 800 494 800 c 2,54,-1
 600 800 l 1,55,-1
 692 800 l 2,56,57
 714 800 714 800 731.5 788 c 128,-1,58
 749 776 749 776 762 758.5 c 128,-1,59
 775 741 775 741 782 720.5 c 128,-1,60
 789 700 789 700 789 684 c 0,61,62
 789 665 789 665 789 647.5 c 128,-1,63
 789 630 789 630 789.5 610.5 c 128,-1,64
 790 591 790 591 790 569 c 128,-1,65
 790 547 790 547 790 520 c 2,66,-1
 790 338 l 2,31,32
710 354 m 2,67,-1
 710 520 l 1,68,-1
 710 669 l 2,69,70
 710 678 710 678 705.5 688.5 c 128,-1,71
 701 699 701 699 693 708 c 128,-1,72
 685 717 685 717 673.5 723.5 c 128,-1,73
 662 730 662 730 649 730 c 2,74,-1
 607 730 l 1,75,-1
 538 730 l 2,76,77
 525 730 525 730 513.5 724 c 128,-1,78
 502 718 502 718 494 709 c 128,-1,79
 486 700 486 700 481 689.5 c 128,-1,80
 476 679 476 679 476 670 c 2,81,-1
 476 520 l 1,82,-1
 476 354 l 2,83,84
 476 345 476 345 480.5 334.5 c 128,-1,85
 485 324 485 324 493.5 315 c 128,-1,86
 502 306 502 306 513 300 c 128,-1,87
 524 294 524 294 538 294 c 2,88,-1
 648 294 l 2,89,90
 661 294 661 294 672.5 300 c 128,-1,91
 684 306 684 306 692.5 315 c 128,-1,92
 701 324 701 324 705.5 334.5 c 128,-1,93
 710 345 710 345 710 354 c 2,67,-1
133 139 m 2,94,-1
 133 109 l 2,95,96
 133 107 133 107 132 102.5 c 128,-1,97
 131 98 131 98 124 98 c 1,98,-1
 124 51 l 1,99,-1
 118 51 l 2,100,101
 109 51 109 51 109 59 c 2,102,-1
 109 97 l 1,103,-1
 94 97 l 1,104,-1
 94 51 l 1,105,-1
 82 51 l 1,106,-1
 82 140 l 1,107,-1
 82 153 l 1,108,-1
 114 153 l 2,109,110
 125 153 125 153 129 147.5 c 128,-1,111
 133 142 133 142 133 139 c 2,94,-1
120 108 m 1,112,-1
 120 116 l 1,113,-1
 120 132 l 2,114,115
 120 137 120 137 116.5 139 c 128,-1,116
 113 141 113 141 110 141 c 2,117,-1
 94 141 l 1,118,-1
 94 108 l 1,119,-1
 120 108 l 1,112,-1
179 41 m 2,120,121
 179 30 179 30 169.5 15 c 128,-1,122
 160 0 160 0 144 0 c 2,123,-1
 115 0 l 1,124,-1
 75 0 l 2,125,126
 60 0 60 0 50.5 15 c 128,-1,127
 41 30 41 30 41 41 c 2,128,-1
 41 105 l 1,129,-1
 41 162 l 2,130,131
 41 174 41 174 50.5 188.5 c 128,-1,132
 60 203 60 203 75 203 c 2,133,-1
 112 203 l 1,134,-1
 144 203 l 2,135,136
 160 203 160 203 169.5 188.5 c 128,-1,137
 179 174 179 174 179 162 c 2,138,-1
 179 105 l 1,139,-1
 179 41 l 2,120,121
151 47 m 2,140,-1
 151 105 l 1,141,-1
 151 157 l 2,142,143
 151 163 151 163 145 170.5 c 128,-1,144
 139 178 139 178 129 178 c 2,145,-1
 115 178 l 1,146,-1
 91 178 l 2,147,148
 81 178 81 178 75 170.5 c 128,-1,149
 69 163 69 163 69 157 c 2,150,-1
 69 105 l 1,151,-1
 69 47 l 2,152,153
 69 41 69 41 75 33.5 c 128,-1,154
 81 26 81 26 90 26 c 2,155,-1
 129 26 l 2,156,157
 139 26 139 26 145 33.5 c 128,-1,158
 151 41 151 41 151 47 c 2,140,-1
1065 492 m 256,159,160
 1065 390 1065 390 1028 300 c 128,-1,161
 991 210 991 210 927.5 143.5 c 128,-1,162
 864 77 864 77 778 38 c 128,-1,163
 692 -1 692 -1 595 -1 c 0,164,165
 502 -1 502 -1 420 35.5 c 128,-1,166
 338 72 338 72 275 133 c 1,167,-1
 335 183 l 1,168,169
 387 131 387 131 454 102 c 128,-1,170
 521 73 521 73 597 73 c 0,171,172
 677 73 677 73 747 106 c 128,-1,173
 817 139 817 139 869.5 196 c 128,-1,174
 922 253 922 253 952 329 c 128,-1,175
 982 405 982 405 982 492 c 256,176,177
 982 579 982 579 952 655.5 c 128,-1,178
 922 732 922 732 869.5 789 c 128,-1,179
 817 846 817 846 747 879 c 128,-1,180
 677 912 677 912 597 912 c 0,181,182
 498 912 498 912 415 863 c 128,-1,183
 332 814 332 814 279 733 c 1,184,-1
 227 772 l 1,185,186
 204 741 204 741 193 718 c 128,-1,187
 182 695 182 695 177 687 c 1,188,-1
 159 697 l 1,189,190
 169 721 169 721 185 744.5 c 128,-1,191
 201 768 201 768 218 791 c 0,192,193
 251 835 251 835 292.5 871 c 128,-1,194
 334 907 334 907 382 932.5 c 128,-1,195
 430 958 430 958 484 972 c 128,-1,196
 538 986 538 986 595 986 c 0,197,198
 692 986 692 986 778 947 c 128,-1,199
 864 908 864 908 927.5 841 c 128,-1,200
 991 774 991 774 1028 684 c 128,-1,201
 1065 594 1065 594 1065 492 c 256,159,160
224 846 m 1,202,203
 203 823 203 823 183.5 796.5 c 128,-1,204
 164 770 164 770 147 741 c 128,-1,205
 130 712 130 712 118 680 c 128,-1,206
 106 648 106 648 100 615 c 0,207,208
 92 570 92 570 94 526 c 128,-1,209
 96 482 96 482 106 440 c 128,-1,210
 116 398 116 398 134 359.5 c 128,-1,211
 152 321 152 321 175 288 c 1,212,-1
 107 245 l 1,213,214
 50 324 50 324 23 418 c 128,-1,215
 -4 512 -4 512 15 619 c 0,216,217
 22 660 22 660 36 700 c 128,-1,218
 50 740 50 740 69.5 777 c 128,-1,219
 89 814 89 814 113 846.5 c 128,-1,220
 137 879 137 879 164 906 c 1,221,-1
 214 863 l 1,222,223
 221 872 221 872 228 879 c 128,-1,224
 235 886 235 886 243.5 893.5 c 128,-1,225
 252 901 252 901 262.5 909 c 128,-1,226
 273 917 273 917 288 928 c 1,227,-1
 302 916 l 1,228,229
 279 898 279 898 258 880.5 c 128,-1,230
 237 863 237 863 225 846 c 1,231,-1
 224 846 l 1,202,203
1501 249 m 1,232,-1
 1115 249 l 1,233,-1
 1115 -67 l 1,234,-1
 208 -67 l 1,235,-1
 208 364 l 1,236,-1
 208 372 l 1,237,-1
 227 371 l 1,238,-1
 227 364 l 1,239,-1
 227 -50 l 1,240,-1
 1097 -50 l 1,241,-1
 1097 266 l 1,242,-1
 1501 266 l 1,243,-1
 1509 266 l 1,244,-1
 1509 249 l 1,245,-1
 1501 249 l 1,232,-1
EndSplineSet
EndChar

StartChar: copyright
Encoding: 169 169 156
Width: 1161
Flags: W
LayerCount: 2
Back
Fore
SplineSet
775 338 m 2,0,1
 775 321 775 321 768 301 c 128,-1,2
 761 281 761 281 748 263 c 128,-1,3
 735 245 735 245 717.5 233 c 128,-1,4
 700 221 700 221 678 221 c 2,5,-1
 595 221 l 1,6,-1
 479 221 l 2,7,8
 457 221 457 221 439 233 c 128,-1,9
 421 245 421 245 408.5 263 c 128,-1,10
 396 281 396 281 389 301 c 128,-1,11
 382 321 382 321 382 338 c 2,12,-1
 382 520 l 1,13,-1
 382 684 l 2,14,15
 382 700 382 700 389 720.5 c 128,-1,16
 396 741 396 741 408.5 758.5 c 128,-1,17
 421 776 421 776 439 788 c 128,-1,18
 457 800 457 800 479 800 c 2,19,-1
 585 800 l 1,20,-1
 677 800 l 2,21,22
 699 800 699 800 717 788 c 128,-1,23
 735 776 735 776 748 758.5 c 128,-1,24
 761 741 761 741 768 720.5 c 128,-1,25
 775 700 775 700 775 684 c 2,26,-1
 775 520 l 1,27,-1
 775 338 l 2,0,1
696 354 m 2,28,-1
 696 520 l 2,29,30
 696 558 696 558 696 579.5 c 128,-1,31
 696 601 696 601 695.5 615.5 c 128,-1,32
 695 630 695 630 695 641 c 128,-1,33
 695 652 695 652 695 669 c 0,34,35
 695 678 695 678 690.5 688.5 c 128,-1,36
 686 699 686 699 678 708 c 128,-1,37
 670 717 670 717 658.5 723.5 c 128,-1,38
 647 730 647 730 634 730 c 2,39,-1
 592 730 l 1,40,-1
 524 730 l 2,41,42
 510 730 510 730 498.5 724 c 128,-1,43
 487 718 487 718 479 709 c 128,-1,44
 471 700 471 700 466 689.5 c 128,-1,45
 461 679 461 679 461 670 c 0,46,47
 461 653 461 653 461 641.5 c 128,-1,48
 461 630 461 630 461.5 616 c 128,-1,49
 462 602 462 602 462 580 c 128,-1,50
 462 558 462 558 462 520 c 2,51,-1
 462 354 l 2,52,53
 462 345 462 345 466.5 334.5 c 128,-1,54
 471 324 471 324 479.5 315 c 128,-1,55
 488 306 488 306 499 300 c 128,-1,56
 510 294 510 294 523 294 c 2,57,-1
 633 294 l 2,58,59
 646 294 646 294 658 300 c 128,-1,60
 670 306 670 306 678 315 c 128,-1,61
 686 324 686 324 691 334.5 c 128,-1,62
 696 345 696 345 696 354 c 2,28,-1
659 433 m 2,63,-1
 659 397 l 2,64,65
 659 387 659 387 649 375.5 c 128,-1,66
 639 364 639 364 628 364 c 2,67,-1
 591 364 l 1,68,-1
 536 364 l 2,69,70
 520 364 520 364 511.5 368.5 c 128,-1,71
 503 373 503 373 499.5 382.5 c 128,-1,72
 496 392 496 392 496 406 c 128,-1,73
 496 420 496 420 496 439 c 2,74,-1
 496 602 l 2,75,76
 496 623 496 623 509 638 c 128,-1,77
 522 653 522 653 553 653 c 2,78,-1
 601 653 l 2,79,80
 621 653 621 653 639.5 643.5 c 128,-1,81
 658 634 658 634 658 609 c 2,82,-1
 658 550 l 1,83,-1
 635 550 l 2,84,85
 631 551 631 551 626.5 552.5 c 128,-1,86
 622 554 622 554 622 562 c 2,87,-1
 622 578 l 2,88,89
 622 594 622 594 614.5 599.5 c 128,-1,90
 607 605 607 605 601 605 c 2,91,-1
 534 605 l 1,92,-1
 534 431 l 2,93,94
 534 416 534 416 537 408.5 c 128,-1,95
 540 401 540 401 545.5 398 c 128,-1,96
 551 395 551 395 559 395 c 128,-1,97
 567 395 567 395 578 395 c 2,98,-1
 624 395 l 1,99,-1
 624 433 l 1,100,-1
 624 450 l 1,101,-1
 643 450 l 2,102,103
 653 450 653 450 656 445.5 c 128,-1,104
 659 441 659 441 659 433 c 2,63,-1
182 41 m 2,105,106
 182 30 182 30 172.5 15 c 128,-1,107
 163 0 163 0 148 0 c 2,108,-1
 119 0 l 1,109,-1
 79 0 l 2,110,111
 63 0 63 0 54 15 c 128,-1,112
 45 30 45 30 45 41 c 2,113,-1
 45 105 l 1,114,-1
 45 162 l 2,115,116
 45 174 45 174 54 188.5 c 128,-1,117
 63 203 63 203 79 203 c 2,118,-1
 116 203 l 1,119,-1
 148 203 l 2,120,121
 163 203 163 203 172.5 188.5 c 128,-1,122
 182 174 182 174 182 162 c 2,123,-1
 182 105 l 1,124,-1
 182 41 l 2,105,106
154 47 m 2,125,-1
 154 105 l 1,126,-1
 154 157 l 2,127,128
 154 163 154 163 148 170.5 c 128,-1,129
 142 178 142 178 133 178 c 2,130,-1
 118 178 l 1,131,-1
 94 178 l 2,132,133
 85 178 85 178 78.5 170.5 c 128,-1,134
 72 163 72 163 72 157 c 2,135,-1
 72 105 l 1,136,-1
 72 47 l 2,137,138
 72 41 72 41 78 33.5 c 128,-1,139
 84 26 84 26 94 26 c 2,140,-1
 133 26 l 2,141,142
 142 26 142 26 148 33.5 c 128,-1,143
 154 41 154 41 154 47 c 2,125,-1
141 74 m 2,144,-1
 141 62 l 2,145,146
 141 58 141 58 138 54 c 128,-1,147
 135 50 135 50 131 50 c 2,148,-1
 118 50 l 1,149,-1
 98 50 l 2,150,151
 87 50 87 50 85.5 56.5 c 128,-1,152
 84 63 84 63 84 76 c 2,153,-1
 84 133 l 2,154,155
 84 141 84 141 88.5 146 c 128,-1,156
 93 151 93 151 104 151 c 2,157,-1
 121 151 l 2,158,159
 128 151 128 151 134.5 147.5 c 128,-1,160
 141 144 141 144 141 136 c 2,161,-1
 141 115 l 1,162,-1
 133 115 l 2,163,164
 129 115 129 115 129 119 c 2,165,-1
 129 125 l 2,166,167
 129 130 129 130 126 132 c 128,-1,168
 123 134 123 134 121 134 c 2,169,-1
 98 134 l 1,170,-1
 98 73 l 2,171,172
 98 62 98 62 101.5 61.5 c 128,-1,173
 105 61 105 61 113 61 c 2,174,-1
 129 61 l 1,175,-1
 129 74 l 1,176,-1
 129 80 l 1,177,-1
 136 80 l 2,178,179
 141 80 141 80 141 74 c 2,144,-1
1065 492 m 256,180,181
 1065 390 1065 390 1028 300 c 128,-1,182
 991 210 991 210 927.5 143.5 c 128,-1,183
 864 77 864 77 778 38 c 128,-1,184
 692 -1 692 -1 595 -1 c 0,185,186
 502 -1 502 -1 420 35.5 c 128,-1,187
 338 72 338 72 275 133 c 1,188,-1
 335 183 l 1,189,190
 387 131 387 131 454 102 c 128,-1,191
 521 73 521 73 597 73 c 0,192,193
 677 73 677 73 747 106 c 128,-1,194
 817 139 817 139 869.5 196 c 128,-1,195
 922 253 922 253 952 329 c 128,-1,196
 982 405 982 405 982 492 c 256,197,198
 982 579 982 579 952 655.5 c 128,-1,199
 922 732 922 732 869.5 789 c 128,-1,200
 817 846 817 846 747 879 c 128,-1,201
 677 912 677 912 597 912 c 0,202,203
 498 912 498 912 415 863 c 128,-1,204
 332 814 332 814 279 733 c 1,205,-1
 227 772 l 1,206,207
 204 741 204 741 193 718 c 128,-1,208
 182 695 182 695 177 687 c 1,209,-1
 159 697 l 1,210,211
 169 721 169 721 185 744.5 c 128,-1,212
 201 768 201 768 218 791 c 0,213,214
 251 835 251 835 292.5 871 c 128,-1,215
 334 907 334 907 382 932.5 c 128,-1,216
 430 958 430 958 484 972 c 128,-1,217
 538 986 538 986 595 986 c 0,218,219
 692 986 692 986 778 947 c 128,-1,220
 864 908 864 908 927.5 841 c 128,-1,221
 991 774 991 774 1028 684 c 128,-1,222
 1065 594 1065 594 1065 492 c 256,180,181
224 846 m 1,223,224
 203 823 203 823 183.5 796.5 c 128,-1,225
 164 770 164 770 147 741 c 128,-1,226
 130 712 130 712 118 680 c 128,-1,227
 106 648 106 648 100 615 c 0,228,229
 92 570 92 570 94 526 c 128,-1,230
 96 482 96 482 106 440 c 128,-1,231
 116 398 116 398 134 359.5 c 128,-1,232
 152 321 152 321 175 288 c 1,233,-1
 107 245 l 1,234,235
 50 324 50 324 23 418 c 128,-1,236
 -4 512 -4 512 15 619 c 0,237,238
 22 660 22 660 36 700 c 128,-1,239
 50 740 50 740 69.5 777 c 128,-1,240
 89 814 89 814 113 846.5 c 128,-1,241
 137 879 137 879 164 906 c 1,242,-1
 214 863 l 1,243,244
 221 872 221 872 228 879 c 128,-1,245
 235 886 235 886 243.5 893.5 c 128,-1,246
 252 901 252 901 262.5 909 c 128,-1,247
 273 917 273 917 288 928 c 1,248,-1
 302 916 l 1,249,250
 279 898 279 898 258 880.5 c 128,-1,251
 237 863 237 863 225 846 c 1,252,-1
 224 846 l 1,223,224
1501 249 m 1,253,-1
 1115 249 l 1,254,-1
 1115 -67 l 1,255,-1
 208 -67 l 1,256,-1
 208 364 l 1,257,-1
 208 372 l 1,258,-1
 227 371 l 1,259,-1
 227 364 l 1,260,-1
 227 -50 l 1,261,-1
 1097 -50 l 1,262,-1
 1097 266 l 1,263,-1
 1501 266 l 1,264,-1
 1509 266 l 1,265,-1
 1509 249 l 1,266,-1
 1501 249 l 1,253,-1
EndSplineSet
EndChar

StartChar: trademark
Encoding: 170 170 157
Width: 679
Flags: W
LayerCount: 2
Back
Fore
SplineSet
359 745 m 1,0,-1
 310 745 l 1,1,-1
 310 540 l 2,2,3
 310 523 310 523 295 522 c 2,4,-1
 272 523 l 1,5,-1
 272 745 l 1,6,-1
 225 745 l 1,7,-1
 225 768 l 2,8,9
 226 774 226 774 230 778.5 c 128,-1,10
 234 783 234 783 245 783 c 2,11,-1
 359 783 l 1,12,-1
 359 745 l 1,0,-1
570 739 m 2,13,-1
 570 523 l 1,14,-1
 548 523 l 2,15,16
 534 523 534 523 534 535 c 2,17,-1
 534 653 l 1,18,-1
 534 707 l 2,19,20
 534 727 534 727 527 733 c 128,-1,21
 520 739 520 739 513 739 c 256,22,23
 506 739 506 739 498.5 732 c 128,-1,24
 491 725 491 725 491 708 c 2,25,-1
 491 671 l 1,26,-1
 491 523 l 1,27,-1
 468 523 l 2,28,29
 461 523 461 523 457.5 525 c 128,-1,30
 454 527 454 527 454 535 c 2,31,-1
 454 671 l 1,32,-1
 454 709 l 2,33,34
 454 728 454 728 447 734 c 128,-1,35
 440 740 440 740 432 740 c 256,36,37
 424 740 424 740 417.5 732 c 128,-1,38
 411 724 411 724 411 708 c 2,39,-1
 411 654 l 1,40,-1
 411 523 l 1,41,-1
 389 523 l 2,42,43
 384 523 384 523 380 525 c 128,-1,44
 376 527 376 527 376 535 c 2,45,-1
 376 783 l 1,46,-1
 406 783 l 1,47,-1
 406 771 l 2,48,49
 406 776 406 776 413 779.5 c 128,-1,50
 420 783 420 783 425 783 c 2,51,-1
 450 783 l 2,52,53
 458 783 458 783 464.5 778.5 c 128,-1,54
 471 774 471 774 473 763 c 1,55,56
 475 774 475 774 481.5 778.5 c 128,-1,57
 488 783 488 783 496 783 c 2,58,-1
 529 783 l 2,59,60
 542 783 542 783 555.5 770.5 c 128,-1,61
 569 758 569 758 570 739 c 2,13,-1
620 777 m 1,62,63
 639 749 639 749 647 720.5 c 128,-1,64
 655 692 655 692 655 657 c 0,65,66
 655 607 655 607 635 563.5 c 128,-1,67
 615 520 615 520 580.5 488 c 128,-1,68
 546 456 546 456 499.5 437 c 128,-1,69
 453 418 453 418 400 418 c 0,70,71
 378 418 378 418 351.5 424 c 128,-1,72
 325 430 325 430 305 436 c 0,73,74
 265 450 265 450 234.5 475 c 128,-1,75
 204 500 204 500 182 534 c 1,76,-1
 167 534 l 1,77,78
 171 526 171 526 174.5 520.5 c 128,-1,79
 178 515 178 515 183 508 c 0,80,81
 217 460 217 460 270 437 c 1,82,-1
 260 421 l 1,83,84
 230 433 230 433 208 451 c 128,-1,85
 186 469 186 469 167 497 c 0,86,87
 155 513 155 513 146 534 c 1,88,-1
 62 534 l 1,89,-1
 62 654 l 1,90,-1
 48 654 l 1,91,-1
 39 654 l 1,92,-1
 39 665 l 1,93,-1
 47 665 l 1,94,-1
 129 665 l 1,95,96
 136 716 136 716 163.5 761 c 128,-1,97
 191 806 191 806 239 839 c 0,98,99
 294 878 294 878 357 884 c 128,-1,100
 420 890 420 890 477 868 c 1,101,-1
 494 891 l 1,102,-1
 503 903 l 1,103,-1
 527 884 l 1,104,-1
 518 872 l 1,105,-1
 489 835 l 1,106,-1
 480 823 l 1,107,-1
 456 842 l 1,108,-1
 466 855 l 1,109,110
 413 877 413 877 358 871 c 128,-1,111
 303 865 303 865 249 828 c 0,112,113
 204 797 204 797 179 755 c 128,-1,114
 154 713 154 713 147 665 c 1,115,-1
 202 665 l 1,116,-1
 211 665 l 1,117,-1
 211 654 l 1,118,-1
 204 654 l 1,119,-1
 145 654 l 1,120,121
 141 625 141 625 145.5 599.5 c 128,-1,122
 150 574 150 574 163 546 c 1,123,-1
 225 546 l 1,124,-1
 233 546 l 1,125,-1
 233 534 l 1,126,-1
 227 534 l 1,127,-1
 204 534 l 1,128,129
 236 487 236 487 287 460 c 128,-1,130
 338 433 338 433 402 433 c 0,131,132
 451 433 451 433 494 450.5 c 128,-1,133
 537 468 537 468 569.5 498.5 c 128,-1,134
 602 529 602 529 620.5 569.5 c 128,-1,135
 639 610 639 610 639 657 c 0,136,137
 639 718 639 718 607 770 c 1,138,-1
 620 778 l 1,139,-1
 620 777 l 1,62,63
141 546 m 1,140,141
 130 574 130 574 126 599.5 c 128,-1,142
 122 625 122 625 127 654 c 1,143,-1
 73 654 l 1,144,-1
 73 546 l 1,145,-1
 141 546 l 1,140,141
78 669 m 1,146,-1
 65 669 l 1,147,148
 63 674 63 674 58.5 678.5 c 128,-1,149
 54 683 54 683 47 684 c 0,150,151
 39 684 39 684 32 678 c 128,-1,152
 25 672 25 672 25 664 c 256,153,154
 25 656 25 656 31 648.5 c 128,-1,155
 37 641 37 641 46 641 c 0,156,157
 52 641 52 641 58 643 c 1,158,-1
 58 631 l 2,159,160
 55 630 55 630 52.5 629.5 c 128,-1,161
 50 629 50 629 47 629 c 0,162,163
 33 629 33 629 23.5 638 c 128,-1,164
 14 647 14 647 14 661 c 256,165,166
 14 675 14 675 23.5 684 c 128,-1,167
 33 693 33 693 47 693 c 0,168,169
 58 693 58 693 66 686 c 128,-1,170
 74 679 74 679 78 669 c 1,146,-1
EndSplineSet
EndChar

StartChar: acute
Encoding: 171 171 158
Width: 401
Flags: W
LayerCount: 2
Back
Fore
SplineSet
346 506 m 2,0,-1
 114 418 l 2,1,2
 102 413 102 413 93.5 418.5 c 128,-1,3
 85 424 85 424 81.5 432.5 c 128,-1,4
 78 441 78 441 81 450.5 c 128,-1,5
 84 460 84 460 96 465 c 2,6,-1
 328 553 l 2,7,8
 340 557 340 557 348.5 552 c 128,-1,9
 357 547 357 547 360.5 538.5 c 128,-1,10
 364 530 364 530 361 520 c 128,-1,11
 358 510 358 510 346 506 c 2,0,-1
EndSplineSet
EndChar

StartChar: dieresis
Encoding: 172 172 159
Width: 393
Flags: W
LayerCount: 2
Back
Fore
SplineSet
341 499 m 2,0,1
 341 491 341 491 335 485 c 128,-1,2
 329 479 329 479 321 479 c 2,3,-1
 252 479 l 2,4,5
 244 479 244 479 238 485 c 128,-1,6
 232 491 232 491 232 499 c 2,7,-1
 232 568 l 2,8,9
 232 576 232 576 238 582 c 128,-1,10
 244 588 244 588 252 588 c 2,11,-1
 321 588 l 2,12,13
 329 588 329 588 335 582 c 128,-1,14
 341 576 341 576 341 568 c 2,15,-1
 341 499 l 2,0,1
171 499 m 2,16,17
 171 491 171 491 165 485 c 128,-1,18
 159 479 159 479 151 479 c 2,19,-1
 82 479 l 2,20,21
 74 479 74 479 68 485 c 128,-1,22
 62 491 62 491 62 499 c 2,23,-1
 62 568 l 2,24,25
 62 576 62 576 68 582 c 128,-1,26
 74 588 74 588 82 588 c 2,27,-1
 151 588 l 2,28,29
 159 588 159 588 165 582 c 128,-1,30
 171 576 171 576 171 568 c 2,31,-1
 171 499 l 2,16,17
EndSplineSet
EndChar

StartChar: notequal
Encoding: 173 173 160
Width: 1161
Flags: W
LayerCount: 2
Back
Fore
SplineSet
740 555 m 2,0,-1
 740 528 l 1,1,-1
 592 529 l 1,2,-1
 592 450 l 1,3,-1
 740 450 l 1,4,-1
 740 422 l 2,5,6
 740 406 740 406 731 396 c 128,-1,7
 722 386 722 386 704 386 c 2,8,-1
 592 386 l 1,9,-1
 592 358 l 2,10,11
 592 342 592 342 582 334 c 128,-1,12
 572 326 572 326 560.5 326 c 128,-1,13
 549 326 549 326 539 334 c 128,-1,14
 529 342 529 342 529 358 c 2,15,-1
 529 386 l 1,16,-1
 378 386 l 1,17,-1
 378 413 l 2,18,19
 378 429 378 429 381.5 439.5 c 128,-1,20
 385 450 385 450 406 450 c 2,21,-1
 529 450 l 1,22,-1
 529 529 l 1,23,-1
 413 529 l 2,24,25
 395 529 395 529 386.5 538.5 c 128,-1,26
 378 548 378 548 378 564 c 2,27,-1
 378 591 l 1,28,-1
 529 592 l 1,29,-1
 529 641 l 2,30,31
 529 657 529 657 539 664.5 c 128,-1,32
 549 672 549 672 560.5 672 c 128,-1,33
 572 672 572 672 582 664 c 128,-1,34
 592 656 592 656 592 640 c 2,35,-1
 592 592 l 1,36,-1
 712 592 l 2,37,38
 733 592 733 592 736.5 581.5 c 128,-1,39
 740 571 740 571 740 555 c 2,0,-1
1065 492 m 256,40,41
 1065 390 1065 390 1028 300 c 128,-1,42
 991 210 991 210 927.5 143.5 c 128,-1,43
 864 77 864 77 778 38 c 128,-1,44
 692 -1 692 -1 595 -1 c 0,45,46
 502 -1 502 -1 420 35.5 c 128,-1,47
 338 72 338 72 275 133 c 1,48,-1
 335 183 l 1,49,50
 387 131 387 131 454 102 c 128,-1,51
 521 73 521 73 597 73 c 0,52,53
 677 73 677 73 747 106 c 128,-1,54
 817 139 817 139 869.5 196 c 128,-1,55
 922 253 922 253 952 329 c 128,-1,56
 982 405 982 405 982 492 c 256,57,58
 982 579 982 579 952 655.5 c 128,-1,59
 922 732 922 732 869.5 789 c 128,-1,60
 817 846 817 846 747 879 c 128,-1,61
 677 912 677 912 597 912 c 0,62,63
 498 912 498 912 415 863 c 128,-1,64
 332 814 332 814 279 733 c 1,65,-1
 227 772 l 1,66,67
 204 741 204 741 193 718 c 128,-1,68
 182 695 182 695 177 687 c 1,69,-1
 159 697 l 1,70,71
 169 721 169 721 185 744.5 c 128,-1,72
 201 768 201 768 218 791 c 0,73,74
 251 835 251 835 292.5 871 c 128,-1,75
 334 907 334 907 382 932.5 c 128,-1,76
 430 958 430 958 484 972 c 128,-1,77
 538 986 538 986 595 986 c 0,78,79
 692 986 692 986 778 947 c 128,-1,80
 864 908 864 908 927.5 841 c 128,-1,81
 991 774 991 774 1028 684 c 128,-1,82
 1065 594 1065 594 1065 492 c 256,40,41
224 846 m 1,83,84
 203 823 203 823 183.5 796.5 c 128,-1,85
 164 770 164 770 147 741 c 128,-1,86
 130 712 130 712 118 680 c 128,-1,87
 106 648 106 648 100 615 c 0,88,89
 92 570 92 570 94 526 c 128,-1,90
 96 482 96 482 106 440 c 128,-1,91
 116 398 116 398 134 359.5 c 128,-1,92
 152 321 152 321 175 288 c 1,93,-1
 107 245 l 1,94,95
 50 324 50 324 23 418 c 128,-1,96
 -4 512 -4 512 15 619 c 0,97,98
 22 660 22 660 36 700 c 128,-1,99
 50 740 50 740 69.5 777 c 128,-1,100
 89 814 89 814 113 846.5 c 128,-1,101
 137 879 137 879 164 906 c 1,102,-1
 214 863 l 1,103,104
 221 872 221 872 228 879 c 128,-1,105
 235 886 235 886 243.5 893.5 c 128,-1,106
 252 901 252 901 262.5 909 c 128,-1,107
 273 917 273 917 288 928 c 1,108,-1
 302 916 l 1,109,110
 279 898 279 898 258 880.5 c 128,-1,111
 237 863 237 863 225 846 c 1,112,-1
 224 846 l 1,83,84
1501 249 m 1,113,-1
 1115 249 l 1,114,-1
 1115 -67 l 1,115,-1
 208 -67 l 1,116,-1
 208 364 l 1,117,-1
 208 372 l 1,118,-1
 227 371 l 1,119,-1
 227 364 l 1,120,-1
 227 -50 l 1,121,-1
 1097 -50 l 1,122,-1
 1097 266 l 1,123,-1
 1501 266 l 1,124,-1
 1509 266 l 1,125,-1
 1509 249 l 1,126,-1
 1501 249 l 1,113,-1
EndSplineSet
EndChar

StartChar: AE
Encoding: 174 174 161
Width: 1161
Flags: W
LayerCount: 2
Back
Fore
SplineSet
839 221 m 1,0,-1
 642 221 l 1,1,-1
 552 221 l 1,2,-1
 552 472 l 1,3,-1
 399 472 l 1,4,-1
 400 221 l 1,5,-1
 322 221 l 1,6,-1
 322 657 l 2,7,8
 322 676 322 676 330 701 c 128,-1,9
 338 726 338 726 353 748 c 128,-1,10
 368 770 368 770 390 785 c 128,-1,11
 412 800 412 800 441 800 c 2,12,-1
 513 800 l 1,13,-1
 759 800 l 2,14,15
 784 800 784 800 793 778.5 c 128,-1,16
 802 757 802 757 802 731 c 1,17,-1
 664 731 l 2,18,19
 653 731 653 731 647 726 c 128,-1,20
 641 721 641 721 638.5 713 c 128,-1,21
 636 705 636 705 635.5 694.5 c 128,-1,22
 635 684 635 684 635 674 c 2,23,-1
 635 537 l 1,24,-1
 726 537 l 2,25,26
 754 537 754 537 764.5 521.5 c 128,-1,27
 775 506 775 506 775 469 c 1,28,-1
 635 469 l 1,29,-1
 635 294 l 1,30,-1
 789 294 l 2,31,32
 807 294 807 294 817 287 c 128,-1,33
 827 280 827 280 832 269.5 c 128,-1,34
 837 259 837 259 838 246 c 128,-1,35
 839 233 839 233 839 221 c 1,0,-1
553 537 m 1,36,-1
 553 615 l 2,37,38
 553 637 553 637 551 654 c 128,-1,39
 549 671 549 671 541.5 682 c 128,-1,40
 534 693 534 693 519 698.5 c 128,-1,41
 504 704 504 704 478 704 c 0,42,43
 431 704 431 704 415.5 681 c 128,-1,44
 400 658 400 658 400 615 c 2,45,-1
 400 537 l 1,46,-1
 553 537 l 1,36,-1
1065 492 m 256,47,48
 1065 390 1065 390 1028 300 c 128,-1,49
 991 210 991 210 927.5 143.5 c 128,-1,50
 864 77 864 77 778 38 c 128,-1,51
 692 -1 692 -1 595 -1 c 0,52,53
 502 -1 502 -1 420 35.5 c 128,-1,54
 338 72 338 72 275 133 c 1,55,-1
 335 183 l 1,56,57
 387 131 387 131 454 102 c 128,-1,58
 521 73 521 73 597 73 c 0,59,60
 677 73 677 73 747 106 c 128,-1,61
 817 139 817 139 869.5 196 c 128,-1,62
 922 253 922 253 952 329 c 128,-1,63
 982 405 982 405 982 492 c 256,64,65
 982 579 982 579 952 655.5 c 128,-1,66
 922 732 922 732 869.5 789 c 128,-1,67
 817 846 817 846 747 879 c 128,-1,68
 677 912 677 912 597 912 c 0,69,70
 498 912 498 912 415 863 c 128,-1,71
 332 814 332 814 279 733 c 1,72,-1
 227 772 l 1,73,74
 204 741 204 741 193 718 c 128,-1,75
 182 695 182 695 177 687 c 1,76,-1
 159 697 l 1,77,78
 169 721 169 721 185 744.5 c 128,-1,79
 201 768 201 768 218 791 c 0,80,81
 251 835 251 835 292.5 871 c 128,-1,82
 334 907 334 907 382 932.5 c 128,-1,83
 430 958 430 958 484 972 c 128,-1,84
 538 986 538 986 595 986 c 0,85,86
 692 986 692 986 778 947 c 128,-1,87
 864 908 864 908 927.5 841 c 128,-1,88
 991 774 991 774 1028 684 c 128,-1,89
 1065 594 1065 594 1065 492 c 256,47,48
224 846 m 1,90,91
 203 823 203 823 183.5 796.5 c 128,-1,92
 164 770 164 770 147 741 c 128,-1,93
 130 712 130 712 118 680 c 128,-1,94
 106 648 106 648 100 615 c 0,95,96
 92 570 92 570 94 526 c 128,-1,97
 96 482 96 482 106 440 c 128,-1,98
 116 398 116 398 134 359.5 c 128,-1,99
 152 321 152 321 175 288 c 1,100,-1
 107 245 l 1,101,102
 50 324 50 324 23 418 c 128,-1,103
 -4 512 -4 512 15 619 c 0,104,105
 22 660 22 660 36 700 c 128,-1,106
 50 740 50 740 69.5 777 c 128,-1,107
 89 814 89 814 113 846.5 c 128,-1,108
 137 879 137 879 164 906 c 1,109,-1
 214 863 l 1,110,111
 221 872 221 872 228 879 c 128,-1,112
 235 886 235 886 243.5 893.5 c 128,-1,113
 252 901 252 901 262.5 909 c 128,-1,114
 273 917 273 917 288 928 c 1,115,-1
 302 916 l 1,116,117
 279 898 279 898 258 880.5 c 128,-1,118
 237 863 237 863 225 846 c 1,119,-1
 224 846 l 1,90,91
1501 249 m 1,120,-1
 1115 249 l 1,121,-1
 1115 -67 l 1,122,-1
 208 -67 l 1,123,-1
 208 364 l 1,124,-1
 208 372 l 1,125,-1
 227 371 l 1,126,-1
 227 364 l 1,127,-1
 227 -50 l 1,128,-1
 1097 -50 l 1,129,-1
 1097 266 l 1,130,-1
 1501 266 l 1,131,-1
 1509 266 l 1,132,-1
 1509 249 l 1,133,-1
 1501 249 l 1,120,-1
EndSplineSet
EndChar

StartChar: infinity
Encoding: 176 176 163
Width: 1161
Flags: W
LayerCount: 2
Back
Fore
SplineSet
825 452 m 2,0,1
 825 438 825 438 814.5 427 c 128,-1,2
 804 416 804 416 788 408.5 c 128,-1,3
 772 401 772 401 754 396.5 c 128,-1,4
 736 392 736 392 721 392 c 2,5,-1
 616 392 l 2,6,7
 604 392 604 392 593.5 401 c 128,-1,8
 583 410 583 410 583 421 c 1,9,10
 583 411 583 411 573.5 401.5 c 128,-1,11
 564 392 564 392 553 392 c 2,12,-1
 452 392 l 2,13,14
 437 392 437 392 419 396.5 c 128,-1,15
 401 401 401 401 385 408.5 c 128,-1,16
 369 416 369 416 358 427 c 128,-1,17
 347 438 347 438 347 452 c 2,18,-1
 347 516 l 1,19,-1
 347 572 l 2,20,21
 347 585 347 585 358 596 c 128,-1,22
 369 607 369 607 385 614.5 c 128,-1,23
 401 622 401 622 419 626.5 c 128,-1,24
 437 631 437 631 452 631 c 2,25,-1
 553 631 l 2,26,27
 564 631 564 631 573.5 622 c 128,-1,28
 583 613 583 613 583 603 c 1,29,30
 583 614 583 614 593 622.5 c 128,-1,31
 603 631 603 631 616 631 c 2,32,-1
 629 631 l 1,33,-1
 721 631 l 2,34,35
 736 631 736 631 754 627 c 128,-1,36
 772 623 772 623 787.5 615 c 128,-1,37
 803 607 803 607 814 596 c 128,-1,38
 825 585 825 585 825 572 c 2,39,-1
 825 522 l 1,40,-1
 825 452 l 2,0,1
760 479 m 2,41,-1
 760 518 l 1,42,-1
 760 546 l 2,43,44
 760 554 760 554 754.5 561 c 128,-1,45
 749 568 749 568 741 573 c 128,-1,46
 733 578 733 578 723.5 580.5 c 128,-1,47
 714 583 714 583 706 583 c 2,48,-1
 644 583 l 2,49,50
 616 583 616 583 616 566 c 2,51,-1
 616 441 l 1,52,-1
 706 441 l 2,53,54
 714 441 714 441 723.5 444 c 128,-1,55
 733 447 733 447 741 452 c 128,-1,56
 749 457 749 457 754.5 464 c 128,-1,57
 760 471 760 471 760 479 c 2,41,-1
553 458 m 2,58,-1
 553 583 l 1,59,-1
 465 583 l 2,60,61
 457 583 457 583 448 580 c 128,-1,62
 439 577 439 577 430.5 572 c 128,-1,63
 422 567 422 567 416.5 560 c 128,-1,64
 411 553 411 553 411 545 c 2,65,-1
 411 520 l 1,66,-1
 411 478 l 2,67,68
 411 470 411 470 416.5 463 c 128,-1,69
 422 456 422 456 430.5 451 c 128,-1,70
 439 446 439 446 448 443 c 128,-1,71
 457 440 457 440 465 440 c 2,72,-1
 527 440 l 2,73,74
 538 440 538 440 545.5 445 c 128,-1,75
 553 450 553 450 553 458 c 2,58,-1
1065 492 m 256,76,77
 1065 390 1065 390 1028 300 c 128,-1,78
 991 210 991 210 927.5 143.5 c 128,-1,79
 864 77 864 77 778 38 c 128,-1,80
 692 -1 692 -1 595 -1 c 0,81,82
 502 -1 502 -1 420 35.5 c 128,-1,83
 338 72 338 72 275 133 c 1,84,-1
 335 183 l 1,85,86
 387 131 387 131 454 102 c 128,-1,87
 521 73 521 73 597 73 c 0,88,89
 677 73 677 73 747 106 c 128,-1,90
 817 139 817 139 869.5 196 c 128,-1,91
 922 253 922 253 952 329 c 128,-1,92
 982 405 982 405 982 492 c 256,93,94
 982 579 982 579 952 655.5 c 128,-1,95
 922 732 922 732 869.5 789 c 128,-1,96
 817 846 817 846 747 879 c 128,-1,97
 677 912 677 912 597 912 c 0,98,99
 498 912 498 912 415 863 c 128,-1,100
 332 814 332 814 279 733 c 1,101,-1
 227 772 l 1,102,103
 204 741 204 741 193 718 c 128,-1,104
 182 695 182 695 177 687 c 1,105,-1
 159 697 l 1,106,107
 169 721 169 721 185 744.5 c 128,-1,108
 201 768 201 768 218 791 c 0,109,110
 251 835 251 835 292.5 871 c 128,-1,111
 334 907 334 907 382 932.5 c 128,-1,112
 430 958 430 958 484 972 c 128,-1,113
 538 986 538 986 595 986 c 0,114,115
 692 986 692 986 778 947 c 128,-1,116
 864 908 864 908 927.5 841 c 128,-1,117
 991 774 991 774 1028 684 c 128,-1,118
 1065 594 1065 594 1065 492 c 256,76,77
224 846 m 1,119,120
 203 823 203 823 183.5 796.5 c 128,-1,121
 164 770 164 770 147 741 c 128,-1,122
 130 712 130 712 118 680 c 128,-1,123
 106 648 106 648 100 615 c 0,124,125
 92 570 92 570 94 526 c 128,-1,126
 96 482 96 482 106 440 c 128,-1,127
 116 398 116 398 134 359.5 c 128,-1,128
 152 321 152 321 175 288 c 1,129,-1
 107 245 l 1,130,131
 50 324 50 324 23 418 c 128,-1,132
 -4 512 -4 512 15 619 c 0,133,134
 22 660 22 660 36 700 c 128,-1,135
 50 740 50 740 69.5 777 c 128,-1,136
 89 814 89 814 113 846.5 c 128,-1,137
 137 879 137 879 164 906 c 1,138,-1
 214 863 l 1,139,140
 221 872 221 872 228 879 c 128,-1,141
 235 886 235 886 243.5 893.5 c 128,-1,142
 252 901 252 901 262.5 909 c 128,-1,143
 273 917 273 917 288 928 c 1,144,-1
 302 916 l 1,145,146
 279 898 279 898 258 880.5 c 128,-1,147
 237 863 237 863 225 846 c 1,148,-1
 224 846 l 1,119,120
1501 249 m 1,149,-1
 1115 249 l 1,150,-1
 1115 -67 l 1,151,-1
 208 -67 l 1,152,-1
 208 364 l 1,153,-1
 208 372 l 1,154,-1
 227 371 l 1,155,-1
 227 364 l 1,156,-1
 227 -50 l 1,157,-1
 1097 -50 l 1,158,-1
 1097 266 l 1,159,-1
 1501 266 l 1,160,-1
 1509 266 l 1,161,-1
 1509 249 l 1,162,-1
 1501 249 l 1,149,-1
EndSplineSet
EndChar

StartChar: plusminus
Encoding: 177 177 164
Width: 1161
Flags: W
LayerCount: 2
Back
Fore
SplineSet
746 618 m 1,0,-1
 745 578 l 2,1,2
 745 562 745 562 735.5 553.5 c 128,-1,3
 726 545 726 545 712 545 c 2,4,-1
 607 545 l 1,5,-1
 607 401 l 1,6,-1
 569 401 l 2,7,8
 550 401 550 401 541.5 412 c 128,-1,9
 533 423 533 423 533 437 c 2,10,-1
 533 545 l 1,11,-1
 395 545 l 1,12,-1
 395 583 l 2,13,14
 394 618 394 618 430 618 c 2,15,-1
 534 618 l 1,16,-1
 533 741 l 1,17,-1
 567 741 l 2,18,19
 607 743 607 743 607 702 c 2,20,-1
 607 618 l 1,21,-1
 746 618 l 1,0,-1
755 341 m 2,22,23
 755 325 755 325 746.5 315.5 c 128,-1,24
 738 306 738 306 720 306 c 2,25,-1
 394 306 l 1,26,-1
 394 332 l 2,27,28
 394 348 394 348 397.5 358.5 c 128,-1,29
 401 369 401 369 421 369 c 2,30,-1
 755 369 l 1,31,-1
 755 341 l 2,22,23
1065 492 m 256,32,33
 1065 390 1065 390 1028 300 c 128,-1,34
 991 210 991 210 927.5 143.5 c 128,-1,35
 864 77 864 77 778 38 c 128,-1,36
 692 -1 692 -1 595 -1 c 0,37,38
 502 -1 502 -1 420 35.5 c 128,-1,39
 338 72 338 72 275 133 c 1,40,-1
 335 183 l 1,41,42
 387 131 387 131 454 102 c 128,-1,43
 521 73 521 73 597 73 c 0,44,45
 677 73 677 73 747 106 c 128,-1,46
 817 139 817 139 869.5 196 c 128,-1,47
 922 253 922 253 952 329 c 128,-1,48
 982 405 982 405 982 492 c 256,49,50
 982 579 982 579 952 655.5 c 128,-1,51
 922 732 922 732 869.5 789 c 128,-1,52
 817 846 817 846 747 879 c 128,-1,53
 677 912 677 912 597 912 c 0,54,55
 498 912 498 912 415 863 c 128,-1,56
 332 814 332 814 279 733 c 1,57,-1
 227 772 l 1,58,59
 204 741 204 741 193 718 c 128,-1,60
 182 695 182 695 177 687 c 1,61,-1
 159 697 l 1,62,63
 169 721 169 721 185 744.5 c 128,-1,64
 201 768 201 768 218 791 c 0,65,66
 251 835 251 835 292.5 871 c 128,-1,67
 334 907 334 907 382 932.5 c 128,-1,68
 430 958 430 958 484 972 c 128,-1,69
 538 986 538 986 595 986 c 0,70,71
 692 986 692 986 778 947 c 128,-1,72
 864 908 864 908 927.5 841 c 128,-1,73
 991 774 991 774 1028 684 c 128,-1,74
 1065 594 1065 594 1065 492 c 256,32,33
224 846 m 1,75,76
 203 823 203 823 183.5 796.5 c 128,-1,77
 164 770 164 770 147 741 c 128,-1,78
 130 712 130 712 118 680 c 128,-1,79
 106 648 106 648 100 615 c 0,80,81
 92 570 92 570 94 526 c 128,-1,82
 96 482 96 482 106 440 c 128,-1,83
 116 398 116 398 134 359.5 c 128,-1,84
 152 321 152 321 175 288 c 1,85,-1
 107 245 l 1,86,87
 50 324 50 324 23 418 c 128,-1,88
 -4 512 -4 512 15 619 c 0,89,90
 22 660 22 660 36 700 c 128,-1,91
 50 740 50 740 69.5 777 c 128,-1,92
 89 814 89 814 113 846.5 c 128,-1,93
 137 879 137 879 164 906 c 1,94,-1
 214 863 l 1,95,96
 221 872 221 872 228 879 c 128,-1,97
 235 886 235 886 243.5 893.5 c 128,-1,98
 252 901 252 901 262.5 909 c 128,-1,99
 273 917 273 917 288 928 c 1,100,-1
 302 916 l 1,101,102
 279 898 279 898 258 880.5 c 128,-1,103
 237 863 237 863 225 846 c 1,104,-1
 224 846 l 1,75,76
1501 249 m 1,105,-1
 1115 249 l 1,106,-1
 1115 -67 l 1,107,-1
 208 -67 l 1,108,-1
 208 364 l 1,109,-1
 208 372 l 1,110,-1
 227 371 l 1,111,-1
 227 364 l 1,112,-1
 227 -50 l 1,113,-1
 1097 -50 l 1,114,-1
 1097 266 l 1,115,-1
 1501 266 l 1,116,-1
 1509 266 l 1,117,-1
 1509 249 l 1,118,-1
 1501 249 l 1,105,-1
EndSplineSet
EndChar

StartChar: lessequal
Encoding: 178 178 165
Width: 1161
Flags: W
LayerCount: 2
Back
Fore
SplineSet
702 409 m 2,0,1
 713 398 713 398 711.5 385.5 c 128,-1,2
 710 373 710 373 702 364.5 c 128,-1,3
 694 356 694 356 681 354.5 c 128,-1,4
 668 353 668 353 657 364 c 2,5,-1
 441 580 l 1,6,-1
 652 791 l 2,7,8
 663 802 663 802 676 800.5 c 128,-1,9
 689 799 689 799 697 791 c 128,-1,10
 705 783 705 783 706.5 770 c 128,-1,11
 708 757 708 757 697 746 c 2,12,-1
 531 580 l 1,13,-1
 702 409 l 2,0,1
760 306 m 2,14,15
 760 290 760 290 751 280 c 128,-1,16
 742 270 742 270 724 270 c 2,17,-1
 398 270 l 1,18,-1
 398 297 l 2,19,20
 398 313 398 313 401.5 323.5 c 128,-1,21
 405 334 405 334 426 334 c 2,22,-1
 760 334 l 1,23,-1
 760 306 l 2,14,15
1065 492 m 256,24,25
 1065 390 1065 390 1028 300 c 128,-1,26
 991 210 991 210 927.5 143.5 c 128,-1,27
 864 77 864 77 778 38 c 128,-1,28
 692 -1 692 -1 595 -1 c 0,29,30
 502 -1 502 -1 420 35.5 c 128,-1,31
 338 72 338 72 275 133 c 1,32,-1
 335 183 l 1,33,34
 387 131 387 131 454 102 c 128,-1,35
 521 73 521 73 597 73 c 0,36,37
 677 73 677 73 747 106 c 128,-1,38
 817 139 817 139 869.5 196 c 128,-1,39
 922 253 922 253 952 329 c 128,-1,40
 982 405 982 405 982 492 c 256,41,42
 982 579 982 579 952 655.5 c 128,-1,43
 922 732 922 732 869.5 789 c 128,-1,44
 817 846 817 846 747 879 c 128,-1,45
 677 912 677 912 597 912 c 0,46,47
 498 912 498 912 415 863 c 128,-1,48
 332 814 332 814 279 733 c 1,49,-1
 227 772 l 1,50,51
 204 741 204 741 193 718 c 128,-1,52
 182 695 182 695 177 687 c 1,53,-1
 159 697 l 1,54,55
 169 721 169 721 185 744.5 c 128,-1,56
 201 768 201 768 218 791 c 0,57,58
 251 835 251 835 292.5 871 c 128,-1,59
 334 907 334 907 382 932.5 c 128,-1,60
 430 958 430 958 484 972 c 128,-1,61
 538 986 538 986 595 986 c 0,62,63
 692 986 692 986 778 947 c 128,-1,64
 864 908 864 908 927.5 841 c 128,-1,65
 991 774 991 774 1028 684 c 128,-1,66
 1065 594 1065 594 1065 492 c 256,24,25
224 846 m 1,67,68
 203 823 203 823 183.5 796.5 c 128,-1,69
 164 770 164 770 147 741 c 128,-1,70
 130 712 130 712 118 680 c 128,-1,71
 106 648 106 648 100 615 c 0,72,73
 92 570 92 570 94 526 c 128,-1,74
 96 482 96 482 106 440 c 128,-1,75
 116 398 116 398 134 359.5 c 128,-1,76
 152 321 152 321 175 288 c 1,77,-1
 107 245 l 1,78,79
 50 324 50 324 23 418 c 128,-1,80
 -4 512 -4 512 15 619 c 0,81,82
 22 660 22 660 36 700 c 128,-1,83
 50 740 50 740 69.5 777 c 128,-1,84
 89 814 89 814 113 846.5 c 128,-1,85
 137 879 137 879 164 906 c 1,86,-1
 214 863 l 1,87,88
 221 872 221 872 228 879 c 128,-1,89
 235 886 235 886 243.5 893.5 c 128,-1,90
 252 901 252 901 262.5 909 c 128,-1,91
 273 917 273 917 288 928 c 1,92,-1
 302 916 l 1,93,94
 279 898 279 898 258 880.5 c 128,-1,95
 237 863 237 863 225 846 c 1,96,-1
 224 846 l 1,67,68
1501 249 m 1,97,-1
 1115 249 l 1,98,-1
 1115 -67 l 1,99,-1
 208 -67 l 1,100,-1
 208 364 l 1,101,-1
 208 372 l 1,102,-1
 227 371 l 1,103,-1
 227 364 l 1,104,-1
 227 -50 l 1,105,-1
 1097 -50 l 1,106,-1
 1097 266 l 1,107,-1
 1501 266 l 1,108,-1
 1509 266 l 1,109,-1
 1509 249 l 1,110,-1
 1501 249 l 1,97,-1
EndSplineSet
EndChar

StartChar: greaterequal
Encoding: 179 179 166
Width: 1161
Flags: W
LayerCount: 2
Back
Fore
SplineSet
751 579 m 1,0,-1
 535 363 l 2,1,2
 524 352 524 352 511.5 353.5 c 128,-1,3
 499 355 499 355 491 363 c 128,-1,4
 483 371 483 371 481.5 384 c 128,-1,5
 480 397 480 397 491 408 c 2,6,-1
 662 579 l 1,7,-1
 496 745 l 2,8,9
 485 756 485 756 486.5 768.5 c 128,-1,10
 488 781 488 781 496 789.5 c 128,-1,11
 504 798 504 798 517 799.5 c 128,-1,12
 530 801 530 801 541 790 c 2,13,-1
 751 579 l 1,0,-1
795 295 m 2,14,-1
 794 269 l 1,15,-1
 469 269 l 2,16,17
 451 269 451 269 442 278.5 c 128,-1,18
 433 288 433 288 433 304 c 2,19,-1
 433 332 l 1,20,-1
 767 332 l 2,21,22
 788 332 788 332 791.5 321.5 c 128,-1,23
 795 311 795 311 795 295 c 2,14,-1
1065 492 m 256,24,25
 1065 390 1065 390 1028 300 c 128,-1,26
 991 210 991 210 927.5 143.5 c 128,-1,27
 864 77 864 77 778 38 c 128,-1,28
 692 -1 692 -1 595 -1 c 0,29,30
 502 -1 502 -1 420 35.5 c 128,-1,31
 338 72 338 72 275 133 c 1,32,-1
 335 183 l 1,33,34
 387 131 387 131 454 102 c 128,-1,35
 521 73 521 73 597 73 c 0,36,37
 677 73 677 73 747 106 c 128,-1,38
 817 139 817 139 869.5 196 c 128,-1,39
 922 253 922 253 952 329 c 128,-1,40
 982 405 982 405 982 492 c 256,41,42
 982 579 982 579 952 655.5 c 128,-1,43
 922 732 922 732 869.5 789 c 128,-1,44
 817 846 817 846 747 879 c 128,-1,45
 677 912 677 912 597 912 c 0,46,47
 498 912 498 912 415 863 c 128,-1,48
 332 814 332 814 279 733 c 1,49,-1
 227 772 l 1,50,51
 204 741 204 741 193 718 c 128,-1,52
 182 695 182 695 177 687 c 1,53,-1
 159 697 l 1,54,55
 169 721 169 721 185 744.5 c 128,-1,56
 201 768 201 768 218 791 c 0,57,58
 251 835 251 835 292.5 871 c 128,-1,59
 334 907 334 907 382 932.5 c 128,-1,60
 430 958 430 958 484 972 c 128,-1,61
 538 986 538 986 595 986 c 0,62,63
 692 986 692 986 778 947 c 128,-1,64
 864 908 864 908 927.5 841 c 128,-1,65
 991 774 991 774 1028 684 c 128,-1,66
 1065 594 1065 594 1065 492 c 256,24,25
224 846 m 1,67,68
 203 823 203 823 183.5 796.5 c 128,-1,69
 164 770 164 770 147 741 c 128,-1,70
 130 712 130 712 118 680 c 128,-1,71
 106 648 106 648 100 615 c 0,72,73
 92 570 92 570 94 526 c 128,-1,74
 96 482 96 482 106 440 c 128,-1,75
 116 398 116 398 134 359.5 c 128,-1,76
 152 321 152 321 175 288 c 1,77,-1
 107 245 l 1,78,79
 50 324 50 324 23 418 c 128,-1,80
 -4 512 -4 512 15 619 c 0,81,82
 22 660 22 660 36 700 c 128,-1,83
 50 740 50 740 69.5 777 c 128,-1,84
 89 814 89 814 113 846.5 c 128,-1,85
 137 879 137 879 164 906 c 1,86,-1
 214 863 l 1,87,88
 221 872 221 872 228 879 c 128,-1,89
 235 886 235 886 243.5 893.5 c 128,-1,90
 252 901 252 901 262.5 909 c 128,-1,91
 273 917 273 917 288 928 c 1,92,-1
 302 916 l 1,93,94
 279 898 279 898 258 880.5 c 128,-1,95
 237 863 237 863 225 846 c 1,96,-1
 224 846 l 1,67,68
1501 249 m 1,97,-1
 1115 249 l 1,98,-1
 1115 -67 l 1,99,-1
 208 -67 l 1,100,-1
 208 364 l 1,101,-1
 208 372 l 1,102,-1
 227 371 l 1,103,-1
 227 364 l 1,104,-1
 227 -50 l 1,105,-1
 1097 -50 l 1,106,-1
 1097 266 l 1,107,-1
 1501 266 l 1,108,-1
 1509 266 l 1,109,-1
 1509 249 l 1,110,-1
 1501 249 l 1,97,-1
EndSplineSet
EndChar

StartChar: yen
Encoding: 180 180 167
Width: 1161
Flags: W
LayerCount: 2
Back
Fore
SplineSet
458 399 m 1,0,-1
 458 425 l 2,1,2
 458 441 458 441 460.5 451 c 128,-1,3
 463 461 463 461 479 461 c 2,4,-1
 568 461 l 1,5,6
 565 481 565 481 554 489.5 c 128,-1,7
 543 498 543 498 515 498 c 2,8,-1
 485 498 l 2,9,10
 468 498 468 498 456.5 508.5 c 128,-1,11
 445 519 445 519 445 536 c 2,12,-1
 444 761 l 2,13,14
 445 782 445 782 453 791 c 128,-1,15
 461 800 461 800 487 800 c 2,16,-1
 517 800 l 1,17,-1
 517 624 l 2,18,19
 517 605 517 605 525 585.5 c 128,-1,20
 533 566 533 566 556 566 c 2,21,-1
 611 566 l 2,22,23
 636 566 636 566 646.5 581 c 128,-1,24
 657 596 657 596 657 628 c 2,25,-1
 657 800 l 1,26,-1
 727 800 l 1,27,-1
 727 499 l 1,28,-1
 640 500 l 1,29,-1
 640 461 l 1,30,-1
 733 461 l 1,31,-1
 733 434 l 2,32,33
 733 418 733 418 726.5 408.5 c 128,-1,34
 720 399 720 399 706 399 c 2,35,-1
 640 399 l 1,36,-1
 640 370 l 1,37,-1
 733 369 l 1,38,-1
 733 342 l 2,39,40
 733 326 733 326 726.5 316.5 c 128,-1,41
 720 307 720 307 706 307 c 2,42,-1
 640 307 l 1,43,-1
 640 221 l 1,44,-1
 569 221 l 1,45,-1
 569 307 l 1,46,-1
 458 307 l 1,47,-1
 458 333 l 2,48,49
 458 349 458 349 460.5 359.5 c 128,-1,50
 463 370 463 370 479 370 c 2,51,-1
 569 370 l 1,52,-1
 569 399 l 1,53,-1
 458 399 l 1,0,-1
97 62 m 1,54,-1
 58 62 l 1,55,-1
 58 71 l 2,56,57
 58 77 58 77 59 80.5 c 128,-1,58
 60 84 60 84 65 84 c 2,59,-1
 96 84 l 1,60,61
 95 97 95 97 77 97 c 2,62,-1
 67 97 l 2,63,64
 53 97 53 97 53 110 c 2,65,-1
 53 189 l 2,66,67
 53 197 53 197 56 200 c 128,-1,68
 59 203 59 203 68 203 c 2,69,-1
 78 203 l 1,70,-1
 78 141 l 2,71,72
 78 134 78 134 81 127.5 c 128,-1,73
 84 121 84 121 92 121 c 2,74,-1
 111 121 l 2,75,76
 127 121 127 121 127 142 c 2,77,-1
 127 203 l 1,78,-1
 152 203 l 1,79,-1
 152 97 l 1,80,-1
 121 98 l 1,81,-1
 121 84 l 1,82,-1
 154 84 l 1,83,-1
 154 74 l 2,84,85
 154 62 154 62 144 62 c 2,86,-1
 121 62 l 1,87,-1
 121 52 l 1,88,-1
 154 52 l 1,89,-1
 154 42 l 2,90,91
 154 30 154 30 144 30 c 2,92,-1
 121 30 l 1,93,-1
 121 0 l 1,94,-1
 96 0 l 1,95,-1
 97 30 l 1,96,-1
 58 30 l 1,97,-1
 58 39 l 2,98,99
 58 45 58 45 59 48.5 c 128,-1,100
 60 52 60 52 65 52 c 2,101,-1
 96 52 l 1,102,-1
 97 63 l 1,103,-1
 97 62 l 1,54,-1
1065 492 m 256,104,105
 1065 390 1065 390 1028 300 c 128,-1,106
 991 210 991 210 927.5 143.5 c 128,-1,107
 864 77 864 77 778 38 c 128,-1,108
 692 -1 692 -1 595 -1 c 0,109,110
 502 -1 502 -1 420 35.5 c 128,-1,111
 338 72 338 72 275 133 c 1,112,-1
 335 183 l 1,113,114
 387 131 387 131 454 102 c 128,-1,115
 521 73 521 73 597 73 c 0,116,117
 677 73 677 73 747 106 c 128,-1,118
 817 139 817 139 869.5 196 c 128,-1,119
 922 253 922 253 952 329 c 128,-1,120
 982 405 982 405 982 492 c 256,121,122
 982 579 982 579 952 655.5 c 128,-1,123
 922 732 922 732 869.5 789 c 128,-1,124
 817 846 817 846 747 879 c 128,-1,125
 677 912 677 912 597 912 c 0,126,127
 498 912 498 912 415 863 c 128,-1,128
 332 814 332 814 279 733 c 1,129,-1
 227 772 l 1,130,131
 204 741 204 741 193 718 c 128,-1,132
 182 695 182 695 177 687 c 1,133,-1
 159 697 l 1,134,135
 169 721 169 721 185 744.5 c 128,-1,136
 201 768 201 768 218 791 c 0,137,138
 251 835 251 835 292.5 871 c 128,-1,139
 334 907 334 907 382 932.5 c 128,-1,140
 430 958 430 958 484 972 c 128,-1,141
 538 986 538 986 595 986 c 0,142,143
 692 986 692 986 778 947 c 128,-1,144
 864 908 864 908 927.5 841 c 128,-1,145
 991 774 991 774 1028 684 c 128,-1,146
 1065 594 1065 594 1065 492 c 256,104,105
224 846 m 1,147,148
 203 823 203 823 183.5 796.5 c 128,-1,149
 164 770 164 770 147 741 c 128,-1,150
 130 712 130 712 118 680 c 128,-1,151
 106 648 106 648 100 615 c 0,152,153
 92 570 92 570 94 526 c 128,-1,154
 96 482 96 482 106 440 c 128,-1,155
 116 398 116 398 134 359.5 c 128,-1,156
 152 321 152 321 175 288 c 1,157,-1
 107 245 l 1,158,159
 50 324 50 324 23 418 c 128,-1,160
 -4 512 -4 512 15 619 c 0,161,162
 22 660 22 660 36 700 c 128,-1,163
 50 740 50 740 69.5 777 c 128,-1,164
 89 814 89 814 113 846.5 c 128,-1,165
 137 879 137 879 164 906 c 1,166,-1
 214 863 l 1,167,168
 221 872 221 872 228 879 c 128,-1,169
 235 886 235 886 243.5 893.5 c 128,-1,170
 252 901 252 901 262.5 909 c 128,-1,171
 273 917 273 917 288 928 c 1,172,-1
 302 916 l 1,173,174
 279 898 279 898 258 880.5 c 128,-1,175
 237 863 237 863 225 846 c 1,176,-1
 224 846 l 1,147,148
1501 249 m 1,177,-1
 1115 249 l 1,178,-1
 1115 -67 l 1,179,-1
 208 -67 l 1,180,-1
 208 364 l 1,181,-1
 208 372 l 1,182,-1
 227 371 l 1,183,-1
 227 364 l 1,184,-1
 227 -50 l 1,185,-1
 1097 -50 l 1,186,-1
 1097 266 l 1,187,-1
 1501 266 l 1,188,-1
 1509 266 l 1,189,-1
 1509 249 l 1,190,-1
 1501 249 l 1,177,-1
EndSplineSet
EndChar

StartChar: mu
Encoding: 181 181 168
Width: 1161
Flags: W
LayerCount: 2
Back
Fore
SplineSet
790 221 m 1,0,-1
 691 221 l 1,1,-1
 691 245 l 1,2,3
 686 231 686 231 678 227 c 128,-1,4
 670 223 670 223 654 221 c 2,5,-1
 521 221 l 2,6,7
 503 221 503 221 487.5 229 c 128,-1,8
 472 237 472 237 460 251 c 1,9,10
 449 238 449 238 435 229.5 c 128,-1,11
 421 221 421 221 404 221 c 2,12,-1
 312 221 l 1,13,-1
 312 293 l 1,14,-1
 362 293 l 2,15,16
 389 293 389 293 406.5 307.5 c 128,-1,17
 424 322 424 322 424 339 c 2,18,-1
 423 800 l 1,19,-1
 482 800 l 2,20,21
 501 800 501 800 508 793 c 128,-1,22
 515 786 515 786 515 767 c 2,23,-1
 515 372 l 2,24,25
 515 364 515 364 519 355 c 128,-1,26
 523 346 523 346 530.5 338 c 128,-1,27
 538 330 538 330 548 324.5 c 128,-1,28
 558 319 558 319 570 319 c 2,29,-1
 643 319 l 2,30,31
 655 319 655 319 665 324.5 c 128,-1,32
 675 330 675 330 682.5 338.5 c 128,-1,33
 690 347 690 347 694.5 356.5 c 128,-1,34
 699 366 699 366 699 374 c 2,35,-1
 699 800 l 1,36,-1
 755 800 l 2,37,38
 777 800 777 800 783.5 793.5 c 128,-1,39
 790 787 790 787 790 763 c 2,40,-1
 790 221 l 1,0,-1
189 0 m 1,41,-1
 154 0 l 1,42,-1
 154 9 l 2,43,44
 152 1 152 1 141 0 c 2,45,-1
 95 0 l 2,46,47
 83 0 83 0 73 10 c 1,48,49
 65 0 65 0 54 0 c 2,50,-1
 22 0 l 1,51,-1
 22 25 l 1,52,-1
 39 25 l 2,53,54
 49 25 49 25 55 30 c 128,-1,55
 61 35 61 35 61 41 c 2,56,-1
 61 203 l 1,57,-1
 81 203 l 2,58,59
 93 203 93 203 93 191 c 2,60,-1
 93 53 l 2,61,62
 93 48 93 48 98.5 41 c 128,-1,63
 104 34 104 34 112 34 c 2,64,-1
 137 34 l 2,65,66
 146 34 146 34 151.5 41 c 128,-1,67
 157 48 157 48 157 53 c 2,68,-1
 157 203 l 1,69,-1
 177 203 l 2,70,71
 185 203 185 203 187 200.5 c 128,-1,72
 189 198 189 198 189 190 c 2,73,-1
 189 0 l 1,41,-1
1065 492 m 256,74,75
 1065 390 1065 390 1028 300 c 128,-1,76
 991 210 991 210 927.5 143.5 c 128,-1,77
 864 77 864 77 778 38 c 128,-1,78
 692 -1 692 -1 595 -1 c 0,79,80
 502 -1 502 -1 420 35.5 c 128,-1,81
 338 72 338 72 275 133 c 1,82,-1
 335 183 l 1,83,84
 387 131 387 131 454 102 c 128,-1,85
 521 73 521 73 597 73 c 0,86,87
 677 73 677 73 747 106 c 128,-1,88
 817 139 817 139 869.5 196 c 128,-1,89
 922 253 922 253 952 329 c 128,-1,90
 982 405 982 405 982 492 c 256,91,92
 982 579 982 579 952 655.5 c 128,-1,93
 922 732 922 732 869.5 789 c 128,-1,94
 817 846 817 846 747 879 c 128,-1,95
 677 912 677 912 597 912 c 0,96,97
 498 912 498 912 415 863 c 128,-1,98
 332 814 332 814 279 733 c 1,99,-1
 227 772 l 1,100,101
 204 741 204 741 193 718 c 128,-1,102
 182 695 182 695 177 687 c 1,103,-1
 159 697 l 1,104,105
 169 721 169 721 185 744.5 c 128,-1,106
 201 768 201 768 218 791 c 0,107,108
 251 835 251 835 292.5 871 c 128,-1,109
 334 907 334 907 382 932.5 c 128,-1,110
 430 958 430 958 484 972 c 128,-1,111
 538 986 538 986 595 986 c 0,112,113
 692 986 692 986 778 947 c 128,-1,114
 864 908 864 908 927.5 841 c 128,-1,115
 991 774 991 774 1028 684 c 128,-1,116
 1065 594 1065 594 1065 492 c 256,74,75
224 846 m 1,117,118
 203 823 203 823 183.5 796.5 c 128,-1,119
 164 770 164 770 147 741 c 128,-1,120
 130 712 130 712 118 680 c 128,-1,121
 106 648 106 648 100 615 c 0,122,123
 92 570 92 570 94 526 c 128,-1,124
 96 482 96 482 106 440 c 128,-1,125
 116 398 116 398 134 359.5 c 128,-1,126
 152 321 152 321 175 288 c 1,127,-1
 107 245 l 1,128,129
 50 324 50 324 23 418 c 128,-1,130
 -4 512 -4 512 15 619 c 0,131,132
 22 660 22 660 36 700 c 128,-1,133
 50 740 50 740 69.5 777 c 128,-1,134
 89 814 89 814 113 846.5 c 128,-1,135
 137 879 137 879 164 906 c 1,136,-1
 214 863 l 1,137,138
 221 872 221 872 228 879 c 128,-1,139
 235 886 235 886 243.5 893.5 c 128,-1,140
 252 901 252 901 262.5 909 c 128,-1,141
 273 917 273 917 288 928 c 1,142,-1
 302 916 l 1,143,144
 279 898 279 898 258 880.5 c 128,-1,145
 237 863 237 863 225 846 c 1,146,-1
 224 846 l 1,117,118
1501 249 m 1,147,-1
 1115 249 l 1,148,-1
 1115 -67 l 1,149,-1
 208 -67 l 1,150,-1
 208 364 l 1,151,-1
 208 372 l 1,152,-1
 227 371 l 1,153,-1
 227 364 l 1,154,-1
 227 -50 l 1,155,-1
 1097 -50 l 1,156,-1
 1097 266 l 1,157,-1
 1501 266 l 1,158,-1
 1509 266 l 1,159,-1
 1509 249 l 1,160,-1
 1501 249 l 1,147,-1
EndSplineSet
EndChar

StartChar: partialdiff
Encoding: 182 182 169
Width: 1161
Flags: W
LayerCount: 2
Back
Fore
SplineSet
751 746 m 1,0,-1
 751 327 l 2,1,2
 751 280 751 280 720 250.5 c 128,-1,3
 689 221 689 221 633 221 c 2,4,-1
 496 221 l 2,5,6
 482 221 482 221 469 222 c 128,-1,7
 456 223 456 223 446.5 228 c 128,-1,8
 437 233 437 233 431.5 243.5 c 128,-1,9
 426 254 426 254 426 273 c 2,10,-1
 426 345 l 2,11,12
 426 373 426 373 426 397.5 c 128,-1,13
 426 422 426 422 427 427 c 0,14,15
 427 432 427 432 427 444 c 128,-1,16
 427 456 427 456 427 468.5 c 128,-1,17
 427 481 427 481 427 492.5 c 128,-1,18
 427 504 427 504 427 509 c 0,19,20
 426 536 426 536 444.5 556 c 128,-1,21
 463 576 463 576 492 576 c 2,22,-1
 558 576 l 2,23,24
 570 576 570 576 590 576 c 128,-1,25
 610 576 610 576 629 572 c 128,-1,26
 648 568 648 568 662 556.5 c 128,-1,27
 676 545 676 545 676 523 c 2,28,-1
 676 719 l 1,29,-1
 478 719 l 1,30,-1
 450 719 l 1,31,-1
 450 783 l 2,32,33
 450 794 450 794 456.5 797 c 128,-1,34
 463 800 463 800 477 800 c 2,35,-1
 751 800 l 1,36,-1
 751 746 l 1,0,-1
633 319 m 2,37,-1
 633 433 l 1,38,-1
 633 465 l 2,39,40
 633 485 633 485 620.5 499.5 c 128,-1,41
 608 514 608 514 591 514 c 2,42,-1
 528 514 l 2,43,44
 505 514 505 514 495.5 503 c 128,-1,45
 486 492 486 492 486 467 c 0,46,47
 486 456 486 456 486 451 c 128,-1,48
 486 446 486 446 486 443 c 128,-1,49
 486 440 486 440 486.5 436.5 c 128,-1,50
 487 433 487 433 487 426 c 0,51,52
 487 420 487 420 486.5 407.5 c 128,-1,53
 486 395 486 395 486 379 c 128,-1,54
 486 363 486 363 486.5 346 c 128,-1,55
 487 329 487 329 487 314 c 0,56,57
 487 301 487 301 496.5 290.5 c 128,-1,58
 506 280 506 280 522 280 c 2,59,-1
 590 280 l 2,60,61
 607 280 607 280 620 287.5 c 128,-1,62
 633 295 633 295 633 319 c 2,37,-1
165 184 m 1,63,-1
 165 37 l 2,64,65
 165 20 165 20 154 10 c 128,-1,66
 143 0 143 0 123 0 c 2,67,-1
 75 0 l 2,68,69
 65 0 65 0 58 2.5 c 128,-1,70
 51 5 51 5 51 18 c 2,71,-1
 51 72 l 1,72,-1
 51 101 l 2,73,74
 51 110 51 110 57.5 117 c 128,-1,75
 64 124 64 124 74 124 c 2,76,-1
 97 124 l 2,77,78
 101 124 101 124 108 124 c 128,-1,79
 115 124 115 124 121.5 122.5 c 128,-1,80
 128 121 128 121 133 117.5 c 128,-1,81
 138 114 138 114 138 106 c 2,82,-1
 138 174 l 1,83,-1
 69 174 l 1,84,-1
 59 174 l 1,85,-1
 59 197 l 2,86,87
 59 203 59 203 69 203 c 2,88,-1
 165 203 l 1,89,-1
 165 184 l 1,63,-1
123 34 m 2,90,-1
 123 74 l 1,91,-1
 123 85 l 2,92,93
 123 93 123 93 119 98 c 128,-1,94
 115 103 115 103 109 103 c 2,95,-1
 86 103 l 2,96,97
 72 103 72 103 72 86 c 2,98,-1
 72 72 l 1,99,-1
 72 33 l 2,100,101
 72 28 72 28 75.5 24.5 c 128,-1,102
 79 21 79 21 84 21 c 2,103,-1
 108 21 l 2,104,105
 114 21 114 21 118.5 23.5 c 128,-1,106
 123 26 123 26 123 34 c 2,90,-1
1065 492 m 256,107,108
 1065 390 1065 390 1028 300 c 128,-1,109
 991 210 991 210 927.5 143.5 c 128,-1,110
 864 77 864 77 778 38 c 128,-1,111
 692 -1 692 -1 595 -1 c 0,112,113
 502 -1 502 -1 420 35.5 c 128,-1,114
 338 72 338 72 275 133 c 1,115,-1
 335 183 l 1,116,117
 387 131 387 131 454 102 c 128,-1,118
 521 73 521 73 597 73 c 0,119,120
 677 73 677 73 747 106 c 128,-1,121
 817 139 817 139 869.5 196 c 128,-1,122
 922 253 922 253 952 329 c 128,-1,123
 982 405 982 405 982 492 c 256,124,125
 982 579 982 579 952 655.5 c 128,-1,126
 922 732 922 732 869.5 789 c 128,-1,127
 817 846 817 846 747 879 c 128,-1,128
 677 912 677 912 597 912 c 0,129,130
 498 912 498 912 415 863 c 128,-1,131
 332 814 332 814 279 733 c 1,132,-1
 227 772 l 1,133,134
 204 741 204 741 193 718 c 128,-1,135
 182 695 182 695 177 687 c 1,136,-1
 159 697 l 1,137,138
 169 721 169 721 185 744.5 c 128,-1,139
 201 768 201 768 218 791 c 0,140,141
 251 835 251 835 292.5 871 c 128,-1,142
 334 907 334 907 382 932.5 c 128,-1,143
 430 958 430 958 484 972 c 128,-1,144
 538 986 538 986 595 986 c 0,145,146
 692 986 692 986 778 947 c 128,-1,147
 864 908 864 908 927.5 841 c 128,-1,148
 991 774 991 774 1028 684 c 128,-1,149
 1065 594 1065 594 1065 492 c 256,107,108
224 846 m 1,150,151
 203 823 203 823 183.5 796.5 c 128,-1,152
 164 770 164 770 147 741 c 128,-1,153
 130 712 130 712 118 680 c 128,-1,154
 106 648 106 648 100 615 c 0,155,156
 92 570 92 570 94 526 c 128,-1,157
 96 482 96 482 106 440 c 128,-1,158
 116 398 116 398 134 359.5 c 128,-1,159
 152 321 152 321 175 288 c 1,160,-1
 107 245 l 1,161,162
 50 324 50 324 23 418 c 128,-1,163
 -4 512 -4 512 15 619 c 0,164,165
 22 660 22 660 36 700 c 128,-1,166
 50 740 50 740 69.5 777 c 128,-1,167
 89 814 89 814 113 846.5 c 128,-1,168
 137 879 137 879 164 906 c 1,169,-1
 214 863 l 1,170,171
 221 872 221 872 228 879 c 128,-1,172
 235 886 235 886 243.5 893.5 c 128,-1,173
 252 901 252 901 262.5 909 c 128,-1,174
 273 917 273 917 288 928 c 1,175,-1
 302 916 l 1,176,177
 279 898 279 898 258 880.5 c 128,-1,178
 237 863 237 863 225 846 c 1,179,-1
 224 846 l 1,150,151
1501 249 m 1,180,-1
 1115 249 l 1,181,-1
 1115 -67 l 1,182,-1
 208 -67 l 1,183,-1
 208 364 l 1,184,-1
 208 372 l 1,185,-1
 227 371 l 1,186,-1
 227 364 l 1,187,-1
 227 -50 l 1,188,-1
 1097 -50 l 1,189,-1
 1097 266 l 1,190,-1
 1501 266 l 1,191,-1
 1509 266 l 1,192,-1
 1509 249 l 1,193,-1
 1501 249 l 1,180,-1
EndSplineSet
EndChar

